<svg width="160" height="40" viewBox="0 0 160 40" fill="none" xmlns="http://www.w3.org/2000/svg">
<path d="M93.6053 22.8036C94.7073 22.8036 95.6383 21.8741 95.6383 20.7548C95.6383 19.6356 94.7073 18.7061 93.6053 18.7061C92.5033 18.7061 91.5723 19.6356 91.5723 20.7548C91.5723 21.8741 92.5033 22.8036 93.6053 22.8036Z" fill="#C09C7C"/>
<path d="M132.687 14.7615C131.072 14.7615 130.027 15.3496 129.4 16.2602C128.773 15.3117 127.766 14.7615 126.436 14.7615C124.916 14.7615 123.928 15.3496 123.396 16.1274V15.084H119.995V26.4472H123.396V20.0352C123.396 18.6883 124.023 17.8916 125.163 17.8916C126.246 17.8916 126.797 18.6125 126.797 19.7507V26.4282H130.198V20.0163C130.198 18.6694 130.825 17.8726 131.965 17.8726C133.048 17.8726 133.599 18.5935 133.599 19.7317V26.4092H137V19.4282C137 16.6396 135.29 14.7615 132.687 14.7615ZM112.965 23.4499C111.483 23.4499 110.362 22.3875 110.362 20.7751C110.362 19.1626 111.502 18.1003 112.965 18.1003C114.447 18.1003 115.568 19.1626 115.568 20.7751C115.568 22.3875 114.447 23.4499 112.965 23.4499ZM112.965 14.7615C109.64 14.7615 106.961 17.3794 106.961 20.7561C106.961 24.1328 109.64 26.7507 112.965 26.7507C116.29 26.7507 118.969 24.1328 118.969 20.7561C118.969 17.3794 116.309 14.7615 112.965 14.7615ZM102.135 23.4119C100.653 23.4119 99.57 22.3496 99.57 20.7751C99.57 19.2005 100.653 18.1382 102.135 18.1382C103.123 18.1382 103.94 18.6125 104.339 19.4092L107.303 17.6829C106.334 15.9377 104.377 14.7805 102.173 14.7805C98.734 14.7805 96.169 17.3984 96.169 20.7751C96.169 24.1518 98.734 26.7696 102.173 26.7696C104.396 26.7696 106.315 25.6125 107.303 23.8293L104.339 22.122C103.959 22.9187 103.123 23.4119 102.135 23.4119ZM79.525 23.5447C77.967 23.5447 76.827 22.4824 76.827 20.7751C76.827 19.0677 77.967 18.0054 79.525 18.0054C81.083 18.0054 82.223 19.0677 82.223 20.7751C82.223 22.4634 81.102 23.5447 79.525 23.5447ZM82.223 16.1463C81.482 15.2737 80.361 14.7615 78.841 14.7615C75.877 14.7615 73.426 17.3794 73.426 20.7561C73.426 24.1328 75.877 26.7507 78.841 26.7507C80.361 26.7507 81.463 26.2195 82.223 25.3659V26.4282H85.624V15.065H82.223V16.1463ZM70.861 11.897L67.46 12.9214V15.084H65.655V18.3659H67.46V22.3875C67.46 25.5745 68.752 26.9024 73.198 26.4472V23.355C71.697 23.4499 70.861 23.355 70.861 22.3686V18.3469H73.198V15.065H70.861V11.897ZM61.304 26.4472H64.705V15.084H61.304V26.4472ZM87.22 26.4472H90.621V10L87.22 11.0434V26.4472ZM54.198 23.5447C52.64 23.5447 51.5 22.4824 51.5 20.7751C51.5 19.0677 52.64 18.0054 54.198 18.0054C55.756 18.0054 56.896 19.0677 56.896 20.7751C56.896 22.4634 55.756 23.5447 54.198 23.5447ZM54.882 14.7615C53.362 14.7615 52.26 15.2737 51.5 16.1463V15.084H48.099V31H51.5V25.3848C52.241 26.2575 53.362 26.7696 54.882 26.7696C57.846 26.7696 60.297 24.1518 60.297 20.7751C60.297 17.3794 57.846 14.7615 54.882 14.7615ZM40.404 23.5447C38.846 23.5447 37.706 22.4824 37.706 20.7751C37.706 19.0677 38.846 18.0054 40.404 18.0054C41.962 18.0054 43.102 19.0677 43.102 20.7751C43.102 22.4634 41.981 23.5447 40.404 23.5447ZM43.102 16.1463C42.361 15.2737 41.24 14.7615 39.72 14.7615C36.756 14.7615 34.305 17.3794 34.305 20.7561C34.305 24.1328 36.756 26.7507 39.72 26.7507C41.24 26.7507 42.342 26.2195 43.102 25.3659V26.4282H46.503V15.065H43.102V16.1463ZM28.966 18.1382C29.954 18.1382 30.771 18.6125 31.17 19.4092L34.134 17.6829C33.165 15.9377 31.208 14.7805 29.004 14.7805C25.565 14.7805 23 17.3984 23 20.7751C23 24.1518 25.565 26.7696 29.004 26.7696C31.227 26.7696 33.146 25.6125 34.134 23.8293L31.17 22.122C30.809 22.9187 29.973 23.393 28.966 23.393C27.484 23.393 26.401 22.3306 26.401 20.7561C26.401 19.1816 27.484 18.1382 28.966 18.1382ZM63.052 14.2304C64.154 14.2304 65.085 13.3008 65.085 12.1816C65.085 11.0623 64.154 10.1328 63.052 10.1328C61.95 10.1328 61.019 11.0623 61.019 12.1816C61.019 13.3008 61.95 14.2304 63.052 14.2304Z" fill="black"/>
</svg>
