<svg width="160" height="40" viewBox="0 0 160 40" fill="none" xmlns="http://www.w3.org/2000/svg">
<g clip-path="url(#clip0_26822_19142)">
<path fill-rule="evenodd" clip-rule="evenodd" d="M64.9959 21.9671L64.2764 24.3885H56.9097V24.0472L57.8634 23.3949V15.6044L56.9097 14.9521V14.6108H64.6204L64.7924 14.7814L64.3079 16.9701H63.9639C63.651 15.6196 63.1971 15.4337 60.9449 15.4337H59.8657V19.0185L63.4159 18.8014L63.4943 18.863L63.1656 20.0116L63.0719 20.0429L59.8657 19.7329V23.5656H60.8823C62.7122 23.5656 63.6667 23.2868 64.6519 21.8434L64.9959 21.9671ZM140.87 14.9521L139.916 15.6044V24.2639L139.791 24.3885H138.274L132.674 16.7065V23.3949L133.8 24.0472V24.3885H130.703V24.0472L131.658 23.3949V15.5736L130.563 14.9521V14.6108H133.518L138.899 22.0292V15.6044L137.773 14.9521V14.6108H140.87V14.9521ZM124.76 23.3949L125.886 24.0472V24.3885H121.82V24.0472L122.774 23.3949V15.6044L121.82 14.9521V14.6108H125.949C128.826 14.6108 130.312 15.5887 130.312 17.4665C130.312 19.6082 128.217 21.0673 125.104 21.0673C124.963 21.0673 124.838 21.0673 124.76 21.0512V23.3949ZM121.037 14.9521L120.068 15.5887L116.846 24.3885H114.984L111.559 15.6352L110.558 14.9521V14.6108H114.593V14.9521L113.608 15.6196L116.392 22.7118H116.502L118.848 15.6044L117.846 14.9521V14.6108H121.037V14.9521ZM124.76 20.2449C126.949 20.307 128.279 19.2669 128.279 17.5138C128.279 16.0699 127.529 15.3408 126.027 15.3408C125.604 15.3408 125.12 15.4489 124.76 15.6196V20.2449ZM83.2177 20.3378C83.2177 22.7744 81.5752 24.5127 79.2757 24.5127C78.6035 24.5127 78.0402 24.3416 77.4932 24.1093V26.499L78.6193 27.1508V27.4922H74.6304V27.1508L75.6008 26.499V17.9945L74.6304 17.42V17.0782L77.2113 16.5662L77.4932 16.753V17.8391C78.1033 17.063 79.0727 16.5823 80.074 16.5823C81.9349 16.5823 83.2177 18.196 83.2177 20.3378ZM89.5209 18.2894H89.1769C88.9265 18.1339 88.6604 18.0562 88.3943 18.0562C87.8162 18.0562 87.2687 18.2738 86.7838 18.6924V23.3949L87.9414 24.0472V24.3885H83.9057V24.0472L84.8756 23.3949V17.9945L83.9057 17.42V17.0782L86.5019 16.5662L86.7838 16.753V17.9784C87.284 17.1716 88.1602 16.5975 89.0359 16.5975C89.443 16.5975 89.787 16.7065 90.0684 16.9076L89.5209 18.2894ZM95.4016 20.4307C94.3539 20.4307 93.181 20.3999 91.8987 20.3534C92.0707 22.0918 93.0243 23.1001 94.5885 23.1001C95.5268 23.1001 96.1369 22.8673 96.6529 22.4331L96.9816 22.6815C96.4656 23.9069 95.308 24.5744 93.8064 24.5744C91.5074 24.5744 89.959 23.0072 89.959 20.617C89.959 18.3359 91.4916 16.5662 93.8221 16.5662C94.9014 16.5662 95.7146 16.9076 96.2936 17.5755C96.8722 18.2429 97.1536 19.1114 97.1383 20.1823L96.9033 20.4155C96.5908 20.4307 96.0901 20.4307 95.4016 20.4307ZM98.4985 22.1847H98.8272C99.4373 23.1778 100.329 23.7519 101.095 23.7519C101.784 23.7519 102.206 23.3949 102.206 22.8365C102.206 22.1999 101.83 21.8585 100.892 21.502L100.188 21.238C98.8587 20.7412 98.0609 19.95 98.0609 18.9099C98.0609 17.6219 99.2811 16.6288 101.095 16.6288C102.143 16.6288 103.144 16.8772 103.88 17.3114L103.128 18.5843H102.816C102.3 17.7926 101.658 17.3892 100.907 17.3892C100.235 17.3892 99.797 17.7613 99.797 18.2738C99.797 18.8322 100.204 19.1735 101.408 19.6395L102.206 19.95C103.426 20.4155 103.957 21.1451 103.957 22.0918C103.957 23.5812 102.753 24.5127 100.923 24.5127C99.797 24.5127 98.6552 24.2179 97.8263 23.7059L98.4985 22.1847ZM105.365 22.1847H105.694C106.304 23.1778 107.195 23.7519 107.961 23.7519C108.65 23.7519 109.072 23.3949 109.072 22.8365C109.072 22.1999 108.697 21.8585 107.758 21.502L107.054 21.238C105.725 20.7412 104.927 19.95 104.927 18.9099C104.927 17.6219 106.147 16.6288 107.961 16.6288C109.01 16.6288 110.01 16.8772 110.745 17.3114L109.995 18.5843H109.681C109.166 17.7926 108.525 17.3892 107.774 17.3892C107.101 17.3892 106.663 17.7613 106.663 18.2738C106.663 18.8322 107.07 19.1735 108.274 19.6395L109.072 19.95C110.292 20.4155 110.824 21.1451 110.824 22.0918C110.824 23.5812 109.619 24.5127 107.789 24.5127C106.663 24.5127 105.522 24.2179 104.692 23.7059L105.365 22.1847ZM70.7051 20.462L73.0041 23.3949L73.8641 24.0472V24.3885H69.9699V24.0472L70.7835 23.4414L69.2188 21.3314L67.7172 23.4414L68.6245 24.0472V24.3885H65.5276V24.0472L66.4822 23.4106L68.7186 20.6796L66.4349 17.7926L65.5591 17.11V16.7686H69.4376V17.11L68.6402 17.7149L70.1887 19.8102L71.6903 17.7149L70.7835 17.11V16.7686H73.8799V17.11L72.9258 17.7461L70.7051 20.462ZM95.1513 19.4219C94.9793 18.0562 94.3386 17.4044 93.4782 17.4044C92.5398 17.4044 91.914 18.3202 91.8671 19.6243L95.1513 19.4219ZM81.3406 21.129C81.3406 19.4067 80.4964 17.9784 79.1353 17.9784C78.5724 17.9784 78.0249 18.1652 77.4932 18.553V22.6346C77.9313 23.302 78.6035 23.6282 79.4009 23.6282C80.59 23.6282 81.3406 22.6967 81.3406 21.129ZM27.4928 31.002C24.2555 31.002 22.1906 29.1974 22.1906 26.6895C22.1906 25.8633 22.4373 24.8545 23.3927 22.8052H20.002L23.115 16.1982H44.7852C45.2784 16.1982 45.6173 15.8316 45.6173 15.4038C45.6173 14.9751 45.2784 14.608 44.7852 14.608H27.2457L28.7872 11.3356C29.7427 9.31709 31.808 8.00195 34.0579 8.00195H41.4254C45.679 8.00195 48.8231 10.9073 48.8231 14.6996C48.8231 19.1961 44.6618 22.8052 39.8534 22.8052H25.6125C25.1804 23.6921 25.6737 24.3959 26.7219 24.3959H38.0653C39.9456 24.3959 41.3944 25.7106 41.3944 27.3928C41.3944 29.3197 39.5145 31.002 37.387 31.002H27.4928Z" fill="#DA3940"/>
</g>
<defs>
<clipPath id="clip0_26822_19142">
<rect width="121" height="23" fill="white" transform="translate(20 8)"/>
</clipPath>
</defs>
</svg>
