<svg width="1364" height="700" viewBox="0 0 1364 700" fill="none" xmlns="http://www.w3.org/2000/svg">
<g opacity="0.1">
<path d="M158 0H163.738L163.736 0.00185394L171.434 10.8981C171.556 11.07 171.556 11.2992 171.434 11.4692L165.363 20H161.777V15.3858L169.666 11.6885C170.067 11.5008 170.038 10.9218 169.62 10.7756L158 6.68505V0Z" fill="white"/>
<path d="M175.544 6.11989H178.069V16.3521H175.615L172.149 11.4672C172.027 11.2973 172.027 11.068 172.149 10.8961L175.544 6.11989Z" fill="white"/>
</g>
<g opacity="0.1">
<path d="M158 68H163.738L163.736 68.0019L171.434 78.8981C171.556 79.07 171.556 79.2992 171.434 79.4692L165.363 88H161.777V83.3858L169.666 79.6885C170.067 79.5008 170.038 78.9218 169.62 78.7756L158 74.685V68Z" fill="white"/>
<path d="M175.544 74.1199H178.069V84.3521H175.615L172.149 79.4672C172.027 79.2973 172.027 79.068 172.149 78.8961L175.544 74.1199Z" fill="white"/>
</g>
<g opacity="0.1">
<path d="M158 136H163.738L163.736 136.002L171.434 146.898C171.556 147.07 171.556 147.299 171.434 147.469L165.363 156H161.777V151.386L169.666 147.689C170.067 147.501 170.038 146.922 169.62 146.776L158 142.685V136Z" fill="white"/>
<path d="M175.544 142.12H178.069V152.352H175.615L172.149 147.467C172.027 147.297 172.027 147.068 172.149 146.896L175.544 142.12Z" fill="white"/>
</g>
<g opacity="0.1">
<path d="M158 204H163.738L163.736 204.002L171.434 214.898C171.556 215.07 171.556 215.299 171.434 215.469L165.363 224H161.777V219.386L169.666 215.689C170.067 215.501 170.038 214.922 169.62 214.776L158 210.685V204Z" fill="white"/>
<path d="M175.544 210.12H178.069V220.352H175.615L172.149 215.467C172.027 215.297 172.027 215.068 172.149 214.896L175.544 210.12Z" fill="white"/>
</g>
<g opacity="0.1">
<path d="M158 272H163.738L163.736 272.002L171.434 282.898C171.556 283.07 171.556 283.299 171.434 283.469L165.363 292H161.777V287.386L169.666 283.689C170.067 283.501 170.038 282.922 169.62 282.776L158 278.685V272Z" fill="white"/>
<path d="M175.544 278.12H178.069V288.352H175.615L172.149 283.467C172.027 283.297 172.027 283.068 172.149 282.896L175.544 278.12Z" fill="white"/>
</g>
<g opacity="0.1">
<path d="M158 340H163.738L163.736 340.002L171.434 350.898C171.556 351.07 171.556 351.299 171.434 351.469L165.363 360H161.777V355.386L169.666 351.689C170.067 351.501 170.038 350.922 169.62 350.776L158 346.685V340Z" fill="white"/>
<path d="M175.544 346.12H178.069V356.352H175.615L172.149 351.467C172.027 351.297 172.027 351.068 172.149 350.896L175.544 346.12Z" fill="white"/>
</g>
<g opacity="0.1">
<path d="M158 408H163.738L163.736 408.002L171.434 418.898C171.556 419.07 171.556 419.299 171.434 419.469L165.363 428H161.777V423.386L169.666 419.689C170.067 419.501 170.038 418.922 169.62 418.776L158 414.685V408Z" fill="white"/>
<path d="M175.544 414.12H178.069V424.352H175.615L172.149 419.467C172.027 419.297 172.027 419.068 172.149 418.896L175.544 414.12Z" fill="white"/>
</g>
<g opacity="0.1">
<path d="M158 476H163.738L163.736 476.002L171.434 486.898C171.556 487.07 171.556 487.299 171.434 487.469L165.363 496H161.777V491.386L169.666 487.689C170.067 487.501 170.038 486.922 169.62 486.776L158 482.685V476Z" fill="white"/>
<path d="M175.544 482.12H178.069V492.352H175.615L172.149 487.467C172.027 487.297 172.027 487.068 172.149 486.896L175.544 482.12Z" fill="white"/>
</g>
<g opacity="0.1">
<path d="M158 544H163.738L163.736 544.002L171.434 554.898C171.556 555.07 171.556 555.299 171.434 555.469L165.363 564H161.777V559.386L169.666 555.689C170.067 555.501 170.038 554.922 169.62 554.776L158 550.685V544Z" fill="white"/>
<path d="M175.544 550.12H178.069V560.352H175.615L172.149 555.467C172.027 555.297 172.027 555.068 172.149 554.896L175.544 550.12Z" fill="white"/>
</g>
<g opacity="0.1">
<path d="M158 612H163.738L163.736 612.002L171.434 622.898C171.556 623.07 171.556 623.299 171.434 623.469L165.363 632H161.777V627.386L169.666 623.689C170.067 623.501 170.038 622.922 169.62 622.776L158 618.685V612Z" fill="white"/>
<path d="M175.544 618.12H178.069V628.352H175.615L172.149 623.467C172.027 623.297 172.027 623.068 172.149 622.896L175.544 618.12Z" fill="white"/>
</g>
<g opacity="0.1">
<path d="M158 680H163.738L163.736 680.002L171.434 690.898C171.556 691.07 171.556 691.299 171.434 691.469L165.363 700H161.777V695.386L169.666 691.689C170.067 691.501 170.038 690.922 169.62 690.776L158 686.685V680Z" fill="white"/>
<path d="M175.544 686.12H178.069V696.352H175.615L172.149 691.467C172.027 691.297 172.027 691.068 172.149 690.896L175.544 686.12Z" fill="white"/>
</g>
<g opacity="0.1">
<path d="M237 0H242.738L242.736 0.00185394L250.434 10.8981C250.556 11.07 250.556 11.2992 250.434 11.4692L244.363 20H240.777V15.3858L248.666 11.6885C249.067 11.5008 249.038 10.9218 248.62 10.7756L237 6.68505V0Z" fill="white"/>
<path d="M254.544 6.11989H257.069V16.3521H254.615L251.149 11.4672C251.027 11.2973 251.027 11.068 251.149 10.8961L254.544 6.11989Z" fill="white"/>
</g>
<path d="M237 68H242.738L242.736 68.0019L250.434 78.8981C250.556 79.07 250.556 79.2992 250.434 79.4692L244.363 88H240.777V83.3858L248.666 79.6885C249.067 79.5008 249.038 78.9218 248.62 78.7756L237 74.685V68Z" fill="white"/>
<path d="M254.544 74.1199H257.069V84.3521H254.615L251.149 79.4672C251.027 79.2973 251.027 79.068 251.149 78.8961L254.544 74.1199Z" fill="white"/>
<g opacity="0.1">
<path d="M237 136H242.738L242.736 136.002L250.434 146.898C250.556 147.07 250.556 147.299 250.434 147.469L244.363 156H240.777V151.386L248.666 147.689C249.067 147.501 249.038 146.922 248.62 146.776L237 142.685V136Z" fill="white"/>
<path d="M254.544 142.12H257.069V152.352H254.615L251.149 147.467C251.027 147.297 251.027 147.068 251.149 146.896L254.544 142.12Z" fill="white"/>
</g>
<g opacity="0.1">
<path d="M237 204H242.738L242.736 204.002L250.434 214.898C250.556 215.07 250.556 215.299 250.434 215.469L244.363 224H240.777V219.386L248.666 215.689C249.067 215.501 249.038 214.922 248.62 214.776L237 210.685V204Z" fill="white"/>
<path d="M254.544 210.12H257.069V220.352H254.615L251.149 215.467C251.027 215.297 251.027 215.068 251.149 214.896L254.544 210.12Z" fill="white"/>
</g>
<g opacity="0.1">
<path d="M237 272H242.738L242.736 272.002L250.434 282.898C250.556 283.07 250.556 283.299 250.434 283.469L244.363 292H240.777V287.386L248.666 283.689C249.067 283.501 249.038 282.922 248.62 282.776L237 278.685V272Z" fill="white"/>
<path d="M254.544 278.12H257.069V288.352H254.615L251.149 283.467C251.027 283.297 251.027 283.068 251.149 282.896L254.544 278.12Z" fill="white"/>
</g>
<g opacity="0.1">
<path d="M237 340H242.738L242.736 340.002L250.434 350.898C250.556 351.07 250.556 351.299 250.434 351.469L244.363 360H240.777V355.386L248.666 351.689C249.067 351.501 249.038 350.922 248.62 350.776L237 346.685V340Z" fill="white"/>
<path d="M254.544 346.12H257.069V356.352H254.615L251.149 351.467C251.027 351.297 251.027 351.068 251.149 350.896L254.544 346.12Z" fill="white"/>
</g>
<g opacity="0.1">
<path d="M237 408H242.738L242.736 408.002L250.434 418.898C250.556 419.07 250.556 419.299 250.434 419.469L244.363 428H240.777V423.386L248.666 419.689C249.067 419.501 249.038 418.922 248.62 418.776L237 414.685V408Z" fill="white"/>
<path d="M254.544 414.12H257.069V424.352H254.615L251.149 419.467C251.027 419.297 251.027 419.068 251.149 418.896L254.544 414.12Z" fill="white"/>
</g>
<g opacity="0.1">
<path d="M237 476H242.738L242.736 476.002L250.434 486.898C250.556 487.07 250.556 487.299 250.434 487.469L244.363 496H240.777V491.386L248.666 487.689C249.067 487.501 249.038 486.922 248.62 486.776L237 482.685V476Z" fill="white"/>
<path d="M254.544 482.12H257.069V492.352H254.615L251.149 487.467C251.027 487.297 251.027 487.068 251.149 486.896L254.544 482.12Z" fill="white"/>
</g>
<g opacity="0.1">
<path d="M237 544H242.738L242.736 544.002L250.434 554.898C250.556 555.07 250.556 555.299 250.434 555.469L244.363 564H240.777V559.386L248.666 555.689C249.067 555.501 249.038 554.922 248.62 554.776L237 550.685V544Z" fill="white"/>
<path d="M254.544 550.12H257.069V560.352H254.615L251.149 555.467C251.027 555.297 251.027 555.068 251.149 554.896L254.544 550.12Z" fill="white"/>
</g>
<path d="M237 612H242.738L242.736 612.002L250.434 622.898C250.556 623.07 250.556 623.299 250.434 623.469L244.363 632H240.777V627.386L248.666 623.689C249.067 623.501 249.038 622.922 248.62 622.776L237 618.685V612Z" fill="white"/>
<path d="M254.544 618.12H257.069V628.352H254.615L251.149 623.467C251.027 623.297 251.027 623.068 251.149 622.896L254.544 618.12Z" fill="white"/>
<g opacity="0.1">
<path d="M237 680H242.738L242.736 680.002L250.434 690.898C250.556 691.07 250.556 691.299 250.434 691.469L244.363 700H240.777V695.386L248.666 691.689C249.067 691.501 249.038 690.922 248.62 690.776L237 686.685V680Z" fill="white"/>
<path d="M254.544 686.12H257.069V696.352H254.615L251.149 691.467C251.027 691.297 251.027 691.068 251.149 690.896L254.544 686.12Z" fill="white"/>
</g>
<g opacity="0.1">
<path d="M316 0H321.738L321.736 0.00185394L329.434 10.8981C329.556 11.07 329.556 11.2992 329.434 11.4692L323.363 20H319.777V15.3858L327.666 11.6885C328.067 11.5008 328.038 10.9218 327.62 10.7756L316 6.68505V0Z" fill="white"/>
<path d="M333.544 6.11989H336.069V16.3521H333.615L330.149 11.4672C330.027 11.2973 330.027 11.068 330.149 10.8961L333.544 6.11989Z" fill="white"/>
</g>
<g opacity="0.1">
<path d="M316 68H321.738L321.736 68.0019L329.434 78.8981C329.556 79.07 329.556 79.2992 329.434 79.4692L323.363 88H319.777V83.3858L327.666 79.6885C328.067 79.5008 328.038 78.9218 327.62 78.7756L316 74.685V68Z" fill="white"/>
<path d="M333.544 74.1199H336.069V84.3521H333.615L330.149 79.4672C330.027 79.2973 330.027 79.068 330.149 78.8961L333.544 74.1199Z" fill="white"/>
</g>
<g opacity="0.1">
<path d="M316 136H321.738L321.736 136.002L329.434 146.898C329.556 147.07 329.556 147.299 329.434 147.469L323.363 156H319.777V151.386L327.666 147.689C328.067 147.501 328.038 146.922 327.62 146.776L316 142.685V136Z" fill="white"/>
<path d="M333.544 142.12H336.069V152.352H333.615L330.149 147.467C330.027 147.297 330.027 147.068 330.149 146.896L333.544 142.12Z" fill="white"/>
</g>
<g opacity="0.1">
<path d="M316 204H321.738L321.736 204.002L329.434 214.898C329.556 215.07 329.556 215.299 329.434 215.469L323.363 224H319.777V219.386L327.666 215.689C328.067 215.501 328.038 214.922 327.62 214.776L316 210.685V204Z" fill="white"/>
<path d="M333.544 210.12H336.069V220.352H333.615L330.149 215.467C330.027 215.297 330.027 215.068 330.149 214.896L333.544 210.12Z" fill="white"/>
</g>
<g opacity="0.1">
<path d="M316 272H321.738L321.736 272.002L329.434 282.898C329.556 283.07 329.556 283.299 329.434 283.469L323.363 292H319.777V287.386L327.666 283.689C328.067 283.501 328.038 282.922 327.62 282.776L316 278.685V272Z" fill="white"/>
<path d="M333.544 278.12H336.069V288.352H333.615L330.149 283.467C330.027 283.297 330.027 283.068 330.149 282.896L333.544 278.12Z" fill="white"/>
</g>
<g opacity="0.1">
<path d="M316 340H321.738L321.736 340.002L329.434 350.898C329.556 351.07 329.556 351.299 329.434 351.469L323.363 360H319.777V355.386L327.666 351.689C328.067 351.501 328.038 350.922 327.62 350.776L316 346.685V340Z" fill="white"/>
<path d="M333.544 346.12H336.069V356.352H333.615L330.149 351.467C330.027 351.297 330.027 351.068 330.149 350.896L333.544 346.12Z" fill="white"/>
</g>
<g opacity="0.1">
<path d="M316 408H321.738L321.736 408.002L329.434 418.898C329.556 419.07 329.556 419.299 329.434 419.469L323.363 428H319.777V423.386L327.666 419.689C328.067 419.501 328.038 418.922 327.62 418.776L316 414.685V408Z" fill="white"/>
<path d="M333.544 414.12H336.069V424.352H333.615L330.149 419.467C330.027 419.297 330.027 419.068 330.149 418.896L333.544 414.12Z" fill="white"/>
</g>
<g opacity="0.1">
<path d="M316 476H321.738L321.736 476.002L329.434 486.898C329.556 487.07 329.556 487.299 329.434 487.469L323.363 496H319.777V491.386L327.666 487.689C328.067 487.501 328.038 486.922 327.62 486.776L316 482.685V476Z" fill="white"/>
<path d="M333.544 482.12H336.069V492.352H333.615L330.149 487.467C330.027 487.297 330.027 487.068 330.149 486.896L333.544 482.12Z" fill="white"/>
</g>
<g opacity="0.1">
<path d="M316 544H321.738L321.736 544.002L329.434 554.898C329.556 555.07 329.556 555.299 329.434 555.469L323.363 564H319.777V559.386L327.666 555.689C328.067 555.501 328.038 554.922 327.62 554.776L316 550.685V544Z" fill="white"/>
<path d="M333.544 550.12H336.069V560.352H333.615L330.149 555.467C330.027 555.297 330.027 555.068 330.149 554.896L333.544 550.12Z" fill="white"/>
</g>
<g opacity="0.1">
<path d="M316 612H321.738L321.736 612.002L329.434 622.898C329.556 623.07 329.556 623.299 329.434 623.469L323.363 632H319.777V627.386L327.666 623.689C328.067 623.501 328.038 622.922 327.62 622.776L316 618.685V612Z" fill="white"/>
<path d="M333.544 618.12H336.069V628.352H333.615L330.149 623.467C330.027 623.297 330.027 623.068 330.149 622.896L333.544 618.12Z" fill="white"/>
</g>
<g opacity="0.1">
<path d="M316 680H321.738L321.736 680.002L329.434 690.898C329.556 691.07 329.556 691.299 329.434 691.469L323.363 700H319.777V695.386L327.666 691.689C328.067 691.501 328.038 690.922 327.62 690.776L316 686.685V680Z" fill="white"/>
<path d="M333.544 686.12H336.069V696.352H333.615L330.149 691.467C330.027 691.297 330.027 691.068 330.149 690.896L333.544 686.12Z" fill="white"/>
</g>
<g opacity="0.1">
<path d="M395 0H400.738L400.736 0.00185394L408.434 10.8981C408.556 11.07 408.556 11.2992 408.434 11.4692L402.363 20H398.777V15.3858L406.666 11.6885C407.067 11.5008 407.038 10.9218 406.62 10.7756L395 6.68505V0Z" fill="white"/>
<path d="M412.544 6.11989H415.069V16.3521H412.615L409.149 11.4672C409.027 11.2973 409.027 11.068 409.149 10.8961L412.544 6.11989Z" fill="white"/>
</g>
<g opacity="0.1">
<path d="M395 68H400.738L400.736 68.0019L408.434 78.8981C408.556 79.07 408.556 79.2992 408.434 79.4692L402.363 88H398.777V83.3858L406.666 79.6885C407.067 79.5008 407.038 78.9218 406.62 78.7756L395 74.685V68Z" fill="white"/>
<path d="M412.544 74.1199H415.069V84.3521H412.615L409.149 79.4672C409.027 79.2973 409.027 79.068 409.149 78.8961L412.544 74.1199Z" fill="white"/>
</g>
<g opacity="0.1">
<path d="M395 136H400.738L400.736 136.002L408.434 146.898C408.556 147.07 408.556 147.299 408.434 147.469L402.363 156H398.777V151.386L406.666 147.689C407.067 147.501 407.038 146.922 406.62 146.776L395 142.685V136Z" fill="white"/>
<path d="M412.544 142.12H415.069V152.352H412.615L409.149 147.467C409.027 147.297 409.027 147.068 409.149 146.896L412.544 142.12Z" fill="white"/>
</g>
<g opacity="0.1">
<path d="M395 204H400.738L400.736 204.002L408.434 214.898C408.556 215.07 408.556 215.299 408.434 215.469L402.363 224H398.777V219.386L406.666 215.689C407.067 215.501 407.038 214.922 406.62 214.776L395 210.685V204Z" fill="white"/>
<path d="M412.544 210.12H415.069V220.352H412.615L409.149 215.467C409.027 215.297 409.027 215.068 409.149 214.896L412.544 210.12Z" fill="white"/>
</g>
<g opacity="0.1">
<path d="M395 272H400.738L400.736 272.002L408.434 282.898C408.556 283.07 408.556 283.299 408.434 283.469L402.363 292H398.777V287.386L406.666 283.689C407.067 283.501 407.038 282.922 406.62 282.776L395 278.685V272Z" fill="white"/>
<path d="M412.544 278.12H415.069V288.352H412.615L409.149 283.467C409.027 283.297 409.027 283.068 409.149 282.896L412.544 278.12Z" fill="white"/>
</g>
<g opacity="0.1">
<path d="M395 340H400.738L400.736 340.002L408.434 350.898C408.556 351.07 408.556 351.299 408.434 351.469L402.363 360H398.777V355.386L406.666 351.689C407.067 351.501 407.038 350.922 406.62 350.776L395 346.685V340Z" fill="white"/>
<path d="M412.544 346.12H415.069V356.352H412.615L409.149 351.467C409.027 351.297 409.027 351.068 409.149 350.896L412.544 346.12Z" fill="white"/>
</g>
<g opacity="0.1">
<path d="M395 408H400.738L400.736 408.002L408.434 418.898C408.556 419.07 408.556 419.299 408.434 419.469L402.363 428H398.777V423.386L406.666 419.689C407.067 419.501 407.038 418.922 406.62 418.776L395 414.685V408Z" fill="white"/>
<path d="M412.544 414.12H415.069V424.352H412.615L409.149 419.467C409.027 419.297 409.027 419.068 409.149 418.896L412.544 414.12Z" fill="white"/>
</g>
<g opacity="0.1">
<path d="M395 476H400.738L400.736 476.002L408.434 486.898C408.556 487.07 408.556 487.299 408.434 487.469L402.363 496H398.777V491.386L406.666 487.689C407.067 487.501 407.038 486.922 406.62 486.776L395 482.685V476Z" fill="white"/>
<path d="M412.544 482.12H415.069V492.352H412.615L409.149 487.467C409.027 487.297 409.027 487.068 409.149 486.896L412.544 482.12Z" fill="white"/>
</g>
<g opacity="0.1">
<path d="M395 544H400.738L400.736 544.002L408.434 554.898C408.556 555.07 408.556 555.299 408.434 555.469L402.363 564H398.777V559.386L406.666 555.689C407.067 555.501 407.038 554.922 406.62 554.776L395 550.685V544Z" fill="white"/>
<path d="M412.544 550.12H415.069V560.352H412.615L409.149 555.467C409.027 555.297 409.027 555.068 409.149 554.896L412.544 550.12Z" fill="white"/>
</g>
<g opacity="0.1">
<path d="M395 612H400.738L400.736 612.002L408.434 622.898C408.556 623.07 408.556 623.299 408.434 623.469L402.363 632H398.777V627.386L406.666 623.689C407.067 623.501 407.038 622.922 406.62 622.776L395 618.685V612Z" fill="white"/>
<path d="M412.544 618.12H415.069V628.352H412.615L409.149 623.467C409.027 623.297 409.027 623.068 409.149 622.896L412.544 618.12Z" fill="white"/>
</g>
<g opacity="0.1">
<path d="M395 680H400.738L400.736 680.002L408.434 690.898C408.556 691.07 408.556 691.299 408.434 691.469L402.363 700H398.777V695.386L406.666 691.689C407.067 691.501 407.038 690.922 406.62 690.776L395 686.685V680Z" fill="white"/>
<path d="M412.544 686.12H415.069V696.352H412.615L409.149 691.467C409.027 691.297 409.027 691.068 409.149 690.896L412.544 686.12Z" fill="white"/>
</g>
<g opacity="0.1">
<path d="M474 0H479.738L479.736 0.00185394L487.434 10.8981C487.556 11.07 487.556 11.2992 487.434 11.4692L481.363 20H477.777V15.3858L485.666 11.6885C486.067 11.5008 486.038 10.9218 485.62 10.7756L474 6.68505V0Z" fill="white"/>
<path d="M491.544 6.11989H494.069V16.3521H491.615L488.149 11.4672C488.027 11.2973 488.027 11.068 488.149 10.8961L491.544 6.11989Z" fill="white"/>
</g>
<g opacity="0.1">
<path d="M474 68H479.738L479.736 68.0019L487.434 78.8981C487.556 79.07 487.556 79.2992 487.434 79.4692L481.363 88H477.777V83.3858L485.666 79.6885C486.067 79.5008 486.038 78.9218 485.62 78.7756L474 74.685V68Z" fill="white"/>
<path d="M491.544 74.1199H494.069V84.3521H491.615L488.149 79.4672C488.027 79.2973 488.027 79.068 488.149 78.8961L491.544 74.1199Z" fill="white"/>
</g>
<g opacity="0.1">
<path d="M474 136H479.738L479.736 136.002L487.434 146.898C487.556 147.07 487.556 147.299 487.434 147.469L481.363 156H477.777V151.386L485.666 147.689C486.067 147.501 486.038 146.922 485.62 146.776L474 142.685V136Z" fill="white"/>
<path d="M491.544 142.12H494.069V152.352H491.615L488.149 147.467C488.027 147.297 488.027 147.068 488.149 146.896L491.544 142.12Z" fill="white"/>
</g>
<g opacity="0.1">
<path d="M474 204H479.738L479.736 204.002L487.434 214.898C487.556 215.07 487.556 215.299 487.434 215.469L481.363 224H477.777V219.386L485.666 215.689C486.067 215.501 486.038 214.922 485.62 214.776L474 210.685V204Z" fill="white"/>
<path d="M491.544 210.12H494.069V220.352H491.615L488.149 215.467C488.027 215.297 488.027 215.068 488.149 214.896L491.544 210.12Z" fill="white"/>
</g>
<g opacity="0.1">
<path d="M474 272H479.738L479.736 272.002L487.434 282.898C487.556 283.07 487.556 283.299 487.434 283.469L481.363 292H477.777V287.386L485.666 283.689C486.067 283.501 486.038 282.922 485.62 282.776L474 278.685V272Z" fill="white"/>
<path d="M491.544 278.12H494.069V288.352H491.615L488.149 283.467C488.027 283.297 488.027 283.068 488.149 282.896L491.544 278.12Z" fill="white"/>
</g>
<g opacity="0.1">
<path d="M474 340H479.738L479.736 340.002L487.434 350.898C487.556 351.07 487.556 351.299 487.434 351.469L481.363 360H477.777V355.386L485.666 351.689C486.067 351.501 486.038 350.922 485.62 350.776L474 346.685V340Z" fill="white"/>
<path d="M491.544 346.12H494.069V356.352H491.615L488.149 351.467C488.027 351.297 488.027 351.068 488.149 350.896L491.544 346.12Z" fill="white"/>
</g>
<g opacity="0.1">
<path d="M474 408H479.738L479.736 408.002L487.434 418.898C487.556 419.07 487.556 419.299 487.434 419.469L481.363 428H477.777V423.386L485.666 419.689C486.067 419.501 486.038 418.922 485.62 418.776L474 414.685V408Z" fill="white"/>
<path d="M491.544 414.12H494.069V424.352H491.615L488.149 419.467C488.027 419.297 488.027 419.068 488.149 418.896L491.544 414.12Z" fill="white"/>
</g>
<g opacity="0.1">
<path d="M474 476H479.738L479.736 476.002L487.434 486.898C487.556 487.07 487.556 487.299 487.434 487.469L481.363 496H477.777V491.386L485.666 487.689C486.067 487.501 486.038 486.922 485.62 486.776L474 482.685V476Z" fill="white"/>
<path d="M491.544 482.12H494.069V492.352H491.615L488.149 487.467C488.027 487.297 488.027 487.068 488.149 486.896L491.544 482.12Z" fill="white"/>
</g>
<g opacity="0.1">
<path d="M474 544H479.738L479.736 544.002L487.434 554.898C487.556 555.07 487.556 555.299 487.434 555.469L481.363 564H477.777V559.386L485.666 555.689C486.067 555.501 486.038 554.922 485.62 554.776L474 550.685V544Z" fill="white"/>
<path d="M491.544 550.12H494.069V560.352H491.615L488.149 555.467C488.027 555.297 488.027 555.068 488.149 554.896L491.544 550.12Z" fill="white"/>
</g>
<g opacity="0.1">
<path d="M474 612H479.738L479.736 612.002L487.434 622.898C487.556 623.07 487.556 623.299 487.434 623.469L481.363 632H477.777V627.386L485.666 623.689C486.067 623.501 486.038 622.922 485.62 622.776L474 618.685V612Z" fill="white"/>
<path d="M491.544 618.12H494.069V628.352H491.615L488.149 623.467C488.027 623.297 488.027 623.068 488.149 622.896L491.544 618.12Z" fill="white"/>
</g>
<g opacity="0.1">
<path d="M474 680H479.738L479.736 680.002L487.434 690.898C487.556 691.07 487.556 691.299 487.434 691.469L481.363 700H477.777V695.386L485.666 691.689C486.067 691.501 486.038 690.922 485.62 690.776L474 686.685V680Z" fill="white"/>
<path d="M491.544 686.12H494.069V696.352H491.615L488.149 691.467C488.027 691.297 488.027 691.068 488.149 690.896L491.544 686.12Z" fill="white"/>
</g>
<g opacity="0.1">
<path d="M553 0H558.738L558.736 0.00185394L566.434 10.8981C566.556 11.07 566.556 11.2992 566.434 11.4692L560.363 20H556.777V15.3858L564.666 11.6885C565.067 11.5008 565.038 10.9218 564.62 10.7756L553 6.68505V0Z" fill="white"/>
<path d="M570.544 6.11989H573.069V16.3521H570.615L567.149 11.4672C567.027 11.2973 567.027 11.068 567.149 10.8961L570.544 6.11989Z" fill="white"/>
</g>
<g opacity="0.1">
<path d="M553 68H558.738L558.736 68.0019L566.434 78.8981C566.556 79.07 566.556 79.2992 566.434 79.4692L560.363 88H556.777V83.3858L564.666 79.6885C565.067 79.5008 565.038 78.9218 564.62 78.7756L553 74.685V68Z" fill="white"/>
<path d="M570.544 74.1199H573.069V84.3521H570.615L567.149 79.4672C567.027 79.2973 567.027 79.068 567.149 78.8961L570.544 74.1199Z" fill="white"/>
</g>
<g opacity="0.1">
<path d="M553 136H558.738L558.736 136.002L566.434 146.898C566.556 147.07 566.556 147.299 566.434 147.469L560.363 156H556.777V151.386L564.666 147.689C565.067 147.501 565.038 146.922 564.62 146.776L553 142.685V136Z" fill="white"/>
<path d="M570.544 142.12H573.069V152.352H570.615L567.149 147.467C567.027 147.297 567.027 147.068 567.149 146.896L570.544 142.12Z" fill="white"/>
</g>
<g opacity="0.1">
<path d="M553 204H558.738L558.736 204.002L566.434 214.898C566.556 215.07 566.556 215.299 566.434 215.469L560.363 224H556.777V219.386L564.666 215.689C565.067 215.501 565.038 214.922 564.62 214.776L553 210.685V204Z" fill="white"/>
<path d="M570.544 210.12H573.069V220.352H570.615L567.149 215.467C567.027 215.297 567.027 215.068 567.149 214.896L570.544 210.12Z" fill="white"/>
</g>
<g opacity="0.1">
<path d="M553 272H558.738L558.736 272.002L566.434 282.898C566.556 283.07 566.556 283.299 566.434 283.469L560.363 292H556.777V287.386L564.666 283.689C565.067 283.501 565.038 282.922 564.62 282.776L553 278.685V272Z" fill="white"/>
<path d="M570.544 278.12H573.069V288.352H570.615L567.149 283.467C567.027 283.297 567.027 283.068 567.149 282.896L570.544 278.12Z" fill="white"/>
</g>
<g opacity="0.1">
<path d="M553 340H558.738L558.736 340.002L566.434 350.898C566.556 351.07 566.556 351.299 566.434 351.469L560.363 360H556.777V355.386L564.666 351.689C565.067 351.501 565.038 350.922 564.62 350.776L553 346.685V340Z" fill="white"/>
<path d="M570.544 346.12H573.069V356.352H570.615L567.149 351.467C567.027 351.297 567.027 351.068 567.149 350.896L570.544 346.12Z" fill="white"/>
</g>
<g opacity="0.1">
<path d="M553 408H558.738L558.736 408.002L566.434 418.898C566.556 419.07 566.556 419.299 566.434 419.469L560.363 428H556.777V423.386L564.666 419.689C565.067 419.501 565.038 418.922 564.62 418.776L553 414.685V408Z" fill="white"/>
<path d="M570.544 414.12H573.069V424.352H570.615L567.149 419.467C567.027 419.297 567.027 419.068 567.149 418.896L570.544 414.12Z" fill="white"/>
</g>
<g opacity="0.1">
<path d="M553 476H558.738L558.736 476.002L566.434 486.898C566.556 487.07 566.556 487.299 566.434 487.469L560.363 496H556.777V491.386L564.666 487.689C565.067 487.501 565.038 486.922 564.62 486.776L553 482.685V476Z" fill="white"/>
<path d="M570.544 482.12H573.069V492.352H570.615L567.149 487.467C567.027 487.297 567.027 487.068 567.149 486.896L570.544 482.12Z" fill="white"/>
</g>
<g opacity="0.1">
<path d="M553 544H558.738L558.736 544.002L566.434 554.898C566.556 555.07 566.556 555.299 566.434 555.469L560.363 564H556.777V559.386L564.666 555.689C565.067 555.501 565.038 554.922 564.62 554.776L553 550.685V544Z" fill="white"/>
<path d="M570.544 550.12H573.069V560.352H570.615L567.149 555.467C567.027 555.297 567.027 555.068 567.149 554.896L570.544 550.12Z" fill="white"/>
</g>
<g opacity="0.1">
<path d="M553 612H558.738L558.736 612.002L566.434 622.898C566.556 623.07 566.556 623.299 566.434 623.469L560.363 632H556.777V627.386L564.666 623.689C565.067 623.501 565.038 622.922 564.62 622.776L553 618.685V612Z" fill="white"/>
<path d="M570.544 618.12H573.069V628.352H570.615L567.149 623.467C567.027 623.297 567.027 623.068 567.149 622.896L570.544 618.12Z" fill="white"/>
</g>
<g opacity="0.1">
<path d="M553 680H558.738L558.736 680.002L566.434 690.898C566.556 691.07 566.556 691.299 566.434 691.469L560.363 700H556.777V695.386L564.666 691.689C565.067 691.501 565.038 690.922 564.62 690.776L553 686.685V680Z" fill="white"/>
<path d="M570.544 686.12H573.069V696.352H570.615L567.149 691.467C567.027 691.297 567.027 691.068 567.149 690.896L570.544 686.12Z" fill="white"/>
</g>
<g opacity="0.1">
<path d="M632 0H637.738L637.736 0.00185394L645.434 10.8981C645.556 11.07 645.556 11.2992 645.434 11.4692L639.363 20H635.777V15.3858L643.666 11.6885C644.067 11.5008 644.038 10.9218 643.62 10.7756L632 6.68505V0Z" fill="white"/>
<path d="M649.544 6.11989H652.069V16.3521H649.615L646.149 11.4672C646.027 11.2973 646.027 11.068 646.149 10.8961L649.544 6.11989Z" fill="white"/>
</g>
<g opacity="0.1">
<path d="M632 68H637.738L637.736 68.0019L645.434 78.8981C645.556 79.07 645.556 79.2992 645.434 79.4692L639.363 88H635.777V83.3858L643.666 79.6885C644.067 79.5008 644.038 78.9218 643.62 78.7756L632 74.685V68Z" fill="white"/>
<path d="M649.544 74.1199H652.069V84.3521H649.615L646.149 79.4672C646.027 79.2973 646.027 79.068 646.149 78.8961L649.544 74.1199Z" fill="white"/>
</g>
<g opacity="0.1">
<path d="M632 136H637.738L637.736 136.002L645.434 146.898C645.556 147.07 645.556 147.299 645.434 147.469L639.363 156H635.777V151.386L643.666 147.689C644.067 147.501 644.038 146.922 643.62 146.776L632 142.685V136Z" fill="white"/>
<path d="M649.544 142.12H652.069V152.352H649.615L646.149 147.467C646.027 147.297 646.027 147.068 646.149 146.896L649.544 142.12Z" fill="white"/>
</g>
<g opacity="0.1">
<path d="M632 204H637.738L637.736 204.002L645.434 214.898C645.556 215.07 645.556 215.299 645.434 215.469L639.363 224H635.777V219.386L643.666 215.689C644.067 215.501 644.038 214.922 643.62 214.776L632 210.685V204Z" fill="white"/>
<path d="M649.544 210.12H652.069V220.352H649.615L646.149 215.467C646.027 215.297 646.027 215.068 646.149 214.896L649.544 210.12Z" fill="white"/>
</g>
<g opacity="0.1">
<path d="M632 272H637.738L637.736 272.002L645.434 282.898C645.556 283.07 645.556 283.299 645.434 283.469L639.363 292H635.777V287.386L643.666 283.689C644.067 283.501 644.038 282.922 643.62 282.776L632 278.685V272Z" fill="white"/>
<path d="M649.544 278.12H652.069V288.352H649.615L646.149 283.467C646.027 283.297 646.027 283.068 646.149 282.896L649.544 278.12Z" fill="white"/>
</g>
<g opacity="0.1">
<path d="M632 340H637.738L637.736 340.002L645.434 350.898C645.556 351.07 645.556 351.299 645.434 351.469L639.363 360H635.777V355.386L643.666 351.689C644.067 351.501 644.038 350.922 643.62 350.776L632 346.685V340Z" fill="white"/>
<path d="M649.544 346.12H652.069V356.352H649.615L646.149 351.467C646.027 351.297 646.027 351.068 646.149 350.896L649.544 346.12Z" fill="white"/>
</g>
<g opacity="0.1">
<path d="M632 408H637.738L637.736 408.002L645.434 418.898C645.556 419.07 645.556 419.299 645.434 419.469L639.363 428H635.777V423.386L643.666 419.689C644.067 419.501 644.038 418.922 643.62 418.776L632 414.685V408Z" fill="white"/>
<path d="M649.544 414.12H652.069V424.352H649.615L646.149 419.467C646.027 419.297 646.027 419.068 646.149 418.896L649.544 414.12Z" fill="white"/>
</g>
<g opacity="0.1">
<path d="M632 476H637.738L637.736 476.002L645.434 486.898C645.556 487.07 645.556 487.299 645.434 487.469L639.363 496H635.777V491.386L643.666 487.689C644.067 487.501 644.038 486.922 643.62 486.776L632 482.685V476Z" fill="white"/>
<path d="M649.544 482.12H652.069V492.352H649.615L646.149 487.467C646.027 487.297 646.027 487.068 646.149 486.896L649.544 482.12Z" fill="white"/>
</g>
<g opacity="0.1">
<path d="M632 544H637.738L637.736 544.002L645.434 554.898C645.556 555.07 645.556 555.299 645.434 555.469L639.363 564H635.777V559.386L643.666 555.689C644.067 555.501 644.038 554.922 643.62 554.776L632 550.685V544Z" fill="white"/>
<path d="M649.544 550.12H652.069V560.352H649.615L646.149 555.467C646.027 555.297 646.027 555.068 646.149 554.896L649.544 550.12Z" fill="white"/>
</g>
<g opacity="0.1">
<path d="M632 612H637.738L637.736 612.002L645.434 622.898C645.556 623.07 645.556 623.299 645.434 623.469L639.363 632H635.777V627.386L643.666 623.689C644.067 623.501 644.038 622.922 643.62 622.776L632 618.685V612Z" fill="white"/>
<path d="M649.544 618.12H652.069V628.352H649.615L646.149 623.467C646.027 623.297 646.027 623.068 646.149 622.896L649.544 618.12Z" fill="white"/>
</g>
<g opacity="0.1">
<path d="M632 680H637.738L637.736 680.002L645.434 690.898C645.556 691.07 645.556 691.299 645.434 691.469L639.363 700H635.777V695.386L643.666 691.689C644.067 691.501 644.038 690.922 643.62 690.776L632 686.685V680Z" fill="white"/>
<path d="M649.544 686.12H652.069V696.352H649.615L646.149 691.467C646.027 691.297 646.027 691.068 646.149 690.896L649.544 686.12Z" fill="white"/>
</g>
<g opacity="0.1">
<path d="M711 0H716.738L716.736 0.00185394L724.434 10.8981C724.556 11.07 724.556 11.2992 724.434 11.4692L718.363 20H714.777V15.3858L722.666 11.6885C723.067 11.5008 723.038 10.9218 722.62 10.7756L711 6.68505V0Z" fill="white"/>
<path d="M728.544 6.11989H731.069V16.3521H728.615L725.149 11.4672C725.027 11.2973 725.027 11.068 725.149 10.8961L728.544 6.11989Z" fill="white"/>
</g>
<g opacity="0.1">
<path d="M711 68H716.738L716.736 68.0019L724.434 78.8981C724.556 79.07 724.556 79.2992 724.434 79.4692L718.363 88H714.777V83.3858L722.666 79.6885C723.067 79.5008 723.038 78.9218 722.62 78.7756L711 74.685V68Z" fill="white"/>
<path d="M728.544 74.1199H731.069V84.3521H728.615L725.149 79.4672C725.027 79.2973 725.027 79.068 725.149 78.8961L728.544 74.1199Z" fill="white"/>
</g>
<path d="M711 136H716.738L716.736 136.002L724.434 146.898C724.556 147.07 724.556 147.299 724.434 147.469L718.363 156H714.777V151.386L722.666 147.689C723.067 147.501 723.038 146.922 722.62 146.776L711 142.685V136Z" fill="white"/>
<path d="M728.544 142.12H731.069V152.352H728.615L725.149 147.467C725.027 147.297 725.027 147.068 725.149 146.896L728.544 142.12Z" fill="white"/>
<g opacity="0.1">
<path d="M711 204H716.738L716.736 204.002L724.434 214.898C724.556 215.07 724.556 215.299 724.434 215.469L718.363 224H714.777V219.386L722.666 215.689C723.067 215.501 723.038 214.922 722.62 214.776L711 210.685V204Z" fill="white"/>
<path d="M728.544 210.12H731.069V220.352H728.615L725.149 215.467C725.027 215.297 725.027 215.068 725.149 214.896L728.544 210.12Z" fill="white"/>
</g>
<g opacity="0.1">
<path d="M711 272H716.738L716.736 272.002L724.434 282.898C724.556 283.07 724.556 283.299 724.434 283.469L718.363 292H714.777V287.386L722.666 283.689C723.067 283.501 723.038 282.922 722.62 282.776L711 278.685V272Z" fill="white"/>
<path d="M728.544 278.12H731.069V288.352H728.615L725.149 283.467C725.027 283.297 725.027 283.068 725.149 282.896L728.544 278.12Z" fill="white"/>
</g>
<g opacity="0.1">
<path d="M711 340H716.738L716.736 340.002L724.434 350.898C724.556 351.07 724.556 351.299 724.434 351.469L718.363 360H714.777V355.386L722.666 351.689C723.067 351.501 723.038 350.922 722.62 350.776L711 346.685V340Z" fill="white"/>
<path d="M728.544 346.12H731.069V356.352H728.615L725.149 351.467C725.027 351.297 725.027 351.068 725.149 350.896L728.544 346.12Z" fill="white"/>
</g>
<g opacity="0.1">
<path d="M711 408H716.738L716.736 408.002L724.434 418.898C724.556 419.07 724.556 419.299 724.434 419.469L718.363 428H714.777V423.386L722.666 419.689C723.067 419.501 723.038 418.922 722.62 418.776L711 414.685V408Z" fill="white"/>
<path d="M728.544 414.12H731.069V424.352H728.615L725.149 419.467C725.027 419.297 725.027 419.068 725.149 418.896L728.544 414.12Z" fill="white"/>
</g>
<g opacity="0.1">
<path d="M711 476H716.738L716.736 476.002L724.434 486.898C724.556 487.07 724.556 487.299 724.434 487.469L718.363 496H714.777V491.386L722.666 487.689C723.067 487.501 723.038 486.922 722.62 486.776L711 482.685V476Z" fill="white"/>
<path d="M728.544 482.12H731.069V492.352H728.615L725.149 487.467C725.027 487.297 725.027 487.068 725.149 486.896L728.544 482.12Z" fill="white"/>
</g>
<g opacity="0.1">
<path d="M711 544H716.738L716.736 544.002L724.434 554.898C724.556 555.07 724.556 555.299 724.434 555.469L718.363 564H714.777V559.386L722.666 555.689C723.067 555.501 723.038 554.922 722.62 554.776L711 550.685V544Z" fill="white"/>
<path d="M728.544 550.12H731.069V560.352H728.615L725.149 555.467C725.027 555.297 725.027 555.068 725.149 554.896L728.544 550.12Z" fill="white"/>
</g>
<g opacity="0.1">
<path d="M711 612H716.738L716.736 612.002L724.434 622.898C724.556 623.07 724.556 623.299 724.434 623.469L718.363 632H714.777V627.386L722.666 623.689C723.067 623.501 723.038 622.922 722.62 622.776L711 618.685V612Z" fill="white"/>
<path d="M728.544 618.12H731.069V628.352H728.615L725.149 623.467C725.027 623.297 725.027 623.068 725.149 622.896L728.544 618.12Z" fill="white"/>
</g>
<g opacity="0.1">
<path d="M711 680H716.738L716.736 680.002L724.434 690.898C724.556 691.07 724.556 691.299 724.434 691.469L718.363 700H714.777V695.386L722.666 691.689C723.067 691.501 723.038 690.922 722.62 690.776L711 686.685V680Z" fill="white"/>
<path d="M728.544 686.12H731.069V696.352H728.615L725.149 691.467C725.027 691.297 725.027 691.068 725.149 690.896L728.544 686.12Z" fill="white"/>
</g>
<g opacity="0.1">
<path d="M790 0H795.738L795.736 0.00185394L803.434 10.8981C803.556 11.07 803.556 11.2992 803.434 11.4692L797.363 20H793.777V15.3858L801.666 11.6885C802.067 11.5008 802.038 10.9218 801.62 10.7756L790 6.68505V0Z" fill="white"/>
<path d="M807.544 6.11989H810.069V16.3521H807.615L804.149 11.4672C804.027 11.2973 804.027 11.068 804.149 10.8961L807.544 6.11989Z" fill="white"/>
</g>
<g opacity="0.1">
<path d="M790 68H795.738L795.736 68.0019L803.434 78.8981C803.556 79.07 803.556 79.2992 803.434 79.4692L797.363 88H793.777V83.3858L801.666 79.6885C802.067 79.5008 802.038 78.9218 801.62 78.7756L790 74.685V68Z" fill="white"/>
<path d="M807.544 74.1199H810.069V84.3521H807.615L804.149 79.4672C804.027 79.2973 804.027 79.068 804.149 78.8961L807.544 74.1199Z" fill="white"/>
</g>
<g opacity="0.1">
<path d="M790 136H795.738L795.736 136.002L803.434 146.898C803.556 147.07 803.556 147.299 803.434 147.469L797.363 156H793.777V151.386L801.666 147.689C802.067 147.501 802.038 146.922 801.62 146.776L790 142.685V136Z" fill="white"/>
<path d="M807.544 142.12H810.069V152.352H807.615L804.149 147.467C804.027 147.297 804.027 147.068 804.149 146.896L807.544 142.12Z" fill="white"/>
</g>
<g opacity="0.1">
<path d="M790 204H795.738L795.736 204.002L803.434 214.898C803.556 215.07 803.556 215.299 803.434 215.469L797.363 224H793.777V219.386L801.666 215.689C802.067 215.501 802.038 214.922 801.62 214.776L790 210.685V204Z" fill="white"/>
<path d="M807.544 210.12H810.069V220.352H807.615L804.149 215.467C804.027 215.297 804.027 215.068 804.149 214.896L807.544 210.12Z" fill="white"/>
</g>
<g opacity="0.1">
<path d="M790 272H795.738L795.736 272.002L803.434 282.898C803.556 283.07 803.556 283.299 803.434 283.469L797.363 292H793.777V287.386L801.666 283.689C802.067 283.501 802.038 282.922 801.62 282.776L790 278.685V272Z" fill="white"/>
<path d="M807.544 278.12H810.069V288.352H807.615L804.149 283.467C804.027 283.297 804.027 283.068 804.149 282.896L807.544 278.12Z" fill="white"/>
</g>
<g opacity="0.1">
<path d="M790 340H795.738L795.736 340.002L803.434 350.898C803.556 351.07 803.556 351.299 803.434 351.469L797.363 360H793.777V355.386L801.666 351.689C802.067 351.501 802.038 350.922 801.62 350.776L790 346.685V340Z" fill="white"/>
<path d="M807.544 346.12H810.069V356.352H807.615L804.149 351.467C804.027 351.297 804.027 351.068 804.149 350.896L807.544 346.12Z" fill="white"/>
</g>
<g opacity="0.1">
<path d="M790 408H795.738L795.736 408.002L803.434 418.898C803.556 419.07 803.556 419.299 803.434 419.469L797.363 428H793.777V423.386L801.666 419.689C802.067 419.501 802.038 418.922 801.62 418.776L790 414.685V408Z" fill="white"/>
<path d="M807.544 414.12H810.069V424.352H807.615L804.149 419.467C804.027 419.297 804.027 419.068 804.149 418.896L807.544 414.12Z" fill="white"/>
</g>
<g opacity="0.1">
<path d="M790 476H795.738L795.736 476.002L803.434 486.898C803.556 487.07 803.556 487.299 803.434 487.469L797.363 496H793.777V491.386L801.666 487.689C802.067 487.501 802.038 486.922 801.62 486.776L790 482.685V476Z" fill="white"/>
<path d="M807.544 482.12H810.069V492.352H807.615L804.149 487.467C804.027 487.297 804.027 487.068 804.149 486.896L807.544 482.12Z" fill="white"/>
</g>
<g opacity="0.1">
<path d="M790 544H795.738L795.736 544.002L803.434 554.898C803.556 555.07 803.556 555.299 803.434 555.469L797.363 564H793.777V559.386L801.666 555.689C802.067 555.501 802.038 554.922 801.62 554.776L790 550.685V544Z" fill="white"/>
<path d="M807.544 550.12H810.069V560.352H807.615L804.149 555.467C804.027 555.297 804.027 555.068 804.149 554.896L807.544 550.12Z" fill="white"/>
</g>
<g opacity="0.1">
<path d="M790 612H795.738L795.736 612.002L803.434 622.898C803.556 623.07 803.556 623.299 803.434 623.469L797.363 632H793.777V627.386L801.666 623.689C802.067 623.501 802.038 622.922 801.62 622.776L790 618.685V612Z" fill="white"/>
<path d="M807.544 618.12H810.069V628.352H807.615L804.149 623.467C804.027 623.297 804.027 623.068 804.149 622.896L807.544 618.12Z" fill="white"/>
</g>
<g opacity="0.1">
<path d="M790 680H795.738L795.736 680.002L803.434 690.898C803.556 691.07 803.556 691.299 803.434 691.469L797.363 700H793.777V695.386L801.666 691.689C802.067 691.501 802.038 690.922 801.62 690.776L790 686.685V680Z" fill="white"/>
<path d="M807.544 686.12H810.069V696.352H807.615L804.149 691.467C804.027 691.297 804.027 691.068 804.149 690.896L807.544 686.12Z" fill="white"/>
</g>
<g opacity="0.1">
<path d="M869 0H874.738L874.736 0.00185394L882.434 10.8981C882.556 11.07 882.556 11.2992 882.434 11.4692L876.363 20H872.777V15.3858L880.666 11.6885C881.067 11.5008 881.038 10.9218 880.62 10.7756L869 6.68505V0Z" fill="white"/>
<path d="M886.544 6.11989H889.069V16.3521H886.615L883.149 11.4672C883.027 11.2973 883.027 11.068 883.149 10.8961L886.544 6.11989Z" fill="white"/>
</g>
<g opacity="0.1">
<path d="M869 68H874.738L874.736 68.0019L882.434 78.8981C882.556 79.07 882.556 79.2992 882.434 79.4692L876.363 88H872.777V83.3858L880.666 79.6885C881.067 79.5008 881.038 78.9218 880.62 78.7756L869 74.685V68Z" fill="white"/>
<path d="M886.544 74.1199H889.069V84.3521H886.615L883.149 79.4672C883.027 79.2973 883.027 79.068 883.149 78.8961L886.544 74.1199Z" fill="white"/>
</g>
<g opacity="0.1">
<path d="M869 136H874.738L874.736 136.002L882.434 146.898C882.556 147.07 882.556 147.299 882.434 147.469L876.363 156H872.777V151.386L880.666 147.689C881.067 147.501 881.038 146.922 880.62 146.776L869 142.685V136Z" fill="white"/>
<path d="M886.544 142.12H889.069V152.352H886.615L883.149 147.467C883.027 147.297 883.027 147.068 883.149 146.896L886.544 142.12Z" fill="white"/>
</g>
<g opacity="0.1">
<path d="M869 204H874.738L874.736 204.002L882.434 214.898C882.556 215.07 882.556 215.299 882.434 215.469L876.363 224H872.777V219.386L880.666 215.689C881.067 215.501 881.038 214.922 880.62 214.776L869 210.685V204Z" fill="white"/>
<path d="M886.544 210.12H889.069V220.352H886.615L883.149 215.467C883.027 215.297 883.027 215.068 883.149 214.896L886.544 210.12Z" fill="white"/>
</g>
<g opacity="0.1">
<path d="M869 272H874.738L874.736 272.002L882.434 282.898C882.556 283.07 882.556 283.299 882.434 283.469L876.363 292H872.777V287.386L880.666 283.689C881.067 283.501 881.038 282.922 880.62 282.776L869 278.685V272Z" fill="white"/>
<path d="M886.544 278.12H889.069V288.352H886.615L883.149 283.467C883.027 283.297 883.027 283.068 883.149 282.896L886.544 278.12Z" fill="white"/>
</g>
<g opacity="0.1">
<path d="M869 340H874.738L874.736 340.002L882.434 350.898C882.556 351.07 882.556 351.299 882.434 351.469L876.363 360H872.777V355.386L880.666 351.689C881.067 351.501 881.038 350.922 880.62 350.776L869 346.685V340Z" fill="white"/>
<path d="M886.544 346.12H889.069V356.352H886.615L883.149 351.467C883.027 351.297 883.027 351.068 883.149 350.896L886.544 346.12Z" fill="white"/>
</g>
<g opacity="0.1">
<path d="M869 408H874.738L874.736 408.002L882.434 418.898C882.556 419.07 882.556 419.299 882.434 419.469L876.363 428H872.777V423.386L880.666 419.689C881.067 419.501 881.038 418.922 880.62 418.776L869 414.685V408Z" fill="white"/>
<path d="M886.544 414.12H889.069V424.352H886.615L883.149 419.467C883.027 419.297 883.027 419.068 883.149 418.896L886.544 414.12Z" fill="white"/>
</g>
<g opacity="0.1">
<path d="M869 476H874.738L874.736 476.002L882.434 486.898C882.556 487.07 882.556 487.299 882.434 487.469L876.363 496H872.777V491.386L880.666 487.689C881.067 487.501 881.038 486.922 880.62 486.776L869 482.685V476Z" fill="white"/>
<path d="M886.544 482.12H889.069V492.352H886.615L883.149 487.467C883.027 487.297 883.027 487.068 883.149 486.896L886.544 482.12Z" fill="white"/>
</g>
<g opacity="0.1">
<path d="M869 544H874.738L874.736 544.002L882.434 554.898C882.556 555.07 882.556 555.299 882.434 555.469L876.363 564H872.777V559.386L880.666 555.689C881.067 555.501 881.038 554.922 880.62 554.776L869 550.685V544Z" fill="white"/>
<path d="M886.544 550.12H889.069V560.352H886.615L883.149 555.467C883.027 555.297 883.027 555.068 883.149 554.896L886.544 550.12Z" fill="white"/>
</g>
<g opacity="0.1">
<path d="M869 612H874.738L874.736 612.002L882.434 622.898C882.556 623.07 882.556 623.299 882.434 623.469L876.363 632H872.777V627.386L880.666 623.689C881.067 623.501 881.038 622.922 880.62 622.776L869 618.685V612Z" fill="white"/>
<path d="M886.544 618.12H889.069V628.352H886.615L883.149 623.467C883.027 623.297 883.027 623.068 883.149 622.896L886.544 618.12Z" fill="white"/>
</g>
<g opacity="0.1">
<path d="M869 680H874.738L874.736 680.002L882.434 690.898C882.556 691.07 882.556 691.299 882.434 691.469L876.363 700H872.777V695.386L880.666 691.689C881.067 691.501 881.038 690.922 880.62 690.776L869 686.685V680Z" fill="white"/>
<path d="M886.544 686.12H889.069V696.352H886.615L883.149 691.467C883.027 691.297 883.027 691.068 883.149 690.896L886.544 686.12Z" fill="white"/>
</g>
<g opacity="0.1">
<path d="M948 0H953.738L953.736 0.00185394L961.434 10.8981C961.556 11.07 961.556 11.2992 961.434 11.4692L955.363 20H951.777V15.3858L959.666 11.6885C960.067 11.5008 960.038 10.9218 959.62 10.7756L948 6.68505V0Z" fill="white"/>
<path d="M965.544 6.11989H968.069V16.3521H965.615L962.149 11.4672C962.027 11.2973 962.027 11.068 962.149 10.8961L965.544 6.11989Z" fill="white"/>
</g>
<g opacity="0.1">
<path d="M948 68H953.738L953.736 68.0019L961.434 78.8981C961.556 79.07 961.556 79.2992 961.434 79.4692L955.363 88H951.777V83.3858L959.666 79.6885C960.067 79.5008 960.038 78.9218 959.62 78.7756L948 74.685V68Z" fill="white"/>
<path d="M965.544 74.1199H968.069V84.3521H965.615L962.149 79.4672C962.027 79.2973 962.027 79.068 962.149 78.8961L965.544 74.1199Z" fill="white"/>
</g>
<g opacity="0.1">
<path d="M948 136H953.738L953.736 136.002L961.434 146.898C961.556 147.07 961.556 147.299 961.434 147.469L955.363 156H951.777V151.386L959.666 147.689C960.067 147.501 960.038 146.922 959.62 146.776L948 142.685V136Z" fill="white"/>
<path d="M965.544 142.12H968.069V152.352H965.615L962.149 147.467C962.027 147.297 962.027 147.068 962.149 146.896L965.544 142.12Z" fill="white"/>
</g>
<g opacity="0.1">
<path d="M948 204H953.738L953.736 204.002L961.434 214.898C961.556 215.07 961.556 215.299 961.434 215.469L955.363 224H951.777V219.386L959.666 215.689C960.067 215.501 960.038 214.922 959.62 214.776L948 210.685V204Z" fill="white"/>
<path d="M965.544 210.12H968.069V220.352H965.615L962.149 215.467C962.027 215.297 962.027 215.068 962.149 214.896L965.544 210.12Z" fill="white"/>
</g>
<g opacity="0.1">
<path d="M948 272H953.738L953.736 272.002L961.434 282.898C961.556 283.07 961.556 283.299 961.434 283.469L955.363 292H951.777V287.386L959.666 283.689C960.067 283.501 960.038 282.922 959.62 282.776L948 278.685V272Z" fill="white"/>
<path d="M965.544 278.12H968.069V288.352H965.615L962.149 283.467C962.027 283.297 962.027 283.068 962.149 282.896L965.544 278.12Z" fill="white"/>
</g>
<g opacity="0.1">
<path d="M948 340H953.738L953.736 340.002L961.434 350.898C961.556 351.07 961.556 351.299 961.434 351.469L955.363 360H951.777V355.386L959.666 351.689C960.067 351.501 960.038 350.922 959.62 350.776L948 346.685V340Z" fill="white"/>
<path d="M965.544 346.12H968.069V356.352H965.615L962.149 351.467C962.027 351.297 962.027 351.068 962.149 350.896L965.544 346.12Z" fill="white"/>
</g>
<g opacity="0.1">
<path d="M948 408H953.738L953.736 408.002L961.434 418.898C961.556 419.07 961.556 419.299 961.434 419.469L955.363 428H951.777V423.386L959.666 419.689C960.067 419.501 960.038 418.922 959.62 418.776L948 414.685V408Z" fill="white"/>
<path d="M965.544 414.12H968.069V424.352H965.615L962.149 419.467C962.027 419.297 962.027 419.068 962.149 418.896L965.544 414.12Z" fill="white"/>
</g>
<g opacity="0.1">
<path d="M948 476H953.738L953.736 476.002L961.434 486.898C961.556 487.07 961.556 487.299 961.434 487.469L955.363 496H951.777V491.386L959.666 487.689C960.067 487.501 960.038 486.922 959.62 486.776L948 482.685V476Z" fill="white"/>
<path d="M965.544 482.12H968.069V492.352H965.615L962.149 487.467C962.027 487.297 962.027 487.068 962.149 486.896L965.544 482.12Z" fill="white"/>
</g>
<path d="M948 544H953.738L953.736 544.002L961.434 554.898C961.556 555.07 961.556 555.299 961.434 555.469L955.363 564H951.777V559.386L959.666 555.689C960.067 555.501 960.038 554.922 959.62 554.776L948 550.685V544Z" fill="white"/>
<path d="M965.544 550.12H968.069V560.352H965.615L962.149 555.467C962.027 555.297 962.027 555.068 962.149 554.896L965.544 550.12Z" fill="white"/>
<g opacity="0.1">
<path d="M948 612H953.738L953.736 612.002L961.434 622.898C961.556 623.07 961.556 623.299 961.434 623.469L955.363 632H951.777V627.386L959.666 623.689C960.067 623.501 960.038 622.922 959.62 622.776L948 618.685V612Z" fill="white"/>
<path d="M965.544 618.12H968.069V628.352H965.615L962.149 623.467C962.027 623.297 962.027 623.068 962.149 622.896L965.544 618.12Z" fill="white"/>
</g>
<g opacity="0.1">
<path d="M948 680H953.738L953.736 680.002L961.434 690.898C961.556 691.07 961.556 691.299 961.434 691.469L955.363 700H951.777V695.386L959.666 691.689C960.067 691.501 960.038 690.922 959.62 690.776L948 686.685V680Z" fill="white"/>
<path d="M965.544 686.12H968.069V696.352H965.615L962.149 691.467C962.027 691.297 962.027 691.068 962.149 690.896L965.544 686.12Z" fill="white"/>
</g>
<path d="M1027 0H1032.74L1032.74 0.00185394L1040.43 10.8981C1040.56 11.07 1040.56 11.2992 1040.43 11.4692L1034.36 20H1030.78V15.3858L1038.67 11.6885C1039.07 11.5008 1039.04 10.9218 1038.62 10.7756L1027 6.68505V0Z" fill="white"/>
<path d="M1044.54 6.11989H1047.07V16.3521H1044.62L1041.15 11.4672C1041.03 11.2973 1041.03 11.068 1041.15 10.8961L1044.54 6.11989Z" fill="white"/>
<g opacity="0.1">
<path d="M1027 68H1032.74L1032.74 68.0019L1040.43 78.8981C1040.56 79.07 1040.56 79.2992 1040.43 79.4692L1034.36 88H1030.78V83.3858L1038.67 79.6885C1039.07 79.5008 1039.04 78.9218 1038.62 78.7756L1027 74.685V68Z" fill="white"/>
<path d="M1044.54 74.1199H1047.07V84.3521H1044.62L1041.15 79.4672C1041.03 79.2973 1041.03 79.068 1041.15 78.8961L1044.54 74.1199Z" fill="white"/>
</g>
<g opacity="0.1">
<path d="M1027 136H1032.74L1032.74 136.002L1040.43 146.898C1040.56 147.07 1040.56 147.299 1040.43 147.469L1034.36 156H1030.78V151.386L1038.67 147.689C1039.07 147.501 1039.04 146.922 1038.62 146.776L1027 142.685V136Z" fill="white"/>
<path d="M1044.54 142.12H1047.07V152.352H1044.62L1041.15 147.467C1041.03 147.297 1041.03 147.068 1041.15 146.896L1044.54 142.12Z" fill="white"/>
</g>
<g opacity="0.1">
<path d="M1027 204H1032.74L1032.74 204.002L1040.43 214.898C1040.56 215.07 1040.56 215.299 1040.43 215.469L1034.36 224H1030.78V219.386L1038.67 215.689C1039.07 215.501 1039.04 214.922 1038.62 214.776L1027 210.685V204Z" fill="white"/>
<path d="M1044.54 210.12H1047.07V220.352H1044.62L1041.15 215.467C1041.03 215.297 1041.03 215.068 1041.15 214.896L1044.54 210.12Z" fill="white"/>
</g>
<g opacity="0.1">
<path d="M1027 272H1032.74L1032.74 272.002L1040.43 282.898C1040.56 283.07 1040.56 283.299 1040.43 283.469L1034.36 292H1030.78V287.386L1038.67 283.689C1039.07 283.501 1039.04 282.922 1038.62 282.776L1027 278.685V272Z" fill="white"/>
<path d="M1044.54 278.12H1047.07V288.352H1044.62L1041.15 283.467C1041.03 283.297 1041.03 283.068 1041.15 282.896L1044.54 278.12Z" fill="white"/>
</g>
<g opacity="0.1">
<path d="M1027 340H1032.74L1032.74 340.002L1040.43 350.898C1040.56 351.07 1040.56 351.299 1040.43 351.469L1034.36 360H1030.78V355.386L1038.67 351.689C1039.07 351.501 1039.04 350.922 1038.62 350.776L1027 346.685V340Z" fill="white"/>
<path d="M1044.54 346.12H1047.07V356.352H1044.62L1041.15 351.467C1041.03 351.297 1041.03 351.068 1041.15 350.896L1044.54 346.12Z" fill="white"/>
</g>
<g opacity="0.1">
<path d="M1027 408H1032.74L1032.74 408.002L1040.43 418.898C1040.56 419.07 1040.56 419.299 1040.43 419.469L1034.36 428H1030.78V423.386L1038.67 419.689C1039.07 419.501 1039.04 418.922 1038.62 418.776L1027 414.685V408Z" fill="white"/>
<path d="M1044.54 414.12H1047.07V424.352H1044.62L1041.15 419.467C1041.03 419.297 1041.03 419.068 1041.15 418.896L1044.54 414.12Z" fill="white"/>
</g>
<g opacity="0.1">
<path d="M1027 476H1032.74L1032.74 476.002L1040.43 486.898C1040.56 487.07 1040.56 487.299 1040.43 487.469L1034.36 496H1030.78V491.386L1038.67 487.689C1039.07 487.501 1039.04 486.922 1038.62 486.776L1027 482.685V476Z" fill="white"/>
<path d="M1044.54 482.12H1047.07V492.352H1044.62L1041.15 487.467C1041.03 487.297 1041.03 487.068 1041.15 486.896L1044.54 482.12Z" fill="white"/>
</g>
<g opacity="0.1">
<path d="M1027 544H1032.74L1032.74 544.002L1040.43 554.898C1040.56 555.07 1040.56 555.299 1040.43 555.469L1034.36 564H1030.78V559.386L1038.67 555.689C1039.07 555.501 1039.04 554.922 1038.62 554.776L1027 550.685V544Z" fill="white"/>
<path d="M1044.54 550.12H1047.07V560.352H1044.62L1041.15 555.467C1041.03 555.297 1041.03 555.068 1041.15 554.896L1044.54 550.12Z" fill="white"/>
</g>
<g opacity="0.1">
<path d="M1027 612H1032.74L1032.74 612.002L1040.43 622.898C1040.56 623.07 1040.56 623.299 1040.43 623.469L1034.36 632H1030.78V627.386L1038.67 623.689C1039.07 623.501 1039.04 622.922 1038.62 622.776L1027 618.685V612Z" fill="white"/>
<path d="M1044.54 618.12H1047.07V628.352H1044.62L1041.15 623.467C1041.03 623.297 1041.03 623.068 1041.15 622.896L1044.54 618.12Z" fill="white"/>
</g>
<g opacity="0.1">
<path d="M1027 680H1032.74L1032.74 680.002L1040.43 690.898C1040.56 691.07 1040.56 691.299 1040.43 691.469L1034.36 700H1030.78V695.386L1038.67 691.689C1039.07 691.501 1039.04 690.922 1038.62 690.776L1027 686.685V680Z" fill="white"/>
<path d="M1044.54 686.12H1047.07V696.352H1044.62L1041.15 691.467C1041.03 691.297 1041.03 691.068 1041.15 690.896L1044.54 686.12Z" fill="white"/>
</g>
<g opacity="0.1">
<path d="M1106 0H1111.74L1111.74 0.00185394L1119.43 10.8981C1119.56 11.07 1119.56 11.2992 1119.43 11.4692L1113.36 20H1109.78V15.3858L1117.67 11.6885C1118.07 11.5008 1118.04 10.9218 1117.62 10.7756L1106 6.68505V0Z" fill="white"/>
<path d="M1123.54 6.11989H1126.07V16.3521H1123.62L1120.15 11.4672C1120.03 11.2973 1120.03 11.068 1120.15 10.8961L1123.54 6.11989Z" fill="white"/>
</g>
<g opacity="0.1">
<path d="M1106 68H1111.74L1111.74 68.0019L1119.43 78.8981C1119.56 79.07 1119.56 79.2992 1119.43 79.4692L1113.36 88H1109.78V83.3858L1117.67 79.6885C1118.07 79.5008 1118.04 78.9218 1117.62 78.7756L1106 74.685V68Z" fill="white"/>
<path d="M1123.54 74.1199H1126.07V84.3521H1123.62L1120.15 79.4672C1120.03 79.2973 1120.03 79.068 1120.15 78.8961L1123.54 74.1199Z" fill="white"/>
</g>
<g opacity="0.1">
<path d="M1106 136H1111.74L1111.74 136.002L1119.43 146.898C1119.56 147.07 1119.56 147.299 1119.43 147.469L1113.36 156H1109.78V151.386L1117.67 147.689C1118.07 147.501 1118.04 146.922 1117.62 146.776L1106 142.685V136Z" fill="white"/>
<path d="M1123.54 142.12H1126.07V152.352H1123.62L1120.15 147.467C1120.03 147.297 1120.03 147.068 1120.15 146.896L1123.54 142.12Z" fill="white"/>
</g>
<g opacity="0.1">
<path d="M1106 204H1111.74L1111.74 204.002L1119.43 214.898C1119.56 215.07 1119.56 215.299 1119.43 215.469L1113.36 224H1109.78V219.386L1117.67 215.689C1118.07 215.501 1118.04 214.922 1117.62 214.776L1106 210.685V204Z" fill="white"/>
<path d="M1123.54 210.12H1126.07V220.352H1123.62L1120.15 215.467C1120.03 215.297 1120.03 215.068 1120.15 214.896L1123.54 210.12Z" fill="white"/>
</g>
<g opacity="0.1">
<path d="M1106 272H1111.74L1111.74 272.002L1119.43 282.898C1119.56 283.07 1119.56 283.299 1119.43 283.469L1113.36 292H1109.78V287.386L1117.67 283.689C1118.07 283.501 1118.04 282.922 1117.62 282.776L1106 278.685V272Z" fill="white"/>
<path d="M1123.54 278.12H1126.07V288.352H1123.62L1120.15 283.467C1120.03 283.297 1120.03 283.068 1120.15 282.896L1123.54 278.12Z" fill="white"/>
</g>
<g opacity="0.1">
<path d="M1106 340H1111.74L1111.74 340.002L1119.43 350.898C1119.56 351.07 1119.56 351.299 1119.43 351.469L1113.36 360H1109.78V355.386L1117.67 351.689C1118.07 351.501 1118.04 350.922 1117.62 350.776L1106 346.685V340Z" fill="white"/>
<path d="M1123.54 346.12H1126.07V356.352H1123.62L1120.15 351.467C1120.03 351.297 1120.03 351.068 1120.15 350.896L1123.54 346.12Z" fill="white"/>
</g>
<g opacity="0.1">
<path d="M1106 408H1111.74L1111.74 408.002L1119.43 418.898C1119.56 419.07 1119.56 419.299 1119.43 419.469L1113.36 428H1109.78V423.386L1117.67 419.689C1118.07 419.501 1118.04 418.922 1117.62 418.776L1106 414.685V408Z" fill="white"/>
<path d="M1123.54 414.12H1126.07V424.352H1123.62L1120.15 419.467C1120.03 419.297 1120.03 419.068 1120.15 418.896L1123.54 414.12Z" fill="white"/>
</g>
<path d="M1106 476H1111.74L1111.74 476.002L1119.43 486.898C1119.56 487.07 1119.56 487.299 1119.43 487.469L1113.36 496H1109.78V491.386L1117.67 487.689C1118.07 487.501 1118.04 486.922 1117.62 486.776L1106 482.685V476Z" fill="white"/>
<path d="M1123.54 482.12H1126.07V492.352H1123.62L1120.15 487.467C1120.03 487.297 1120.03 487.068 1120.15 486.896L1123.54 482.12Z" fill="white"/>
<g opacity="0.1">
<path d="M1106 544H1111.74L1111.74 544.002L1119.43 554.898C1119.56 555.07 1119.56 555.299 1119.43 555.469L1113.36 564H1109.78V559.386L1117.67 555.689C1118.07 555.501 1118.04 554.922 1117.62 554.776L1106 550.685V544Z" fill="white"/>
<path d="M1123.54 550.12H1126.07V560.352H1123.62L1120.15 555.467C1120.03 555.297 1120.03 555.068 1120.15 554.896L1123.54 550.12Z" fill="white"/>
</g>
<g opacity="0.1">
<path d="M1106 612H1111.74L1111.74 612.002L1119.43 622.898C1119.56 623.07 1119.56 623.299 1119.43 623.469L1113.36 632H1109.78V627.386L1117.67 623.689C1118.07 623.501 1118.04 622.922 1117.62 622.776L1106 618.685V612Z" fill="white"/>
<path d="M1123.54 618.12H1126.07V628.352H1123.62L1120.15 623.467C1120.03 623.297 1120.03 623.068 1120.15 622.896L1123.54 618.12Z" fill="white"/>
</g>
<g opacity="0.1">
<path d="M1106 680H1111.74L1111.74 680.002L1119.43 690.898C1119.56 691.07 1119.56 691.299 1119.43 691.469L1113.36 700H1109.78V695.386L1117.67 691.689C1118.07 691.501 1118.04 690.922 1117.62 690.776L1106 686.685V680Z" fill="white"/>
<path d="M1123.54 686.12H1126.07V696.352H1123.62L1120.15 691.467C1120.03 691.297 1120.03 691.068 1120.15 690.896L1123.54 686.12Z" fill="white"/>
</g>
<g opacity="0.1">
<path d="M1185 0H1190.74L1190.74 0.00185394L1198.43 10.8981C1198.56 11.07 1198.56 11.2992 1198.43 11.4692L1192.36 20H1188.78V15.3858L1196.67 11.6885C1197.07 11.5008 1197.04 10.9218 1196.62 10.7756L1185 6.68505V0Z" fill="white"/>
<path d="M1202.54 6.11989H1205.07V16.3521H1202.62L1199.15 11.4672C1199.03 11.2973 1199.03 11.068 1199.15 10.8961L1202.54 6.11989Z" fill="white"/>
</g>
<g opacity="0.1">
<path d="M1185 68H1190.74L1190.74 68.0019L1198.43 78.8981C1198.56 79.07 1198.56 79.2992 1198.43 79.4692L1192.36 88H1188.78V83.3858L1196.67 79.6885C1197.07 79.5008 1197.04 78.9218 1196.62 78.7756L1185 74.685V68Z" fill="white"/>
<path d="M1202.54 74.1199H1205.07V84.3521H1202.62L1199.15 79.4672C1199.03 79.2973 1199.03 79.068 1199.15 78.8961L1202.54 74.1199Z" fill="white"/>
</g>
<g opacity="0.1">
<path d="M1185 136H1190.74L1190.74 136.002L1198.43 146.898C1198.56 147.07 1198.56 147.299 1198.43 147.469L1192.36 156H1188.78V151.386L1196.67 147.689C1197.07 147.501 1197.04 146.922 1196.62 146.776L1185 142.685V136Z" fill="white"/>
<path d="M1202.54 142.12H1205.07V152.352H1202.62L1199.15 147.467C1199.03 147.297 1199.03 147.068 1199.15 146.896L1202.54 142.12Z" fill="white"/>
</g>
<g opacity="0.1">
<path d="M1185 204H1190.74L1190.74 204.002L1198.43 214.898C1198.56 215.07 1198.56 215.299 1198.43 215.469L1192.36 224H1188.78V219.386L1196.67 215.689C1197.07 215.501 1197.04 214.922 1196.62 214.776L1185 210.685V204Z" fill="white"/>
<path d="M1202.54 210.12H1205.07V220.352H1202.62L1199.15 215.467C1199.03 215.297 1199.03 215.068 1199.15 214.896L1202.54 210.12Z" fill="white"/>
</g>
<g opacity="0.1">
<path d="M1185 272H1190.74L1190.74 272.002L1198.43 282.898C1198.56 283.07 1198.56 283.299 1198.43 283.469L1192.36 292H1188.78V287.386L1196.67 283.689C1197.07 283.501 1197.04 282.922 1196.62 282.776L1185 278.685V272Z" fill="white"/>
<path d="M1202.54 278.12H1205.07V288.352H1202.62L1199.15 283.467C1199.03 283.297 1199.03 283.068 1199.15 282.896L1202.54 278.12Z" fill="white"/>
</g>
<g opacity="0.1">
<path d="M1185 340H1190.74L1190.74 340.002L1198.43 350.898C1198.56 351.07 1198.56 351.299 1198.43 351.469L1192.36 360H1188.78V355.386L1196.67 351.689C1197.07 351.501 1197.04 350.922 1196.62 350.776L1185 346.685V340Z" fill="white"/>
<path d="M1202.54 346.12H1205.07V356.352H1202.62L1199.15 351.467C1199.03 351.297 1199.03 351.068 1199.15 350.896L1202.54 346.12Z" fill="white"/>
</g>
<g opacity="0.1">
<path d="M1185 408H1190.74L1190.74 408.002L1198.43 418.898C1198.56 419.07 1198.56 419.299 1198.43 419.469L1192.36 428H1188.78V423.386L1196.67 419.689C1197.07 419.501 1197.04 418.922 1196.62 418.776L1185 414.685V408Z" fill="white"/>
<path d="M1202.54 414.12H1205.07V424.352H1202.62L1199.15 419.467C1199.03 419.297 1199.03 419.068 1199.15 418.896L1202.54 414.12Z" fill="white"/>
</g>
<g opacity="0.1">
<path d="M1185 476H1190.74L1190.74 476.002L1198.43 486.898C1198.56 487.07 1198.56 487.299 1198.43 487.469L1192.36 496H1188.78V491.386L1196.67 487.689C1197.07 487.501 1197.04 486.922 1196.62 486.776L1185 482.685V476Z" fill="white"/>
<path d="M1202.54 482.12H1205.07V492.352H1202.62L1199.15 487.467C1199.03 487.297 1199.03 487.068 1199.15 486.896L1202.54 482.12Z" fill="white"/>
</g>
<g opacity="0.1">
<path d="M1185 544H1190.74L1190.74 544.002L1198.43 554.898C1198.56 555.07 1198.56 555.299 1198.43 555.469L1192.36 564H1188.78V559.386L1196.67 555.689C1197.07 555.501 1197.04 554.922 1196.62 554.776L1185 550.685V544Z" fill="white"/>
<path d="M1202.54 550.12H1205.07V560.352H1202.62L1199.15 555.467C1199.03 555.297 1199.03 555.068 1199.15 554.896L1202.54 550.12Z" fill="white"/>
</g>
<g opacity="0.1">
<path d="M1185 612H1190.74L1190.74 612.002L1198.43 622.898C1198.56 623.07 1198.56 623.299 1198.43 623.469L1192.36 632H1188.78V627.386L1196.67 623.689C1197.07 623.501 1197.04 622.922 1196.62 622.776L1185 618.685V612Z" fill="white"/>
<path d="M1202.54 618.12H1205.07V628.352H1202.62L1199.15 623.467C1199.03 623.297 1199.03 623.068 1199.15 622.896L1202.54 618.12Z" fill="white"/>
</g>
<g opacity="0.1">
<path d="M1185 680H1190.74L1190.74 680.002L1198.43 690.898C1198.56 691.07 1198.56 691.299 1198.43 691.469L1192.36 700H1188.78V695.386L1196.67 691.689C1197.07 691.501 1197.04 690.922 1196.62 690.776L1185 686.685V680Z" fill="white"/>
<path d="M1202.54 686.12H1205.07V696.352H1202.62L1199.15 691.467C1199.03 691.297 1199.03 691.068 1199.15 690.896L1202.54 686.12Z" fill="white"/>
</g>
<g opacity="0.1">
<path d="M1264 0H1269.74L1269.74 0.00185394L1277.43 10.8981C1277.56 11.07 1277.56 11.2992 1277.43 11.4692L1271.36 20H1267.78V15.3858L1275.67 11.6885C1276.07 11.5008 1276.04 10.9218 1275.62 10.7756L1264 6.68505V0Z" fill="white"/>
<path d="M1281.54 6.11989H1284.07V16.3521H1281.62L1278.15 11.4672C1278.03 11.2973 1278.03 11.068 1278.15 10.8961L1281.54 6.11989Z" fill="white"/>
</g>
<g opacity="0.1">
<path d="M1264 68H1269.74L1269.74 68.0019L1277.43 78.8981C1277.56 79.07 1277.56 79.2992 1277.43 79.4692L1271.36 88H1267.78V83.3858L1275.67 79.6885C1276.07 79.5008 1276.04 78.9218 1275.62 78.7756L1264 74.685V68Z" fill="white"/>
<path d="M1281.54 74.1199H1284.07V84.3521H1281.62L1278.15 79.4672C1278.03 79.2973 1278.03 79.068 1278.15 78.8961L1281.54 74.1199Z" fill="white"/>
</g>
<g opacity="0.1">
<path d="M1264 136H1269.74L1269.74 136.002L1277.43 146.898C1277.56 147.07 1277.56 147.299 1277.43 147.469L1271.36 156H1267.78V151.386L1275.67 147.689C1276.07 147.501 1276.04 146.922 1275.62 146.776L1264 142.685V136Z" fill="white"/>
<path d="M1281.54 142.12H1284.07V152.352H1281.62L1278.15 147.467C1278.03 147.297 1278.03 147.068 1278.15 146.896L1281.54 142.12Z" fill="white"/>
</g>
<path d="M1264 204H1269.74L1269.74 204.002L1277.43 214.898C1277.56 215.07 1277.56 215.299 1277.43 215.469L1271.36 224H1267.78V219.386L1275.67 215.689C1276.07 215.501 1276.04 214.922 1275.62 214.776L1264 210.685V204Z" fill="white"/>
<path d="M1281.54 210.12H1284.07V220.352H1281.62L1278.15 215.467C1278.03 215.297 1278.03 215.068 1278.15 214.896L1281.54 210.12Z" fill="white"/>
<g opacity="0.1">
<path d="M1264 272H1269.74L1269.74 272.002L1277.43 282.898C1277.56 283.07 1277.56 283.299 1277.43 283.469L1271.36 292H1267.78V287.386L1275.67 283.689C1276.07 283.501 1276.04 282.922 1275.62 282.776L1264 278.685V272Z" fill="white"/>
<path d="M1281.54 278.12H1284.07V288.352H1281.62L1278.15 283.467C1278.03 283.297 1278.03 283.068 1278.15 282.896L1281.54 278.12Z" fill="white"/>
</g>
<g opacity="0.1">
<path d="M1264 340H1269.74L1269.74 340.002L1277.43 350.898C1277.56 351.07 1277.56 351.299 1277.43 351.469L1271.36 360H1267.78V355.386L1275.67 351.689C1276.07 351.501 1276.04 350.922 1275.62 350.776L1264 346.685V340Z" fill="white"/>
<path d="M1281.54 346.12H1284.07V356.352H1281.62L1278.15 351.467C1278.03 351.297 1278.03 351.068 1278.15 350.896L1281.54 346.12Z" fill="white"/>
</g>
<g opacity="0.1">
<path d="M1264 408H1269.74L1269.74 408.002L1277.43 418.898C1277.56 419.07 1277.56 419.299 1277.43 419.469L1271.36 428H1267.78V423.386L1275.67 419.689C1276.07 419.501 1276.04 418.922 1275.62 418.776L1264 414.685V408Z" fill="white"/>
<path d="M1281.54 414.12H1284.07V424.352H1281.62L1278.15 419.467C1278.03 419.297 1278.03 419.068 1278.15 418.896L1281.54 414.12Z" fill="white"/>
</g>
<g opacity="0.1">
<path d="M1264 476H1269.74L1269.74 476.002L1277.43 486.898C1277.56 487.07 1277.56 487.299 1277.43 487.469L1271.36 496H1267.78V491.386L1275.67 487.689C1276.07 487.501 1276.04 486.922 1275.62 486.776L1264 482.685V476Z" fill="white"/>
<path d="M1281.54 482.12H1284.07V492.352H1281.62L1278.15 487.467C1278.03 487.297 1278.03 487.068 1278.15 486.896L1281.54 482.12Z" fill="white"/>
</g>
<g opacity="0.1">
<path d="M1264 544H1269.74L1269.74 544.002L1277.43 554.898C1277.56 555.07 1277.56 555.299 1277.43 555.469L1271.36 564H1267.78V559.386L1275.67 555.689C1276.07 555.501 1276.04 554.922 1275.62 554.776L1264 550.685V544Z" fill="white"/>
<path d="M1281.54 550.12H1284.07V560.352H1281.62L1278.15 555.467C1278.03 555.297 1278.03 555.068 1278.15 554.896L1281.54 550.12Z" fill="white"/>
</g>
<g opacity="0.1">
<path d="M1264 612H1269.74L1269.74 612.002L1277.43 622.898C1277.56 623.07 1277.56 623.299 1277.43 623.469L1271.36 632H1267.78V627.386L1275.67 623.689C1276.07 623.501 1276.04 622.922 1275.62 622.776L1264 618.685V612Z" fill="white"/>
<path d="M1281.54 618.12H1284.07V628.352H1281.62L1278.15 623.467C1278.03 623.297 1278.03 623.068 1278.15 622.896L1281.54 618.12Z" fill="white"/>
</g>
<path d="M1264 680H1269.74L1269.74 680.002L1277.43 690.898C1277.56 691.07 1277.56 691.299 1277.43 691.469L1271.36 700H1267.78V695.386L1275.67 691.689C1276.07 691.501 1276.04 690.922 1275.62 690.776L1264 686.685V680Z" fill="white"/>
<path d="M1281.54 686.12H1284.07V696.352H1281.62L1278.15 691.467C1278.03 691.297 1278.03 691.068 1278.15 690.896L1281.54 686.12Z" fill="white"/>
<g opacity="0.1">
<path d="M1343 0H1348.74L1348.74 0.00185394L1356.43 10.8981C1356.56 11.07 1356.56 11.2992 1356.43 11.4692L1350.36 20H1346.78V15.3858L1354.67 11.6885C1355.07 11.5008 1355.04 10.9218 1354.62 10.7756L1343 6.68505V0Z" fill="white"/>
<path d="M1360.54 6.11989H1363.07V16.3521H1360.62L1357.15 11.4672C1357.03 11.2973 1357.03 11.068 1357.15 10.8961L1360.54 6.11989Z" fill="white"/>
</g>
<g opacity="0.1">
<path d="M1343 68H1348.74L1348.74 68.0019L1356.43 78.8981C1356.56 79.07 1356.56 79.2992 1356.43 79.4692L1350.36 88H1346.78V83.3858L1354.67 79.6885C1355.07 79.5008 1355.04 78.9218 1354.62 78.7756L1343 74.685V68Z" fill="white"/>
<path d="M1360.54 74.1199H1363.07V84.3521H1360.62L1357.15 79.4672C1357.03 79.2973 1357.03 79.068 1357.15 78.8961L1360.54 74.1199Z" fill="white"/>
</g>
<g opacity="0.1">
<path d="M1343 136H1348.74L1348.74 136.002L1356.43 146.898C1356.56 147.07 1356.56 147.299 1356.43 147.469L1350.36 156H1346.78V151.386L1354.67 147.689C1355.07 147.501 1355.04 146.922 1354.62 146.776L1343 142.685V136Z" fill="white"/>
<path d="M1360.54 142.12H1363.07V152.352H1360.62L1357.15 147.467C1357.03 147.297 1357.03 147.068 1357.15 146.896L1360.54 142.12Z" fill="white"/>
</g>
<g opacity="0.1">
<path d="M1343 204H1348.74L1348.74 204.002L1356.43 214.898C1356.56 215.07 1356.56 215.299 1356.43 215.469L1350.36 224H1346.78V219.386L1354.67 215.689C1355.07 215.501 1355.04 214.922 1354.62 214.776L1343 210.685V204Z" fill="white"/>
<path d="M1360.54 210.12H1363.07V220.352H1360.62L1357.15 215.467C1357.03 215.297 1357.03 215.068 1357.15 214.896L1360.54 210.12Z" fill="white"/>
</g>
<g opacity="0.1">
<path d="M1343 272H1348.74L1348.74 272.002L1356.43 282.898C1356.56 283.07 1356.56 283.299 1356.43 283.469L1350.36 292H1346.78V287.386L1354.67 283.689C1355.07 283.501 1355.04 282.922 1354.62 282.776L1343 278.685V272Z" fill="white"/>
<path d="M1360.54 278.12H1363.07V288.352H1360.62L1357.15 283.467C1357.03 283.297 1357.03 283.068 1357.15 282.896L1360.54 278.12Z" fill="white"/>
</g>
<g opacity="0.1">
<path d="M1343 340H1348.74L1348.74 340.002L1356.43 350.898C1356.56 351.07 1356.56 351.299 1356.43 351.469L1350.36 360H1346.78V355.386L1354.67 351.689C1355.07 351.501 1355.04 350.922 1354.62 350.776L1343 346.685V340Z" fill="white"/>
<path d="M1360.54 346.12H1363.07V356.352H1360.62L1357.15 351.467C1357.03 351.297 1357.03 351.068 1357.15 350.896L1360.54 346.12Z" fill="white"/>
</g>
<g opacity="0.1">
<path d="M1343 408H1348.74L1348.74 408.002L1356.43 418.898C1356.56 419.07 1356.56 419.299 1356.43 419.469L1350.36 428H1346.78V423.386L1354.67 419.689C1355.07 419.501 1355.04 418.922 1354.62 418.776L1343 414.685V408Z" fill="white"/>
<path d="M1360.54 414.12H1363.07V424.352H1360.62L1357.15 419.467C1357.03 419.297 1357.03 419.068 1357.15 418.896L1360.54 414.12Z" fill="white"/>
</g>
<g opacity="0.1">
<path d="M1343 476H1348.74L1348.74 476.002L1356.43 486.898C1356.56 487.07 1356.56 487.299 1356.43 487.469L1350.36 496H1346.78V491.386L1354.67 487.689C1355.07 487.501 1355.04 486.922 1354.62 486.776L1343 482.685V476Z" fill="white"/>
<path d="M1360.54 482.12H1363.07V492.352H1360.62L1357.15 487.467C1357.03 487.297 1357.03 487.068 1357.15 486.896L1360.54 482.12Z" fill="white"/>
</g>
<g opacity="0.1">
<path d="M1343 544H1348.74L1348.74 544.002L1356.43 554.898C1356.56 555.07 1356.56 555.299 1356.43 555.469L1350.36 564H1346.78V559.386L1354.67 555.689C1355.07 555.501 1355.04 554.922 1354.62 554.776L1343 550.685V544Z" fill="white"/>
<path d="M1360.54 550.12H1363.07V560.352H1360.62L1357.15 555.467C1357.03 555.297 1357.03 555.068 1357.15 554.896L1360.54 550.12Z" fill="white"/>
</g>
<g opacity="0.1">
<path d="M1343 612H1348.74L1348.74 612.002L1356.43 622.898C1356.56 623.07 1356.56 623.299 1356.43 623.469L1350.36 632H1346.78V627.386L1354.67 623.689C1355.07 623.501 1355.04 622.922 1354.62 622.776L1343 618.685V612Z" fill="white"/>
<path d="M1360.54 618.12H1363.07V628.352H1360.62L1357.15 623.467C1357.03 623.297 1357.03 623.068 1357.15 622.896L1360.54 618.12Z" fill="white"/>
</g>
<g opacity="0.1">
<path d="M1343 680H1348.74L1348.74 680.002L1356.43 690.898C1356.56 691.07 1356.56 691.299 1356.43 691.469L1350.36 700H1346.78V695.386L1354.67 691.689C1355.07 691.501 1355.04 690.922 1354.62 690.776L1343 686.685V680Z" fill="white"/>
<path d="M1360.54 686.12H1363.07V696.352H1360.62L1357.15 691.467C1357.03 691.297 1357.03 691.068 1357.15 690.896L1360.54 686.12Z" fill="white"/>
</g>
<g opacity="0.1">
<path d="M79 0H84.738L84.736 0.00185394L92.4335 10.8981C92.5561 11.07 92.5561 11.2992 92.4335 11.4692L86.3633 20H82.7766V15.3858L90.6658 11.6885C91.0672 11.5008 91.0376 10.9218 90.6204 10.7756L79 6.68505V0Z" fill="white"/>
<path d="M96.5443 6.11989H99.0691V16.3521H96.6154L93.1493 11.4672C93.0267 11.2973 93.0267 11.068 93.1493 10.8961L96.5443 6.11989Z" fill="white"/>
</g>
<g opacity="0.1">
<path d="M79 68H84.738L84.736 68.0019L92.4335 78.8981C92.5561 79.07 92.5561 79.2992 92.4335 79.4692L86.3633 88H82.7766V83.3858L90.6658 79.6885C91.0672 79.5008 91.0376 78.9218 90.6204 78.7756L79 74.685V68Z" fill="white"/>
<path d="M96.5443 74.1199H99.0691V84.3521H96.6154L93.1493 79.4672C93.0267 79.2973 93.0267 79.068 93.1493 78.8961L96.5443 74.1199Z" fill="white"/>
</g>
<g opacity="0.1">
<path d="M79 136H84.738L84.736 136.002L92.4335 146.898C92.5561 147.07 92.5561 147.299 92.4335 147.469L86.3633 156H82.7766V151.386L90.6658 147.689C91.0672 147.501 91.0376 146.922 90.6204 146.776L79 142.685V136Z" fill="white"/>
<path d="M96.5443 142.12H99.0691V152.352H96.6154L93.1493 147.467C93.0267 147.297 93.0267 147.068 93.1493 146.896L96.5443 142.12Z" fill="white"/>
</g>
<g opacity="0.1">
<path d="M79 204H84.738L84.736 204.002L92.4335 214.898C92.5561 215.07 92.5561 215.299 92.4335 215.469L86.3633 224H82.7766V219.386L90.6658 215.689C91.0672 215.501 91.0376 214.922 90.6204 214.776L79 210.685V204Z" fill="white"/>
<path d="M96.5443 210.12H99.0691V220.352H96.6154L93.1493 215.467C93.0267 215.297 93.0267 215.068 93.1493 214.896L96.5443 210.12Z" fill="white"/>
</g>
<g opacity="0.1">
<path d="M79 272H84.738L84.736 272.002L92.4335 282.898C92.5561 283.07 92.5561 283.299 92.4335 283.469L86.3633 292H82.7766V287.386L90.6658 283.689C91.0672 283.501 91.0376 282.922 90.6204 282.776L79 278.685V272Z" fill="white"/>
<path d="M96.5443 278.12H99.0691V288.352H96.6154L93.1493 283.467C93.0267 283.297 93.0267 283.068 93.1493 282.896L96.5443 278.12Z" fill="white"/>
</g>
<g opacity="0.1">
<path d="M79 340H84.738L84.736 340.002L92.4335 350.898C92.5561 351.07 92.5561 351.299 92.4335 351.469L86.3633 360H82.7766V355.386L90.6658 351.689C91.0672 351.501 91.0376 350.922 90.6204 350.776L79 346.685V340Z" fill="white"/>
<path d="M96.5443 346.12H99.0691V356.352H96.6154L93.1493 351.467C93.0267 351.297 93.0267 351.068 93.1493 350.896L96.5443 346.12Z" fill="white"/>
</g>
<g opacity="0.1">
<path d="M79 408H84.738L84.736 408.002L92.4335 418.898C92.5561 419.07 92.5561 419.299 92.4335 419.469L86.3633 428H82.7766V423.386L90.6658 419.689C91.0672 419.501 91.0376 418.922 90.6204 418.776L79 414.685V408Z" fill="white"/>
<path d="M96.5443 414.12H99.0691V424.352H96.6154L93.1493 419.467C93.0267 419.297 93.0267 419.068 93.1493 418.896L96.5443 414.12Z" fill="white"/>
</g>
<path d="M79 476H84.738L84.736 476.002L92.4335 486.898C92.5561 487.07 92.5561 487.299 92.4335 487.469L86.3633 496H82.7766V491.386L90.6658 487.689C91.0672 487.501 91.0376 486.922 90.6204 486.776L79 482.685V476Z" fill="white"/>
<path d="M96.5443 482.12H99.0691V492.352H96.6154L93.1493 487.467C93.0267 487.297 93.0267 487.068 93.1493 486.896L96.5443 482.12Z" fill="white"/>
<g opacity="0.1">
<path d="M79 544H84.738L84.736 544.002L92.4335 554.898C92.5561 555.07 92.5561 555.299 92.4335 555.469L86.3633 564H82.7766V559.386L90.6658 555.689C91.0672 555.501 91.0376 554.922 90.6204 554.776L79 550.685V544Z" fill="white"/>
<path d="M96.5443 550.12H99.0691V560.352H96.6154L93.1493 555.467C93.0267 555.297 93.0267 555.068 93.1493 554.896L96.5443 550.12Z" fill="white"/>
</g>
<g opacity="0.1">
<path d="M79 612H84.738L84.736 612.002L92.4335 622.898C92.5561 623.07 92.5561 623.299 92.4335 623.469L86.3633 632H82.7766V627.386L90.6658 623.689C91.0672 623.501 91.0376 622.922 90.6204 622.776L79 618.685V612Z" fill="white"/>
<path d="M96.5443 618.12H99.0691V628.352H96.6154L93.1493 623.467C93.0267 623.297 93.0267 623.068 93.1493 622.896L96.5443 618.12Z" fill="white"/>
</g>
<g opacity="0.1">
<path d="M79 680H84.738L84.736 680.002L92.4335 690.898C92.5561 691.07 92.5561 691.299 92.4335 691.469L86.3633 700H82.7766V695.386L90.6658 691.689C91.0672 691.501 91.0376 690.922 90.6204 690.776L79 686.685V680Z" fill="white"/>
<path d="M96.5443 686.12H99.0691V696.352H96.6154L93.1493 691.467C93.0267 691.297 93.0267 691.068 93.1493 690.896L96.5443 686.12Z" fill="white"/>
</g>
<g opacity="0.1">
<path d="M0 0H5.73802L5.73604 0.00185394L13.4335 10.8981C13.5561 11.07 13.5561 11.2992 13.4335 11.4692L7.36332 20H3.77658V15.3858L11.6658 11.6885C12.0672 11.5008 12.0376 10.9218 11.6204 10.7756L0 6.68505V0Z" fill="white"/>
<path d="M17.5443 6.11989H20.0691V16.3521H17.6154L14.1493 11.4672C14.0267 11.2973 14.0267 11.068 14.1493 10.8961L17.5443 6.11989Z" fill="white"/>
</g>
<g opacity="0.1">
<path d="M0 68H5.73802L5.73604 68.0019L13.4335 78.8981C13.5561 79.07 13.5561 79.2992 13.4335 79.4692L7.36332 88H3.77658V83.3858L11.6658 79.6885C12.0672 79.5008 12.0376 78.9218 11.6204 78.7756L0 74.685V68Z" fill="white"/>
<path d="M17.5443 74.1199H20.0691V84.3521H17.6154L14.1493 79.4672C14.0267 79.2973 14.0267 79.068 14.1493 78.8961L17.5443 74.1199Z" fill="white"/>
</g>
<g opacity="0.1">
<path d="M0 136H5.73802L5.73604 136.002L13.4335 146.898C13.5561 147.07 13.5561 147.299 13.4335 147.469L7.36332 156H3.77658V151.386L11.6658 147.689C12.0672 147.501 12.0376 146.922 11.6204 146.776L0 142.685V136Z" fill="white"/>
<path d="M17.5443 142.12H20.0691V152.352H17.6154L14.1493 147.467C14.0267 147.297 14.0267 147.068 14.1493 146.896L17.5443 142.12Z" fill="white"/>
</g>
<g opacity="0.1">
<path d="M0 204H5.73802L5.73604 204.002L13.4335 214.898C13.5561 215.07 13.5561 215.299 13.4335 215.469L7.36332 224H3.77658V219.386L11.6658 215.689C12.0672 215.501 12.0376 214.922 11.6204 214.776L0 210.685V204Z" fill="white"/>
<path d="M17.5443 210.12H20.0691V220.352H17.6154L14.1493 215.467C14.0267 215.297 14.0267 215.068 14.1493 214.896L17.5443 210.12Z" fill="white"/>
</g>
<g opacity="0.1">
<path d="M0 272H5.73802L5.73604 272.002L13.4335 282.898C13.5561 283.07 13.5561 283.299 13.4335 283.469L7.36332 292H3.77658V287.386L11.6658 283.689C12.0672 283.501 12.0376 282.922 11.6204 282.776L0 278.685V272Z" fill="white"/>
<path d="M17.5443 278.12H20.0691V288.352H17.6154L14.1493 283.467C14.0267 283.297 14.0267 283.068 14.1493 282.896L17.5443 278.12Z" fill="white"/>
</g>
<g opacity="0.1">
<path d="M0 340H5.73802L5.73604 340.002L13.4335 350.898C13.5561 351.07 13.5561 351.299 13.4335 351.469L7.36332 360H3.77658V355.386L11.6658 351.689C12.0672 351.501 12.0376 350.922 11.6204 350.776L0 346.685V340Z" fill="white"/>
<path d="M17.5443 346.12H20.0691V356.352H17.6154L14.1493 351.467C14.0267 351.297 14.0267 351.068 14.1493 350.896L17.5443 346.12Z" fill="white"/>
</g>
<g opacity="0.1">
<path d="M0 408H5.73802L5.73604 408.002L13.4335 418.898C13.5561 419.07 13.5561 419.299 13.4335 419.469L7.36332 428H3.77658V423.386L11.6658 419.689C12.0672 419.501 12.0376 418.922 11.6204 418.776L0 414.685V408Z" fill="white"/>
<path d="M17.5443 414.12H20.0691V424.352H17.6154L14.1493 419.467C14.0267 419.297 14.0267 419.068 14.1493 418.896L17.5443 414.12Z" fill="white"/>
</g>
<g opacity="0.1">
<path d="M0 476H5.73802L5.73604 476.002L13.4335 486.898C13.5561 487.07 13.5561 487.299 13.4335 487.469L7.36332 496H3.77658V491.386L11.6658 487.689C12.0672 487.501 12.0376 486.922 11.6204 486.776L0 482.685V476Z" fill="white"/>
<path d="M17.5443 482.12H20.0691V492.352H17.6154L14.1493 487.467C14.0267 487.297 14.0267 487.068 14.1493 486.896L17.5443 482.12Z" fill="white"/>
</g>
<g opacity="0.1">
<path d="M0 544H5.73802L5.73604 544.002L13.4335 554.898C13.5561 555.07 13.5561 555.299 13.4335 555.469L7.36332 564H3.77658V559.386L11.6658 555.689C12.0672 555.501 12.0376 554.922 11.6204 554.776L0 550.685V544Z" fill="white"/>
<path d="M17.5443 550.12H20.0691V560.352H17.6154L14.1493 555.467C14.0267 555.297 14.0267 555.068 14.1493 554.896L17.5443 550.12Z" fill="white"/>
</g>
<g opacity="0.1">
<path d="M0 612H5.73802L5.73604 612.002L13.4335 622.898C13.5561 623.07 13.5561 623.299 13.4335 623.469L7.36332 632H3.77658V627.386L11.6658 623.689C12.0672 623.501 12.0376 622.922 11.6204 622.776L0 618.685V612Z" fill="white"/>
<path d="M17.5443 618.12H20.0691V628.352H17.6154L14.1493 623.467C14.0267 623.297 14.0267 623.068 14.1493 622.896L17.5443 618.12Z" fill="white"/>
</g>
<g opacity="0.1">
<path d="M0 680H5.73802L5.73604 680.002L13.4335 690.898C13.5561 691.07 13.5561 691.299 13.4335 691.469L7.36332 700H3.77658V695.386L11.6658 691.689C12.0672 691.501 12.0376 690.922 11.6204 690.776L0 686.685V680Z" fill="white"/>
<path d="M17.5443 686.12H20.0691V696.352H17.6154L14.1493 691.467C14.0267 691.297 14.0267 691.068 14.1493 690.896L17.5443 686.12Z" fill="white"/>
</g>
</svg>
