<svg width="150" height="149" viewBox="0 0 150 149" fill="none" xmlns="http://www.w3.org/2000/svg">
<rect x="10" y="12.0752" width="125" height="117" fill="white"/>
<path d="M140.535 148.075H0V8.60724C0 3.85649 3.8856 0.00038147 8.67267 0.00038147H149.207V139.469C149.207 144.219 145.322 148.075 140.535 148.075ZM52.0878 22.006H22.0184V56.7933L82.9136 78.0791C85.0999 78.8401 85.2554 81.853 83.1519 82.8299L41.8091 102.069V126.08H60.6051L93.4825 80.2077L52.0878 22.0163V22.006ZM127.199 53.8524H113.957L96.1661 78.7064C95.5237 79.601 95.5237 80.7938 96.1661 81.6782L114.33 107.098H127.189V53.8524H127.199Z" fill="#0053EF"/>
</svg>
