<svg width="353" height="73" viewBox="0 0 353 73" fill="none" xmlns="http://www.w3.org/2000/svg">
<g clip-path="url(#clip0_24173_63505)">
<path d="M5.016 24V10.92L2.544 12.72L0.96 10.296L5.784 6.816H8.16V24H5.016ZM18.6231 24.384C17.5671 24.384 16.6151 24.16 15.7671 23.712C14.9191 23.248 14.1911 22.616 13.5831 21.816C12.9911 21 12.5351 20.048 12.2151 18.96C11.8951 17.872 11.7351 16.696 11.7351 15.432C11.7351 14.136 11.8951 12.944 12.2151 11.856C12.5351 10.768 12.9911 9.816 13.5831 9C14.1911 8.184 14.9191 7.552 15.7671 7.104C16.6151 6.656 17.5671 6.432 18.6231 6.432C19.6791 6.432 20.6311 6.656 21.4791 7.104C22.3271 7.552 23.0471 8.184 23.6391 9C24.2471 9.816 24.7111 10.768 25.0311 11.856C25.3511 12.944 25.5111 14.136 25.5111 15.432C25.5111 16.696 25.3511 17.872 25.0311 18.96C24.7111 20.048 24.2471 21 23.6391 21.816C23.0471 22.616 22.3271 23.248 21.4791 23.712C20.6311 24.16 19.6791 24.384 18.6231 24.384ZM18.6231 21.432C19.4071 21.432 20.0791 21.168 20.6391 20.64C21.1991 20.112 21.6231 19.392 21.9111 18.48C22.2151 17.568 22.3671 16.544 22.3671 15.408C22.3671 14.24 22.2151 13.208 21.9111 12.312C21.6231 11.4 21.1991 10.688 20.6391 10.176C20.0791 9.648 19.4071 9.384 18.6231 9.384C17.8551 9.384 17.1911 9.648 16.6311 10.176C16.0711 10.688 15.6391 11.4 15.3351 12.312C15.0471 13.208 14.9031 14.24 14.9031 15.408C14.9031 16.544 15.0471 17.568 15.3351 18.48C15.6391 19.392 16.0711 20.112 16.6311 20.64C17.1911 21.168 17.8551 21.432 18.6231 21.432ZM34.2681 24.384C33.2121 24.384 32.2601 24.16 31.4121 23.712C30.5641 23.248 29.8361 22.616 29.2281 21.816C28.6361 21 28.1801 20.048 27.8601 18.96C27.5401 17.872 27.3801 16.696 27.3801 15.432C27.3801 14.136 27.5401 12.944 27.8601 11.856C28.1801 10.768 28.6361 9.816 29.2281 9C29.8361 8.184 30.5641 7.552 31.4121 7.104C32.2601 6.656 33.2121 6.432 34.2681 6.432C35.3241 6.432 36.2761 6.656 37.1241 7.104C37.9721 7.552 38.6921 8.184 39.2841 9C39.8921 9.816 40.3561 10.768 40.6761 11.856C40.9961 12.944 41.1561 14.136 41.1561 15.432C41.1561 16.696 40.9961 17.872 40.6761 18.96C40.3561 20.048 39.8921 21 39.2841 21.816C38.6921 22.616 37.9721 23.248 37.1241 23.712C36.2761 24.16 35.3241 24.384 34.2681 24.384ZM34.2681 21.432C35.0521 21.432 35.7241 21.168 36.2841 20.64C36.8441 20.112 37.2681 19.392 37.5561 18.48C37.8601 17.568 38.0121 16.544 38.0121 15.408C38.0121 14.24 37.8601 13.208 37.5561 12.312C37.2681 11.4 36.8441 10.688 36.2841 10.176C35.7241 9.648 35.0521 9.384 34.2681 9.384C33.5001 9.384 32.8361 9.648 32.2761 10.176C31.7161 10.688 31.2841 11.4 30.9801 12.312C30.6921 13.208 30.5481 14.24 30.5481 15.408C30.5481 16.544 30.6921 17.568 30.9801 18.48C31.2841 19.392 31.7161 20.112 32.2761 20.64C32.8361 21.168 33.5001 21.432 34.2681 21.432ZM47.0571 14.64C46.2571 14.64 45.5371 14.456 44.8971 14.088C44.2571 13.72 43.7531 13.224 43.3851 12.6C43.0171 11.976 42.8251 11.288 42.8091 10.536C42.8251 9.784 43.0171 9.096 43.3851 8.472C43.7531 7.848 44.2571 7.352 44.8971 6.984C45.5371 6.616 46.2571 6.432 47.0571 6.432C47.8731 6.432 48.6011 6.616 49.2411 6.984C49.8811 7.352 50.3851 7.848 50.7531 8.472C51.1211 9.096 51.3051 9.784 51.3051 10.536C51.3051 11.288 51.1211 11.976 50.7531 12.6C50.3851 13.224 49.8811 13.72 49.2411 14.088C48.6011 14.456 47.8731 14.64 47.0571 14.64ZM47.0571 12.288C47.5211 12.288 47.9131 12.128 48.2331 11.808C48.5531 11.488 48.7131 11.064 48.7131 10.536C48.7131 10.008 48.5531 9.584 48.2331 9.264C47.9131 8.944 47.5211 8.784 47.0571 8.784C46.6091 8.784 46.2251 8.944 45.9051 9.264C45.5851 9.584 45.4251 10.008 45.4251 10.536C45.4251 11.064 45.5851 11.488 45.9051 11.808C46.2251 12.128 46.6091 12.288 47.0571 12.288ZM57.2331 24.384C56.4331 24.384 55.7131 24.2 55.0731 23.832C54.4331 23.464 53.9291 22.968 53.5611 22.344C53.1931 21.72 53.0011 21.032 52.9851 20.28C53.0011 19.528 53.1931 18.84 53.5611 18.216C53.9291 17.592 54.4331 17.096 55.0731 16.728C55.7131 16.36 56.4331 16.176 57.2331 16.176C58.0491 16.176 58.7771 16.36 59.4171 16.728C60.0571 17.096 60.5611 17.592 60.9291 18.216C61.2971 18.84 61.4811 19.528 61.4811 20.28C61.4811 21.032 61.2971 21.72 60.9291 22.344C60.5611 22.968 60.0571 23.464 59.4171 23.832C58.7771 24.2 58.0491 24.384 57.2331 24.384ZM57.2331 22.032C57.6971 22.032 58.0891 21.872 58.4091 21.552C58.7291 21.232 58.8891 20.808 58.8891 20.28C58.8891 19.752 58.7291 19.328 58.4091 19.008C58.0891 18.688 57.6971 18.528 57.2331 18.528C56.7851 18.528 56.4011 18.688 56.0811 19.008C55.7611 19.328 55.6011 19.752 55.6011 20.28C55.6011 20.808 55.7611 21.232 56.0811 21.552C56.4011 21.872 56.7851 22.032 57.2331 22.032ZM47.5131 24.384L45.6171 23.112L56.7771 6.432L58.6731 7.704L47.5131 24.384Z" fill="black"/>
<path d="M79.158 20.224C78.4393 20.224 77.8047 20.056 77.254 19.72C76.7033 19.384 76.2693 18.9313 75.952 18.362C75.644 17.7833 75.49 17.1393 75.49 16.43C75.49 15.7207 75.644 15.0813 75.952 14.512C76.2693 13.9333 76.7033 13.476 77.254 13.14C77.8047 12.804 78.4393 12.636 79.158 12.636C79.8767 12.636 80.5113 12.8087 81.062 13.154C81.6127 13.49 82.042 13.9473 82.35 14.526C82.6673 15.0953 82.826 15.73 82.826 16.43C82.826 17.1393 82.6673 17.7833 82.35 18.362C82.042 18.9313 81.6127 19.384 81.062 19.72C80.5113 20.056 79.8767 20.224 79.158 20.224ZM79.158 19.146C79.5873 19.146 79.9887 19.0387 80.362 18.824C80.7447 18.6093 81.0527 18.3013 81.286 17.9C81.5193 17.4893 81.636 16.9993 81.636 16.43C81.636 15.8607 81.5193 15.3753 81.286 14.974C81.0527 14.5633 80.7447 14.2507 80.362 14.036C79.9887 13.8213 79.5873 13.714 79.158 13.714C78.7287 13.714 78.3227 13.8213 77.94 14.036C77.5573 14.2507 77.2493 14.5633 77.016 14.974C76.7827 15.3753 76.666 15.8607 76.666 16.43C76.666 16.9993 76.7827 17.4893 77.016 17.9C77.2493 18.3013 77.5573 18.6093 77.94 18.824C78.3227 19.0387 78.7287 19.146 79.158 19.146ZM83.3891 13.938V12.86H84.7751V13.938H83.3891ZM84.7051 20V12.09C84.7051 11.6513 84.7984 11.2687 84.9851 10.942C85.1811 10.606 85.4517 10.3447 85.7971 10.158C86.1517 9.962 86.5624 9.864 87.0291 9.864C87.2064 9.864 87.3791 9.878 87.5471 9.906C87.7151 9.934 87.8784 9.976 88.0371 10.032V11.194C87.8504 11.1193 87.6731 11.0633 87.5051 11.026C87.3464 10.9887 87.1971 10.97 87.0571 10.97C86.7117 10.97 86.4317 11.082 86.2171 11.306C86.0024 11.53 85.8951 11.8333 85.8951 12.216V20H84.7051ZM85.8251 13.938V12.86H87.7291V13.938H85.8251ZM92.2332 20V12.86H93.3672V14.008H93.4232C93.5166 13.7373 93.6706 13.504 93.8852 13.308C94.1092 13.1027 94.3612 12.944 94.6412 12.832C94.9306 12.7107 95.2152 12.65 95.4952 12.65C95.7099 12.65 95.8779 12.664 95.9992 12.692C96.1206 12.7107 96.2326 12.7433 96.3352 12.79V14.078C96.1859 14.0033 96.0226 13.9473 95.8452 13.91C95.6772 13.8727 95.5046 13.854 95.3272 13.854C94.9819 13.854 94.6646 13.952 94.3752 14.148C94.0859 14.344 93.8526 14.6053 93.6752 14.932C93.5072 15.2587 93.4232 15.618 93.4232 16.01V20H92.2332ZM100.319 20.224C99.6288 20.224 99.0128 20.0607 98.4714 19.734C97.9394 19.4073 97.5194 18.9593 97.2114 18.39C96.9128 17.8207 96.7634 17.172 96.7634 16.444C96.7634 15.7627 96.9034 15.1327 97.1834 14.554C97.4728 13.9753 97.8741 13.5133 98.3874 13.168C98.9101 12.8133 99.5214 12.636 100.221 12.636C100.931 12.636 101.537 12.7947 102.041 13.112C102.555 13.42 102.947 13.8493 103.217 14.4C103.497 14.9507 103.637 15.5807 103.637 16.29C103.637 16.3553 103.633 16.4207 103.623 16.486C103.623 16.5513 103.619 16.6073 103.609 16.654H97.4634V15.674H102.377C102.368 15.478 102.321 15.268 102.237 15.044C102.163 14.8107 102.037 14.596 101.859 14.4C101.691 14.1947 101.472 14.0313 101.201 13.91C100.94 13.7793 100.613 13.714 100.221 13.714C99.7548 13.714 99.3488 13.8353 99.0034 14.078C98.6674 14.3113 98.4061 14.6333 98.2194 15.044C98.0421 15.4547 97.9534 15.9213 97.9534 16.444C97.9534 17.0507 98.0701 17.5547 98.3034 17.956C98.5368 18.3573 98.8354 18.656 99.1994 18.852C99.5728 19.048 99.9601 19.146 100.361 19.146C100.884 19.146 101.313 19.0247 101.649 18.782C101.995 18.53 102.27 18.222 102.475 17.858L103.483 18.348C103.203 18.8893 102.802 19.3373 102.279 19.692C101.757 20.0467 101.103 20.224 100.319 20.224ZM106.924 20L104.04 12.86H105.314L107.526 18.6H107.554L109.794 12.86H111.04L108.128 20H106.924ZM115.003 20.224C114.312 20.224 113.696 20.0607 113.155 19.734C112.623 19.4073 112.203 18.9593 111.895 18.39C111.596 17.8207 111.447 17.172 111.447 16.444C111.447 15.7627 111.587 15.1327 111.867 14.554C112.156 13.9753 112.558 13.5133 113.071 13.168C113.594 12.8133 114.205 12.636 114.905 12.636C115.614 12.636 116.221 12.7947 116.725 13.112C117.238 13.42 117.63 13.8493 117.901 14.4C118.181 14.9507 118.321 15.5807 118.321 16.29C118.321 16.3553 118.316 16.4207 118.307 16.486C118.307 16.5513 118.302 16.6073 118.293 16.654H112.147V15.674H117.061C117.052 15.478 117.005 15.268 116.921 15.044C116.846 14.8107 116.72 14.596 116.543 14.4C116.375 14.1947 116.156 14.0313 115.885 13.91C115.624 13.7793 115.297 13.714 114.905 13.714C114.438 13.714 114.032 13.8353 113.687 14.078C113.351 14.3113 113.09 14.6333 112.903 15.044C112.726 15.4547 112.637 15.9213 112.637 16.444C112.637 17.0507 112.754 17.5547 112.987 17.956C113.22 18.3573 113.519 18.656 113.883 18.852C114.256 19.048 114.644 19.146 115.045 19.146C115.568 19.146 115.997 19.0247 116.333 18.782C116.678 18.53 116.954 18.222 117.159 17.858L118.167 18.348C117.887 18.8893 117.486 19.3373 116.963 19.692C116.44 20.0467 115.787 20.224 115.003 20.224ZM119.673 20V12.86H120.807V13.91H120.863C121.049 13.5647 121.353 13.266 121.773 13.014C122.202 12.762 122.669 12.636 123.173 12.636C124.05 12.636 124.708 12.8927 125.147 13.406C125.595 13.91 125.819 14.582 125.819 15.422V20H124.629V15.604C124.629 14.9133 124.461 14.428 124.125 14.148C123.798 13.8587 123.373 13.714 122.851 13.714C122.459 13.714 122.113 13.826 121.815 14.05C121.516 14.2647 121.283 14.5447 121.115 14.89C120.947 15.2353 120.863 15.5993 120.863 15.982V20H119.673ZM130.083 20.224C129.206 20.224 128.543 19.9673 128.095 19.454C127.656 18.9407 127.437 18.2407 127.437 17.354V12.86H128.627V17.172C128.627 17.8813 128.79 18.39 129.117 18.698C129.444 18.9967 129.85 19.146 130.335 19.146C130.755 19.146 131.119 19.0387 131.427 18.824C131.735 18.6 131.973 18.3153 132.141 17.97C132.309 17.6247 132.393 17.2653 132.393 16.892V12.86H133.583V20H132.449V18.964H132.393C132.272 19.188 132.09 19.398 131.847 19.594C131.614 19.7807 131.343 19.93 131.035 20.042C130.736 20.1633 130.419 20.224 130.083 20.224ZM138.491 20.224C137.801 20.224 137.185 20.0607 136.643 19.734C136.111 19.4073 135.691 18.9593 135.383 18.39C135.085 17.8207 134.935 17.172 134.935 16.444C134.935 15.7627 135.075 15.1327 135.355 14.554C135.645 13.9753 136.046 13.5133 136.559 13.168C137.082 12.8133 137.693 12.636 138.393 12.636C139.103 12.636 139.709 12.7947 140.213 13.112C140.727 13.42 141.119 13.8493 141.389 14.4C141.669 14.9507 141.809 15.5807 141.809 16.29C141.809 16.3553 141.805 16.4207 141.795 16.486C141.795 16.5513 141.791 16.6073 141.781 16.654H135.635V15.674H140.549C140.54 15.478 140.493 15.268 140.409 15.044C140.335 14.8107 140.209 14.596 140.031 14.4C139.863 14.1947 139.644 14.0313 139.373 13.91C139.112 13.7793 138.785 13.714 138.393 13.714C137.927 13.714 137.521 13.8353 137.175 14.078C136.839 14.3113 136.578 14.6333 136.391 15.044C136.214 15.4547 136.125 15.9213 136.125 16.444C136.125 17.0507 136.242 17.5547 136.475 17.956C136.709 18.3573 137.007 18.656 137.371 18.852C137.745 19.048 138.132 19.146 138.533 19.146C139.056 19.146 139.485 19.0247 139.821 18.782C140.167 18.53 140.442 18.222 140.647 17.858L141.655 18.348C141.375 18.8893 140.974 19.3373 140.451 19.692C139.929 20.0467 139.275 20.224 138.491 20.224ZM146.415 20V12.86H147.549V14.008H147.605C147.698 13.7373 147.852 13.504 148.067 13.308C148.291 13.1027 148.543 12.944 148.823 12.832C149.112 12.7107 149.397 12.65 149.677 12.65C149.892 12.65 150.06 12.664 150.181 12.692C150.302 12.7107 150.414 12.7433 150.517 12.79V14.078C150.368 14.0033 150.204 13.9473 150.027 13.91C149.859 13.8727 149.686 13.854 149.509 13.854C149.164 13.854 148.846 13.952 148.557 14.148C148.268 14.344 148.034 14.6053 147.857 14.932C147.689 15.2587 147.605 15.618 147.605 16.01V20H146.415ZM154.501 20.224C153.81 20.224 153.194 20.0607 152.653 19.734C152.121 19.4073 151.701 18.9593 151.393 18.39C151.094 17.8207 150.945 17.172 150.945 16.444C150.945 15.7627 151.085 15.1327 151.365 14.554C151.654 13.9753 152.056 13.5133 152.569 13.168C153.092 12.8133 153.703 12.636 154.403 12.636C155.112 12.636 155.719 12.7947 156.223 13.112C156.736 13.42 157.128 13.8493 157.399 14.4C157.679 14.9507 157.819 15.5807 157.819 16.29C157.819 16.3553 157.814 16.4207 157.805 16.486C157.805 16.5513 157.8 16.6073 157.791 16.654H151.645V15.674H156.559C156.55 15.478 156.503 15.268 156.419 15.044C156.344 14.8107 156.218 14.596 156.041 14.4C155.873 14.1947 155.654 14.0313 155.383 13.91C155.122 13.7793 154.795 13.714 154.403 13.714C153.936 13.714 153.53 13.8353 153.185 14.078C152.849 14.3113 152.588 14.6333 152.401 15.044C152.224 15.4547 152.135 15.9213 152.135 16.444C152.135 17.0507 152.252 17.5547 152.485 17.956C152.718 18.3573 153.017 18.656 153.381 18.852C153.754 19.048 154.142 19.146 154.543 19.146C155.066 19.146 155.495 19.0247 155.831 18.782C156.176 18.53 156.452 18.222 156.657 17.858L157.665 18.348C157.385 18.8893 156.984 19.3373 156.461 19.692C155.938 20.0467 155.285 20.224 154.501 20.224ZM158.448 13.938V12.86H159.778V13.938H158.448ZM161.696 20.112C161.098 20.112 160.618 19.9347 160.254 19.58C159.89 19.216 159.708 18.7307 159.708 18.124V10.844H160.898V17.83C160.898 18.2313 160.977 18.53 161.136 18.726C161.304 18.9127 161.551 19.006 161.878 19.006C162.027 19.006 162.167 18.9873 162.298 18.95C162.428 18.9033 162.554 18.8427 162.676 18.768V19.93C162.526 19.986 162.372 20.028 162.214 20.056C162.055 20.0933 161.882 20.112 161.696 20.112ZM160.828 13.938V12.86H162.648V13.938H160.828ZM166.748 20.224C166.104 20.224 165.52 20.0607 164.998 19.734C164.484 19.4073 164.078 18.9593 163.78 18.39C163.481 17.8207 163.332 17.1673 163.332 16.43C163.332 15.8793 163.416 15.3753 163.584 14.918C163.761 14.4513 164.004 14.05 164.312 13.714C164.62 13.3687 164.979 13.1027 165.39 12.916C165.81 12.7293 166.262 12.636 166.748 12.636C167.13 12.636 167.48 12.6967 167.798 12.818C168.115 12.9393 168.39 13.098 168.624 13.294C168.866 13.49 169.053 13.7 169.184 13.924H169.24V12.86H170.374V20H169.24V18.95H169.184C168.978 19.2767 168.666 19.5707 168.246 19.832C167.826 20.0933 167.326 20.224 166.748 20.224ZM166.874 19.146C167.284 19.146 167.667 19.0387 168.022 18.824C168.386 18.6 168.68 18.2873 168.904 17.886C169.128 17.4753 169.24 16.99 169.24 16.43C169.24 15.87 169.128 15.3893 168.904 14.988C168.68 14.5773 168.386 14.2647 168.022 14.05C167.667 13.826 167.284 13.714 166.874 13.714C166.463 13.714 166.076 13.826 165.712 14.05C165.357 14.2647 165.068 14.5773 164.844 14.988C164.62 15.3893 164.508 15.87 164.508 16.43C164.508 16.9807 164.62 17.4613 164.844 17.872C165.068 18.2827 165.357 18.6 165.712 18.824C166.076 19.0387 166.463 19.146 166.874 19.146ZM172.104 20V12.86H173.294V20H172.104ZM172.692 11.544C172.459 11.544 172.258 11.46 172.09 11.292C171.922 11.124 171.838 10.9233 171.838 10.69C171.838 10.4473 171.922 10.2467 172.09 10.088C172.258 9.92 172.459 9.836 172.692 9.836C172.935 9.836 173.136 9.92 173.294 10.088C173.462 10.2467 173.546 10.4473 173.546 10.69C173.546 10.9233 173.462 11.124 173.294 11.292C173.136 11.46 172.935 11.544 172.692 11.544ZM175.03 20V12.86H176.164V13.91H176.22C176.407 13.5647 176.71 13.266 177.13 13.014C177.559 12.762 178.026 12.636 178.53 12.636C179.407 12.636 180.065 12.8927 180.504 13.406C180.952 13.91 181.176 14.582 181.176 15.422V20H179.986V15.604C179.986 14.9133 179.818 14.428 179.482 14.148C179.155 13.8587 178.731 13.714 178.208 13.714C177.816 13.714 177.471 13.826 177.172 14.05C176.873 14.2647 176.64 14.5447 176.472 14.89C176.304 15.2353 176.22 15.5993 176.22 15.982V20H175.03ZM186.028 20.224C185.338 20.224 184.722 20.0607 184.18 19.734C183.648 19.4073 183.228 18.9593 182.92 18.39C182.622 17.8207 182.472 17.172 182.472 16.444C182.472 15.7627 182.612 15.1327 182.892 14.554C183.182 13.9753 183.583 13.5133 184.096 13.168C184.619 12.8133 185.23 12.636 185.93 12.636C186.64 12.636 187.246 12.7947 187.75 13.112C188.264 13.42 188.656 13.8493 188.926 14.4C189.206 14.9507 189.346 15.5807 189.346 16.29C189.346 16.3553 189.342 16.4207 189.332 16.486C189.332 16.5513 189.328 16.6073 189.318 16.654H183.172V15.674H188.086C188.077 15.478 188.03 15.268 187.946 15.044C187.872 14.8107 187.746 14.596 187.568 14.4C187.4 14.1947 187.181 14.0313 186.91 13.91C186.649 13.7793 186.322 13.714 185.93 13.714C185.464 13.714 185.058 13.8353 184.712 14.078C184.376 14.3113 184.115 14.6333 183.928 15.044C183.751 15.4547 183.662 15.9213 183.662 16.444C183.662 17.0507 183.779 17.5547 184.012 17.956C184.246 18.3573 184.544 18.656 184.908 18.852C185.282 19.048 185.669 19.146 186.07 19.146C186.593 19.146 187.022 19.0247 187.358 18.782C187.704 18.53 187.979 18.222 188.184 17.858L189.192 18.348C188.912 18.8893 188.511 19.3373 187.988 19.692C187.466 20.0467 186.812 20.224 186.028 20.224ZM193.736 20.224C193.092 20.224 192.509 20.0607 191.986 19.734C191.473 19.4073 191.067 18.9593 190.768 18.39C190.469 17.8207 190.32 17.1673 190.32 16.43C190.32 15.6927 190.469 15.0393 190.768 14.47C191.067 13.9007 191.473 13.4527 191.986 13.126C192.509 12.7993 193.092 12.636 193.736 12.636C194.119 12.636 194.469 12.6967 194.786 12.818C195.103 12.9393 195.379 13.098 195.612 13.294C195.855 13.49 196.041 13.7 196.172 13.924H196.228L196.172 12.93V9.976H197.362V20H196.228V18.95H196.172C196.041 19.1647 195.855 19.37 195.612 19.566C195.379 19.762 195.103 19.9207 194.786 20.042C194.469 20.1633 194.119 20.224 193.736 20.224ZM193.862 19.146C194.273 19.146 194.655 19.0387 195.01 18.824C195.374 18.6 195.668 18.2873 195.892 17.886C196.116 17.4753 196.228 16.99 196.228 16.43C196.228 15.87 196.116 15.3893 195.892 14.988C195.668 14.5773 195.374 14.2647 195.01 14.05C194.655 13.826 194.273 13.714 193.862 13.714C193.451 13.714 193.064 13.826 192.7 14.05C192.345 14.2647 192.056 14.5773 191.832 14.988C191.608 15.3893 191.496 15.87 191.496 16.43C191.496 16.9807 191.608 17.4613 191.832 17.872C192.056 18.2827 192.345 18.6 192.7 18.824C193.064 19.0387 193.451 19.146 193.862 19.146Z" fill="#282C39"/>
<g clip-path="url(#clip1_24173_63505)">
<g clip-path="url(#clip2_24173_63505)">
<rect width="268" height="22" transform="translate(0 50.7646)" fill="#57E5B2"/>
<rect width="698.009" height="22.0579" transform="translate(268 50.7646)" fill="#57E5B2" fill-opacity="0.3"/>
</g>
</g>
</g>
<defs>
<clipPath id="clip0_24173_63505">
<rect width="353" height="72.8221" fill="white"/>
</clipPath>
<clipPath id="clip1_24173_63505">
<rect width="353" height="33.8221" fill="white" transform="translate(0 39)"/>
</clipPath>
<clipPath id="clip2_24173_63505">
<rect y="50.7646" width="353" height="22.0579" rx="11.0289" fill="white"/>
</clipPath>
</defs>
</svg>
