<svg width="348" height="174" viewBox="0 0 348 174" fill="none" xmlns="http://www.w3.org/2000/svg">
<g clip-path="url(#clip0_24173_63515)">
<path d="M0 166.44C0 164.583 1.50536 163.078 3.36232 163.078H13.0356C14.8926 163.078 16.3979 164.583 16.3979 166.44V173.165H0V166.44Z" fill="#6281FD"/>
<path d="M23.6875 163.073C23.6875 161.216 25.1929 159.711 27.0498 159.711H36.7231C38.5801 159.711 40.0854 161.216 40.0854 163.073V173.16H23.6875V163.073Z" fill="#6281FD"/>
<path d="M47.3672 161.394C47.3672 159.537 48.8726 158.031 50.7295 158.031H60.4028C62.2597 158.031 63.7651 159.537 63.7651 161.394V173.162H47.3672V161.394Z" fill="#6281FD"/>
<path d="M71.0625 154.659C71.0625 152.802 72.5679 151.297 74.4248 151.297H84.0981C85.9551 151.297 87.4604 152.802 87.4604 154.659V173.152H71.0625V154.659Z" fill="#6281FD"/>
<path d="M94.7422 146.261C94.7422 144.404 96.2476 142.898 98.1045 142.898H107.778C109.635 142.898 111.14 144.404 111.14 146.261V173.159H94.7422V146.261Z" fill="#6281FD"/>
<path d="M117.68 134.495C117.68 132.638 119.185 131.133 121.042 131.133H131.129C132.986 131.133 134.491 132.638 134.491 134.495V173.162H117.68V134.495Z" fill="#6281FD"/>
<path d="M142.898 117.683C142.898 115.826 144.404 114.32 146.261 114.32H154.667C156.524 114.32 158.029 115.826 158.029 117.683V173.161H142.898V117.683Z" fill="#6281FD"/>
<path d="M166.438 100.87C166.438 99.0132 167.943 97.5078 169.8 97.5078H178.206C180.063 97.5078 181.568 99.0132 181.568 100.87V173.16H166.438V100.87Z" fill="#6281FD"/>
<path d="M189.969 84.0576C189.969 82.2007 191.474 80.6953 193.331 80.6953H201.737C203.594 80.6953 205.099 82.2007 205.099 84.0576V173.159H189.969V84.0576Z" fill="#6281FD"/>
<path d="M213.508 67.2451C213.508 65.3882 215.013 63.8828 216.87 63.8828H226.957C228.814 63.8828 230.319 65.3882 230.319 67.2451V173.158H213.508V67.2451Z" fill="#6281FD"/>
<path d="M237.047 48.7529C237.047 46.896 238.552 45.3906 240.409 45.3906H250.496C252.353 45.3906 253.858 46.896 253.858 48.7529V173.159H237.047V48.7529Z" fill="#6281FD"/>
<path d="M260.578 33.6201C260.578 31.7632 262.083 30.2578 263.94 30.2578H274.027C275.884 30.2578 277.39 31.7632 277.39 33.6201V173.157H260.578V33.6201Z" fill="#6281FD"/>
<path d="M284.117 20.1748C284.117 18.3179 285.623 16.8125 287.48 16.8125H297.566C299.423 16.8125 300.929 18.3179 300.929 20.1748V173.16H284.117V20.1748Z" fill="#6281FD"/>
<path d="M307.656 11.7686C307.656 9.91161 309.162 8.40625 311.019 8.40625H321.106C322.962 8.40625 324.468 9.91161 324.468 11.7686V173.16H307.656V11.7686Z" fill="#6281FD"/>
<path d="M331.602 3.36232C331.602 1.50536 333.107 0 334.964 0H344.637C346.494 0 347.999 1.50536 347.999 3.36232V173.16H331.602V3.36232Z" fill="#6281FD"/>
</g>
<defs>
<clipPath id="clip0_24173_63515">
<rect width="347.999" height="173.165" fill="white"/>
</clipPath>
</defs>
</svg>
