<svg width="80" height="20" viewBox="0 0 80 20" fill="none" xmlns="http://www.w3.org/2000/svg">
<path fill-rule="evenodd" clip-rule="evenodd" d="M78.5514 0H61.5076C60.6924 0 60 0.644762 60 1.43905V18.56C60 19.3552 60.4543 20 61.2695 20H78.3133C79.1295 20 80 19.3552 80 18.56V1.43905C80 0.644762 79.3676 0 78.5514 0Z" fill="black"/>
<path fill-rule="evenodd" clip-rule="evenodd" d="M78.5514 0H61.5076C60.6924 0 60 0.644762 60 1.43905V18.56C60 19.3552 60.4543 20 61.2695 20H78.3133C79.1295 20 80 19.3552 80 18.56V1.43905C80 0.644762 79.3676 0 78.5514 0ZM67.619 7.61905H70.3114V8.99143H70.341C70.7514 8.25143 71.9638 7.5 73.4629 7.5C76.34 7.5 77.1429 9.02762 77.1429 11.8571V17.1429H74.2857V12.3781C74.2857 11.1114 73.78 10 72.5971 10C71.1609 10 70.4762 10.9724 70.4762 12.5686V17.1429H67.619V7.61905ZM62.8571 17.1429H65.7143V7.61905H62.8571V17.1429ZM66.0714 4.28571C66.0715 4.52018 66.0255 4.75238 65.9358 4.96904C65.8462 5.18569 65.7147 5.38257 65.549 5.54843C65.3833 5.71428 65.1865 5.84586 64.9699 5.93566C64.7533 6.02545 64.5211 6.0717 64.2867 6.07176C64.0522 6.07183 63.82 6.0257 63.6034 5.93602C63.3867 5.84634 63.1899 5.71487 63.0241 5.5491C62.8582 5.38333 62.7267 5.18652 62.6369 4.96991C62.5472 4.7533 62.501 4.52114 62.501 4.28667C62.5009 3.81325 62.6889 3.3592 63.0236 3.02439C63.3583 2.68958 63.8123 2.50142 64.2857 2.50129C64.7591 2.50116 65.2132 2.68908 65.5481 3.02372C65.883 3.35835 66.0712 3.8123 66.0714 4.28571Z" fill="white"/>
<path d="M57.1467 17.15H54.4801V16.0157H54.4515C53.8582 16.7033 52.8277 17.269 51.081 17.269C48.7001 17.269 46.6496 15.4776 46.6496 12.3985C46.6496 9.46521 48.6706 7.50711 51.1706 7.50711C52.7182 7.50711 53.6791 8.05759 54.261 8.76045H54.2896V2.86426H57.1467V17.15ZM51.8886 9.64997C50.2553 9.64997 49.3372 10.8147 49.3372 12.3633C49.3372 13.9128 50.2553 15.1262 51.8886 15.1262C53.5239 15.1262 54.4801 13.9443 54.4801 12.3633C54.4801 10.7385 53.5239 9.64997 51.8886 9.64997ZM45.3953 15.6157C44.721 16.489 43.3325 17.269 41.0906 17.269C38.1001 17.269 36.1953 15.2881 36.1953 12.1766C36.1953 9.41188 37.9201 7.50711 41.1744 7.50711C43.9848 7.50711 45.7182 9.35283 45.7182 12.5995C45.7182 12.9233 45.6658 13.2452 45.6658 13.2452H38.8906L38.9067 13.5395C39.0944 14.3604 39.7144 15.3643 41.1372 15.3643C42.3791 15.3643 43.2306 14.6966 43.6153 14.1738L45.3953 15.6157ZM42.9686 11.4347C42.9877 10.4309 42.2506 9.41188 41.0886 9.41188C39.7058 9.41188 38.9677 10.4919 38.8906 11.4357H42.9686V11.4347Z" fill="white"/>
<path d="M36.1905 7.62136H32.8571L29.5238 11.4309V2.85946H26.6667V17.1452H29.5238V12.3833L33.0467 17.1452H36.42L32.381 11.9385L36.1905 7.62136ZM15.2381 7.62136H17.9305V8.99374H17.96C18.3705 8.25374 19.5829 7.50231 21.0819 7.50231C23.959 7.50231 24.7619 9.32803 24.7619 11.8595V17.1452H21.9048V12.3804C21.9048 10.9785 21.399 10.0023 20.2162 10.0023C18.78 10.0023 18.0952 11.1395 18.0952 12.5709V17.1452H15.2381V7.62136ZM10.4762 17.1452H13.3333V7.62136H10.4762V17.1452ZM11.9057 6.00231C12.1342 6.0077 12.3614 5.96735 12.574 5.88365C12.7867 5.79994 12.9804 5.67456 13.1439 5.51489C13.3074 5.35521 13.4373 5.16446 13.526 4.95385C13.6147 4.74325 13.6604 4.51703 13.6604 4.2885C13.6604 4.05998 13.6147 3.83376 13.526 3.62315C13.4373 3.41255 13.3074 3.22179 13.1439 3.06212C12.9804 2.90244 12.7867 2.77707 12.574 2.69336C12.3614 2.60966 12.1342 2.56931 11.9057 2.57469C11.4582 2.58525 11.0325 2.77044 10.7197 3.09069C10.4069 3.41094 10.2318 3.84084 10.2318 4.2885C10.2318 4.73616 10.4069 5.16607 10.7197 5.48632C11.0325 5.80657 11.4582 5.99176 11.9057 6.00231ZM2.85714 2.85946H0V17.1452H8.57143V14.288H2.85714V2.85946Z" fill="white"/>
</svg>
