<svg width="160" height="40" viewBox="0 0 160 40" fill="none" xmlns="http://www.w3.org/2000/svg">
<g clip-path="url(#clip0_26822_19108)">
<path d="M57.8642 9.72464C57.0395 10.7005 55.7201 11.4701 54.4007 11.3602C54.2358 10.0408 54.8817 8.63886 55.6376 7.77298C56.4623 6.76967 57.9054 6.05498 59.0737 6C59.2111 7.37441 58.6751 8.72132 57.8642 9.72464ZM59.0599 11.6213C57.1495 11.5114 55.514 12.7071 54.6068 12.7071C53.686 12.7071 52.2978 11.6763 50.786 11.7038C48.8206 11.7313 46.9926 12.8445 45.9893 14.6175C43.9277 18.1635 45.4533 23.4137 47.4462 26.3C48.422 27.7293 49.5903 29.2962 51.1296 29.2412C52.5865 29.1862 53.1637 28.2929 54.923 28.2929C56.6959 28.2929 57.2045 29.2412 58.7438 29.2137C60.3381 29.1862 61.3414 27.7843 62.3173 26.3549C63.4305 24.7331 63.8841 23.1526 63.9116 23.0701C63.8841 23.0426 60.8329 21.8744 60.8054 18.3559C60.7779 15.4147 63.2106 14.0128 63.3206 13.9303C61.9462 11.8962 59.8021 11.6763 59.0599 11.6213ZM70.0964 7.63554V29.0625H73.4225V21.7369H78.0267C82.2324 21.7369 85.1874 18.8507 85.1874 14.6725C85.1874 10.4943 82.2874 7.63554 78.1367 7.63554H70.0964ZM73.4225 10.4393H77.257C80.1433 10.4393 81.7926 11.9787 81.7926 14.6862C81.7926 17.3938 80.1433 18.9469 77.2433 18.9469H73.4225V10.4393ZM91.2622 29.2274C93.3513 29.2274 95.2892 28.1692 96.1689 26.4924H96.2376V29.0625H99.3162V18.3971C99.3162 15.3047 96.8423 13.3118 93.0352 13.3118C89.503 13.3118 86.8916 15.3322 86.7954 18.1085H89.7916C90.039 16.7891 91.2622 15.9232 92.939 15.9232C94.9731 15.9232 96.1139 16.8715 96.1139 18.617V19.799L91.9632 20.0464C88.1011 20.2801 86.012 21.8606 86.012 24.6094C86.012 27.3857 88.1698 29.2274 91.2622 29.2274ZM92.1556 26.6848C90.3826 26.6848 89.2556 25.8327 89.2556 24.527C89.2556 23.1801 90.3414 22.3967 92.4167 22.273L96.1139 22.0393V23.2488C96.1139 25.2554 94.4096 26.6848 92.1556 26.6848ZM103.426 34.89C106.669 34.89 108.195 33.653 109.528 29.9009L115.369 13.518H111.988L108.071 26.1763H108.002L104.085 13.518H100.608L106.243 29.1175L105.941 30.0658C105.432 31.6739 104.608 32.2924 103.137 32.2924C102.876 32.2924 102.367 32.2649 102.161 32.2374V34.8075C102.354 34.8625 103.178 34.89 103.426 34.89Z" fill="black"/>
</g>
<defs>
<clipPath id="clip0_26822_19108">
<rect width="70.3696" height="28.89" fill="white" transform="translate(45 6)"/>
</clipPath>
</defs>
</svg>
