<svg width="160" height="40" viewBox="0 0 160 40" fill="none" xmlns="http://www.w3.org/2000/svg">
<g clip-path="url(#clip0_26822_19123)">
<path fill-rule="evenodd" clip-rule="evenodd" d="M112.251 20.9295C112.251 16.3215 110.019 12.6855 105.753 12.6855C101.469 12.6855 98.877 16.3215 98.877 20.8935C98.877 26.3115 101.937 29.0475 106.329 29.0475C108.471 29.0475 110.091 28.5615 111.315 27.8775V24.2775C110.091 24.8895 108.687 25.2675 106.905 25.2675C105.159 25.2675 103.611 24.6555 103.413 22.5315H112.215C112.215 22.2975 112.251 21.3615 112.251 20.9295ZM103.359 19.2195C103.359 17.1855 104.601 16.3395 105.735 16.3395C106.833 16.3395 108.003 17.1855 108.003 19.2195H103.359Z" fill="#635BFF"/>
<path fill-rule="evenodd" clip-rule="evenodd" d="M91.932 12.6855C90.168 12.6855 89.034 13.5135 88.404 14.0895L88.17 12.9735H84.21V33.9615L88.71 33.0075L88.728 27.9135C89.376 28.3815 90.33 29.0475 91.914 29.0475C95.136 29.0475 98.07 26.4555 98.07 20.7495C98.052 15.5295 95.082 12.6855 91.932 12.6855ZM90.852 25.0875C89.79 25.0875 89.16 24.7095 88.728 24.2415L88.71 17.5635C89.178 17.0415 89.826 16.6815 90.852 16.6815C92.49 16.6815 93.624 18.5175 93.624 20.8755C93.624 23.2875 92.508 25.0875 90.852 25.0875Z" fill="#635BFF"/>
<path fill-rule="evenodd" clip-rule="evenodd" d="M78.0146 11.6231L82.5326 10.6511V6.99707L78.0146 7.95107V11.6231Z" fill="#635BFF"/>
<path d="M82.5326 12.9883H78.0146V28.7383H82.5326V12.9883Z" fill="#635BFF"/>
<path fill-rule="evenodd" clip-rule="evenodd" d="M73.1701 14.3227L72.8821 12.9907H68.9941V28.7407H73.4941V18.0667C74.5561 16.6807 76.3561 16.9327 76.9141 17.1307V12.9907C76.3381 12.7747 74.2321 12.3787 73.1701 14.3227Z" fill="#635BFF"/>
<path fill-rule="evenodd" clip-rule="evenodd" d="M64.1717 9.08594L59.7797 10.0219L59.7617 24.4399C59.7617 27.1039 61.7597 29.0659 64.4237 29.0659C65.8997 29.0659 66.9797 28.7959 67.5737 28.4719V24.8179C66.9977 25.0519 64.1537 25.8799 64.1537 23.2159V16.8259H67.5737V12.9919H64.1537L64.1717 9.08594Z" fill="#635BFF"/>
<path fill-rule="evenodd" clip-rule="evenodd" d="M52.0042 17.5635C52.0042 16.8615 52.5802 16.5915 53.5342 16.5915C54.9022 16.5915 56.6302 17.0055 57.9982 17.7435V13.5135C56.5042 12.9195 55.0282 12.6855 53.5342 12.6855C49.8802 12.6855 47.4502 14.5935 47.4502 17.7795C47.4502 22.7475 54.2902 21.9555 54.2902 24.0975C54.2902 24.9255 53.5702 25.1955 52.5622 25.1955C51.0682 25.1955 49.1602 24.5835 47.6482 23.7555V28.0395C49.3222 28.7595 51.0142 29.0655 52.5622 29.0655C56.3062 29.0655 58.8802 27.2115 58.8802 23.9895C58.8622 18.6255 52.0042 19.5795 52.0042 17.5635Z" fill="#635BFF"/>
</g>
<defs>
<clipPath id="clip0_26822_19123">
<rect width="64.8036" height="26.9712" fill="white" transform="translate(47.4434 7)"/>
</clipPath>
</defs>
</svg>
