<svg width="160" height="40" viewBox="0 0 160 40" fill="none" xmlns="http://www.w3.org/2000/svg">
<g clip-path="url(#clip0_26822_19095)">
<path d="M77.3535 20.7V30H74.3535V7H82.1535C84.0535 7 85.8535 7.7 87.2535 9C88.6535 10.2 89.3535 12 89.3535 13.9C89.3535 15.8 88.6535 17.5 87.2535 18.8C85.8535 20.1 84.1535 20.8 82.1535 20.8L77.3535 20.7ZM77.3535 9.8V17.8H82.3535C83.4535 17.8 84.5535 17.4 85.2535 16.6C86.8535 15.1 86.8535 12.6 85.3535 11.1L85.2535 11C84.4535 10.2 83.4535 9.7 82.3535 9.8H77.3535Z" fill="#5F6368"/>
<path d="M96.2535 13.7998C98.4535 13.7998 100.154 14.3998 101.454 15.5998C102.754 16.7998 103.354 18.3998 103.354 20.3998V29.9998H100.554V27.7998H100.454C99.2535 29.5998 97.5535 30.4998 95.5535 30.4998C93.8535 30.4998 92.3535 29.9998 91.1535 28.9998C90.0535 27.9998 89.3535 26.5998 89.3535 25.0998C89.3535 23.4998 89.9535 22.1998 91.1535 21.1998C92.3535 20.1998 94.0535 19.7998 96.0535 19.7998C97.8535 19.7998 99.2535 20.0998 100.354 20.7998V20.0998C100.354 19.0998 99.9535 18.0998 99.1535 17.4998C98.3535 16.7998 97.3535 16.3998 96.2535 16.3998C94.5535 16.3998 93.2535 17.0998 92.3535 18.4998L89.7535 16.8998C91.3535 14.7998 93.4535 13.7998 96.2535 13.7998ZM92.4535 25.1998C92.4535 25.9998 92.8535 26.6998 93.4535 27.0998C94.1535 27.5998 94.9535 27.8998 95.7535 27.8998C96.9535 27.8998 98.1535 27.3998 99.0535 26.4998C100.054 25.5998 100.554 24.4998 100.554 23.2998C99.6535 22.5998 98.3535 22.1998 96.6535 22.1998C95.4535 22.1998 94.4535 22.4998 93.6535 23.0998C92.8535 23.5998 92.4535 24.2998 92.4535 25.1998Z" fill="#5F6368"/>
<path d="M119.554 14.2998L109.654 36.9998H106.654L110.354 29.0998L103.854 14.3998H107.054L111.754 25.6998H111.854L116.454 14.3998H119.554V14.2998Z" fill="#5F6368"/>
<path d="M65.4539 18.7C65.4539 17.8 65.3539 16.9 65.2539 16H52.7539V21.1H59.8539C59.5539 22.7 58.6539 24.2 57.2539 25.1V28.4H61.5539C64.0539 26.1 65.4539 22.7 65.4539 18.7Z" fill="#4285F4"/>
<path d="M52.7541 31.6004C56.3541 31.6004 59.3541 30.4004 61.5541 28.4004L57.2541 25.1004C56.0541 25.9004 54.5541 26.4004 52.7541 26.4004C49.3541 26.4004 46.3541 24.1004 45.3541 20.9004H40.9541V24.3004C43.2541 28.8004 47.7541 31.6004 52.7541 31.6004Z" fill="#34A853"/>
<path d="M45.3533 20.9004C44.7533 19.3004 44.7533 17.5004 45.3533 15.8004V12.4004H40.9533C39.0533 16.1004 39.0533 20.5004 40.9533 24.3004L45.3533 20.9004Z" fill="#FBBC04"/>
<path d="M52.7537 10.3997C54.6537 10.3997 56.4537 11.0997 57.8537 12.3997L61.6537 8.59972C59.2537 6.39972 56.0537 5.09972 52.8537 5.19972C47.8537 5.19972 43.2537 7.99972 41.0537 12.4997L45.4537 15.8997C46.3537 12.6997 49.3537 10.3997 52.7537 10.3997Z" fill="#EA4335"/>
</g>
<defs>
<clipPath id="clip0_26822_19095">
<rect width="80" height="38.1" fill="white" transform="translate(39.5537 1)"/>
</clipPath>
</defs>
</svg>
