<svg width="120" height="23" viewBox="0 0 120 23" fill="none" xmlns="http://www.w3.org/2000/svg">
<path d="M101.859 18.0857V6.48882H104.656V7.94412H104.838C105.081 7.5803 105.376 7.26195 105.725 6.98908C106.074 6.71621 106.468 6.50398 106.907 6.35239C107.362 6.2008 107.847 6.125 108.363 6.125C109.212 6.125 109.932 6.32207 110.523 6.71622C111.129 7.11036 111.554 7.59546 111.796 8.17151C112.145 7.61062 112.638 7.1331 113.274 6.73895C113.926 6.32965 114.73 6.125 115.685 6.125C117.034 6.125 118.042 6.5343 118.709 7.35291C119.391 8.17151 119.732 9.26299 119.732 10.6273V18.0857H116.776V11.1731C116.776 10.4303 116.602 9.86936 116.253 9.49038C115.905 9.09624 115.435 8.89916 114.843 8.89916C114.328 8.89916 113.873 9.04318 113.479 9.33121C113.1 9.60407 112.804 9.99064 112.592 10.4909C112.395 10.9912 112.297 11.5748 112.297 12.2418V18.0857H109.318V11.1731C109.318 10.4303 109.136 9.86936 108.772 9.49038C108.423 9.09624 107.923 8.89916 107.271 8.89916C106.786 8.89916 106.354 9.04318 105.975 9.33121C105.611 9.60407 105.331 9.99064 105.134 10.4909C104.937 10.9912 104.838 11.5748 104.838 12.2418V18.0857H101.859Z" fill="white"/>
<path d="M93.4624 18.4496C92.2496 18.4496 91.1733 18.1843 90.2334 17.6537C89.3087 17.108 88.581 16.3727 88.0505 15.448C87.5351 14.5081 87.2773 13.4546 87.2773 12.2873C87.2773 11.12 87.5351 10.074 88.0505 9.14929C88.581 8.20941 89.3087 7.47418 90.2334 6.94361C91.1733 6.39787 92.2496 6.125 93.4624 6.125C94.6751 6.125 95.7438 6.39787 96.6686 6.94361C97.5933 7.48934 98.3134 8.22457 98.8288 9.14929C99.3594 10.074 99.6246 11.12 99.6246 12.2873C99.6246 13.4546 99.3594 14.5081 98.8288 15.448C98.3134 16.3727 97.5933 17.108 96.6686 17.6537C95.7438 18.1843 94.6751 18.4496 93.4624 18.4496ZM93.4624 15.6754C94.0384 15.6754 94.5614 15.5465 95.0314 15.2888C95.5165 15.016 95.903 14.6294 96.191 14.1291C96.4942 13.6137 96.6458 12.9998 96.6458 12.2873C96.6458 11.5748 96.4942 10.9684 96.191 10.4682C95.903 9.9679 95.5165 9.58133 95.0314 9.30847C94.5614 9.0356 94.046 8.89916 93.4851 8.89916C92.909 8.89916 92.3709 9.0356 91.8706 9.30847C91.3855 9.58133 90.9914 9.9679 90.6882 10.4682C90.4002 10.9684 90.2562 11.5748 90.2562 12.2873C90.2562 12.9998 90.4002 13.6137 90.6882 14.1291C90.9914 14.6294 91.3855 15.016 91.8706 15.2888C92.3709 15.5465 92.9015 15.6754 93.4624 15.6754Z" fill="white"/>
<path d="M80.6917 18.4496C79.5093 18.4496 78.4557 18.1919 77.531 17.6764C76.6214 17.1459 75.9014 16.4182 75.3708 15.4935C74.8554 14.5536 74.5977 13.4849 74.5977 12.2873C74.5977 11.0897 74.8554 10.0285 75.3708 9.10381C75.9014 8.17909 76.6214 7.45144 77.531 6.92087C78.4557 6.39029 79.5093 6.125 80.6917 6.125C81.9803 6.125 83.0869 6.39787 84.0116 6.94361C84.9363 7.48934 85.6034 8.27763 86.0127 9.30847L83.284 10.4454C83.0414 9.91484 82.7003 9.52828 82.2607 9.28573C81.8211 9.02802 81.2981 8.89916 80.6917 8.89916C80.1005 8.89916 79.5699 9.04318 79.1 9.33121C78.63 9.60407 78.2586 9.99064 77.9858 10.4909C77.7129 10.9912 77.5765 11.5899 77.5765 12.2873C77.5765 12.9846 77.7129 13.591 77.9858 14.1064C78.2586 14.6067 78.63 15.0008 79.1 15.2888C79.5699 15.5617 80.1005 15.6981 80.6917 15.6981C81.3587 15.6981 81.912 15.5541 82.3517 15.2661C82.7913 14.9629 83.1475 14.5536 83.4204 14.0382L86.0809 15.2206C85.6261 16.1908 84.9363 16.9715 84.0116 17.5627C83.0869 18.154 81.9803 18.4496 80.6917 18.4496Z" fill="white"/>
<path d="M70.9041 18.2229C70.3583 18.2229 69.8884 18.0334 69.4943 17.6544C69.1153 17.2603 68.9258 16.7904 68.9258 16.2446C68.9258 15.6989 69.1153 15.2365 69.4943 14.8575C69.8884 14.4786 70.3583 14.2891 70.9041 14.2891C71.4498 14.2891 71.9122 14.4786 72.2912 14.8575C72.6853 15.2365 72.8824 15.6989 72.8824 16.2446C72.8824 16.7904 72.6853 17.2603 72.2912 17.6544C71.9122 18.0334 71.4498 18.2229 70.9041 18.2229Z" fill="white"/>
<path d="M61.9963 22.4777C61.9508 22.5839 61.9053 22.6748 61.8598 22.7506C61.8295 22.8416 61.7992 22.9249 61.7689 23.0007H58.5627C58.6233 22.8795 58.737 22.6217 58.9038 22.2276C59.0857 21.8486 59.2373 21.5227 59.3585 21.2498C59.4495 21.0679 59.5556 20.8329 59.6769 20.5449C59.7982 20.2569 59.9194 19.9689 60.0407 19.6808C60.1772 19.408 60.2833 19.1957 60.3591 19.0441L62.11 15.1558L62.7239 13.7005L65.6118 6.49219H68.9317L62.9513 20.272C62.7846 20.6662 62.633 21.0073 62.4965 21.2953C62.3753 21.5833 62.2767 21.8183 62.2009 22.0002C62.1251 22.1973 62.0569 22.3565 61.9963 22.4777ZM61.2004 17.9072L56.1523 6.49219H59.5405L62.542 13.7005H62.8831L61.2004 17.9072Z" fill="white"/>
<path d="M48.1947 18.4496C47.1487 18.4496 46.2012 18.1919 45.3523 17.6764C44.5034 17.1459 43.8288 16.4182 43.3285 15.4935C42.8283 14.5688 42.5781 13.5 42.5781 12.2873C42.5781 11.3777 42.7221 10.5515 43.0102 9.80872C43.2982 9.05076 43.6923 8.3989 44.1926 7.85317C44.708 7.30743 45.3068 6.88297 45.989 6.57978C46.6712 6.27659 47.4064 6.125 48.1947 6.125C48.7556 6.125 49.2634 6.20838 49.7182 6.37513C50.173 6.54188 50.5671 6.76169 50.9006 7.03456C51.2341 7.30743 51.4918 7.59546 51.6737 7.89865H51.8557V6.48882H54.6298V18.0857H51.8557V16.6987H51.6737C51.3857 17.1534 50.9461 17.5627 50.3549 17.9266C49.7637 18.2752 49.0436 18.4496 48.1947 18.4496ZM48.6949 15.6981C49.2558 15.6981 49.7712 15.5541 50.2412 15.2661C50.7263 14.9781 51.1128 14.5839 51.4009 14.0837C51.7041 13.5682 51.8557 12.9695 51.8557 12.2873C51.8557 11.6051 51.7041 11.0139 51.4009 10.5136C51.1128 9.99822 50.7263 9.60407 50.2412 9.33121C49.7712 9.04318 49.2558 8.89916 48.6949 8.89916C48.1492 8.89916 47.6338 9.04318 47.1487 9.33121C46.6787 9.60407 46.2922 9.99064 45.989 10.4909C45.701 10.9912 45.5569 11.5899 45.5569 12.2873C45.5569 12.9695 45.701 13.5682 45.989 14.0837C46.2922 14.5991 46.6787 15.0008 47.1487 15.2888C47.6338 15.5617 48.1492 15.6981 48.6949 15.6981Z" fill="white"/>
<path d="M30.3672 18.0858V1.80469H36.0974C37.1434 1.80469 38.0833 2.0245 38.9171 2.46412C39.7508 2.88858 40.4103 3.48738 40.8954 4.2605C41.3956 5.03363 41.6458 5.92803 41.6458 6.94371C41.6458 7.95939 41.3956 8.86137 40.8954 9.64966C40.4103 10.4228 39.7508 11.0292 38.9171 11.4688C38.0833 11.8932 37.1434 12.1055 36.0974 12.1055H32.0726V9.19488H36.1884C36.719 9.19488 37.1662 9.08876 37.53 8.87653C37.8938 8.6643 38.1667 8.39143 38.3486 8.05792C38.5305 7.70926 38.6215 7.33785 38.6215 6.94371C38.6215 6.54957 38.5305 6.18574 38.3486 5.85224C38.1667 5.51873 37.8938 5.24586 37.53 5.03363C37.1662 4.8214 36.719 4.71529 36.1884 4.71529H33.437V18.0858H30.3672Z" fill="white"/>
<path d="M0 1.90735e-05H6.59384L6.59157 0.00193405L15.4371 11.2642C15.578 11.4419 15.578 11.6788 15.4371 11.8545L8.46156 20.6719H4.33985V15.9027L13.4058 12.0812C13.867 11.8872 13.833 11.2887 13.3535 11.1376L0 6.90963V1.90735e-05Z" fill="#0053EF"/>
<path d="M20.161 6.32549H23.0624V16.9014H20.2428L16.2597 11.8524C16.1188 11.6768 16.1188 11.4398 16.2597 11.2621L20.161 6.32549Z" fill="#0053EF"/>
</svg>
