<svg width="160" height="40" viewBox="0 0 160 40" fill="none" xmlns="http://www.w3.org/2000/svg">
<path d="M53.1493 12.6555C49.3852 12.6555 46.4376 15.7406 46.4376 19.6799C46.4376 23.6193 49.3852 26.6085 53.1493 26.6085C56.9134 26.6085 59.8609 23.5642 59.8609 19.6799C59.8609 15.7956 56.9134 12.6555 53.1493 12.6555ZM53.1493 23.7779C51.1517 23.7779 49.6469 22.017 49.6469 19.6815C49.6469 17.3461 51.1533 15.4892 53.1493 15.4892C55.1452 15.4892 56.6761 17.2911 56.6761 19.6815C56.6761 22.072 55.1595 23.7779 53.1493 23.7779ZM76.1566 7.05957H73.6498C73.4427 7.05957 73.275 7.22736 73.275 7.43443V25.8321C73.275 26.0383 73.4435 26.2069 73.6498 26.2069H76.1566C76.3637 26.2069 76.5314 26.0391 76.5314 25.8321V7.43443C76.5314 7.22817 76.3637 7.05957 76.1566 7.05957ZM70.7257 12.9964C70.1334 12.8744 69.1541 12.657 67.6729 12.657C65.086 12.657 62.4872 13.458 62.4872 17.5471V25.8336C62.4872 26.0406 62.6549 26.2084 62.862 26.2084H65.3712C65.5783 26.2084 65.746 26.0406 65.746 25.8336V17.6194C65.746 17.0215 65.8503 15.5299 68.0901 15.5299C69.0205 15.5299 69.9234 15.6817 70.1104 15.7106C70.3087 15.7427 70.4836 15.6624 70.5366 15.4698L71.0799 13.4415C71.1441 13.2095 70.9994 13.051 70.7257 12.9964ZM44.9618 13.0607H42.2852C42.1191 13.0607 41.9739 13.1722 41.9313 13.3327L39.3837 22.3336L37.0499 14.326C36.8444 13.5836 36.1603 13.0616 35.3862 13.0616H34.5604C33.7859 13.0616 33.1018 13.5817 32.8968 14.326L30.5629 22.3336L28.0153 13.3327C27.9752 13.173 27.8275 13.0607 27.6613 13.0607H24.9848C24.7344 13.0607 24.5506 13.3054 24.6284 13.5486L28.2809 24.9894C28.5145 25.7198 29.1846 26.209 29.95 26.209H31.0283C31.7987 26.209 32.4891 25.693 32.709 24.9542L34.9753 17.2947L37.2416 24.9542C37.4607 25.6925 38.1508 26.209 38.9225 26.209H40.0006C40.7663 26.209 41.4364 25.7194 41.6697 24.9894L45.3223 13.5486C45.4025 13.3038 45.2106 13.0607 44.9618 13.0607ZM134.624 13.0607H132.066C132.066 13.0607 131.766 13.0606 131.667 13.311L128.157 22.5846L124.644 13.2938C124.588 13.1485 124.433 13.0586 124.277 13.0586H121.718C121.368 13.0586 121.254 13.3451 121.338 13.5691L126.472 26.4503L124.397 31.6909C124.295 31.951 124.405 32.2037 124.745 32.2037H127.273C127.427 32.2037 127.565 32.1122 127.622 31.967L134.969 13.6007C135.102 13.2828 134.879 13.0607 134.624 13.0607ZM90.8845 7.06165H88.3777C88.1706 7.06165 88.0029 7.22945 88.0029 7.43651V12.9531C87.5165 12.8503 86.6551 12.6577 85.2517 12.6577C80.2624 12.6577 79.2197 17.1472 79.2197 19.6005C79.2197 25.0242 82.4801 26.6123 85.5283 26.6123C88.1286 26.6123 89.8974 25.9927 90.7469 25.619C91.2589 25.3983 91.259 25.0998 91.259 24.8373V7.43688C91.259 7.23062 91.0907 7.06165 90.8845 7.06165ZM88.0037 23.4901C88.0037 23.4901 87.0119 23.783 85.8945 23.783C83.2722 23.783 82.6396 21.9269 82.6396 19.725C82.6396 18.9401 82.5577 15.5169 85.7703 15.5169C86.8649 15.5169 88.0029 15.8178 88.0029 15.8178L88.0037 23.4901ZM114.515 12.6576C112.291 12.6576 111.041 12.9489 109.828 13.29C109.505 13.3823 109.368 13.6053 109.461 13.9705L109.835 15.4912C109.884 15.7103 110.086 16.0088 110.447 15.9173C111.226 15.7247 112.422 15.3443 114.174 15.3443C115.927 15.3443 116.381 15.9968 116.381 17.5611H114.215C109.608 17.5611 108.326 19.9924 108.326 21.983C108.326 24.4936 109.548 26.6113 113.883 26.6113C117.148 26.6113 118.774 25.787 119.139 25.5961C119.434 25.442 119.613 25.3232 119.613 24.8095V17.2248C119.613 13.7963 117.584 12.6576 114.515 12.6576ZM116.355 23.6857C116.355 23.6857 115.353 24.0196 113.988 24.0196C112.109 24.0196 111.572 23.079 111.572 22.103C111.572 20.8598 112.391 20.0575 114.185 20.0575H116.354L116.355 23.6857ZM100.034 12.6576C97.4335 12.6576 95.6646 13.2771 94.8151 13.6507C94.3031 13.8715 94.3031 14.1701 94.3031 14.4325V31.8313C94.3031 32.0375 94.4708 32.2061 94.6779 32.2061H97.1846C97.3909 32.2061 97.5595 32.0375 97.5595 31.8313V26.3148C98.0458 26.4176 98.9071 26.6102 100.311 26.6102C105.3 26.6102 106.343 22.1208 106.343 19.6674C106.343 14.2438 103.082 12.6576 100.034 12.6576ZM99.7922 23.7518C98.6976 23.7518 97.5589 23.4508 97.5589 23.4508V15.778C97.5589 15.778 98.5506 15.4851 99.668 15.4851C102.29 15.4851 102.923 17.3412 102.923 19.5431C102.923 20.3281 103.005 23.7518 99.7922 23.7518Z" fill="#FF1F3E"/>
</svg>
