<svg width="160" height="40" viewBox="0 0 160 40" fill="none" xmlns="http://www.w3.org/2000/svg">
<g clip-path="url(#clip0_26822_19111)">
<path d="M66.4588 11.9102H60.4715C60.0618 11.9102 59.7134 12.2078 59.6495 12.6123L57.228 27.9651C57.1798 28.268 57.4144 28.5412 57.7217 28.5412H60.5801C60.9898 28.5412 61.3382 28.2435 61.4021 27.8382L62.0552 23.6973C62.1183 23.2919 62.4676 22.9943 62.8764 22.9943H64.7718C68.7157 22.9943 70.9919 21.0858 71.5863 17.3038C71.8542 15.6492 71.5977 14.3492 70.8229 13.4387C69.972 12.4389 68.4627 11.9102 66.4588 11.9102ZM67.1495 17.5174C66.8221 19.6658 65.1806 19.6658 63.5934 19.6658H62.6899L63.3238 15.6536C63.3614 15.4111 63.5715 15.2325 63.8166 15.2325H64.2307C65.3119 15.2325 66.3318 15.2325 66.8588 15.8488C67.1731 16.2165 67.2694 16.7628 67.1495 17.5174Z" fill="#253B80"/>
<path d="M84.3596 17.4454H81.4925C81.2482 17.4454 81.0372 17.624 80.9996 17.8665L80.8727 18.6684L80.6722 18.3778C80.0515 17.4769 78.6674 17.1758 77.2859 17.1758C74.1177 17.1758 71.4116 19.5754 70.8846 22.9415C70.6106 24.6206 71.0002 26.2262 71.9527 27.3459C72.8264 28.3755 74.0765 28.8044 75.5639 28.8044C78.1167 28.8044 79.5323 27.163 79.5323 27.163L79.4045 27.9596C79.3564 28.2643 79.591 28.5374 79.8965 28.5374H82.4791C82.8897 28.5374 83.2364 28.2398 83.3012 27.8344L84.8507 18.0215C84.8997 17.7194 84.666 17.4454 84.3596 17.4454ZM80.3631 23.0256C80.0865 24.6635 78.7865 25.7631 77.1283 25.7631C76.2958 25.7631 75.6304 25.4961 75.2032 24.9901C74.7795 24.4876 74.6184 23.7723 74.7532 22.9757C75.0115 21.3517 76.3334 20.2162 77.9662 20.2162C78.7803 20.2162 79.4422 20.4868 79.8781 20.9971C80.315 21.5128 80.4883 22.2324 80.3631 23.0256Z" fill="#253B80"/>
<path d="M99.6258 17.4502H96.7447C96.4698 17.4502 96.2115 17.5868 96.0557 17.8153L92.082 23.6685L90.3976 18.0438C90.2917 17.6918 89.9669 17.4502 89.5992 17.4502H86.768C86.424 17.4502 86.185 17.7864 86.2944 18.1103L89.4679 27.4234L86.4844 31.6352C86.2497 31.967 86.4861 32.4231 86.8915 32.4231H89.7691C90.0422 32.4231 90.2978 32.29 90.4528 32.0659L100.036 18.2337C100.265 17.9028 100.029 17.4502 99.6258 17.4502Z" fill="#253B80"/>
<path d="M109.166 11.9102H103.178C102.769 11.9102 102.42 12.2078 102.357 12.6123L99.935 27.9651C99.8868 28.268 100.121 28.5412 100.427 28.5412H103.5C103.785 28.5412 104.03 28.3328 104.074 28.0492L104.761 23.6973C104.824 23.2919 105.174 22.9943 105.583 22.9943H107.477C111.422 22.9943 113.697 21.0858 114.292 17.3038C114.561 15.6492 114.303 14.3492 113.528 13.4387C112.678 12.4389 111.17 11.9102 109.166 11.9102ZM109.857 17.5174C109.53 19.6658 107.889 19.6658 106.3 19.6658H105.398L106.033 15.6536C106.07 15.4111 106.279 15.2325 106.525 15.2325H106.939C108.019 15.2325 109.04 15.2325 109.567 15.8488C109.881 16.2165 109.976 16.7628 109.857 17.5174Z" fill="#179BD7"/>
<path d="M127.056 17.4454H124.191C123.945 17.4454 123.735 17.624 123.699 17.8665L123.572 18.6684L123.37 18.3778C122.75 17.4769 121.366 17.1758 119.985 17.1758C116.817 17.1758 114.112 19.5754 113.585 22.9415C113.311 24.6206 113.699 26.2262 114.652 27.3459C115.527 28.3755 116.776 28.8044 118.263 28.8044C120.816 28.8044 122.231 27.163 122.231 27.163L122.104 27.9596C122.055 28.2643 122.29 28.5374 122.597 28.5374H125.179C125.588 28.5374 125.936 28.2398 126 27.8344L127.551 18.0215C127.598 17.7194 127.363 17.4454 127.056 17.4454ZM123.06 23.0256C122.785 24.6635 121.483 25.7631 119.825 25.7631C118.994 25.7631 118.327 25.4961 117.9 24.9901C117.476 24.4876 117.317 23.7723 117.45 22.9757C117.71 21.3517 119.03 20.2162 120.663 20.2162C121.477 20.2162 122.139 20.4868 122.575 20.9971C123.013 21.5128 123.187 22.2324 123.06 23.0256Z" fill="#179BD7"/>
<path d="M130.447 12.3321L127.99 27.966C127.942 28.2689 128.176 28.542 128.482 28.542H130.952C131.363 28.542 131.711 28.2444 131.774 27.8391L134.198 12.4871C134.246 12.1842 134.011 11.9102 133.706 11.9102H130.939C130.695 11.911 130.485 12.0896 130.447 12.3321Z" fill="#179BD7"/>
<path d="M32.3697 31.523L32.8276 28.6148L31.8077 28.5911H26.9375L30.322 7.13111C30.3325 7.06632 30.3667 7.00592 30.4166 6.96302C30.4665 6.92012 30.5304 6.89648 30.5969 6.89648H38.8087C41.5348 6.89648 43.4162 7.46378 44.3984 8.58349C44.8589 9.10876 45.1522 9.65767 45.294 10.2617C45.4429 10.8956 45.4455 11.6528 45.3002 12.5764L45.2897 12.6438V13.2357L45.7501 13.4965C46.138 13.7023 46.4461 13.9378 46.6825 14.2074C47.0765 14.6565 47.3312 15.2273 47.4389 15.904C47.5501 16.6 47.5133 17.4282 47.3312 18.3658C47.1211 19.4444 46.7814 20.3837 46.3227 21.1524C45.9007 21.8606 45.3632 22.4481 44.725 22.9033C44.1157 23.3358 43.3917 23.6641 42.5731 23.8742C41.78 24.0808 40.8756 24.185 39.8837 24.185H39.2446C38.7877 24.185 38.3438 24.3495 37.9954 24.6446C37.6461 24.9457 37.4149 25.3572 37.344 25.8072L37.2959 26.0689L36.487 31.1947L36.4502 31.3829C36.4406 31.4425 36.4239 31.4722 36.3994 31.4924C36.3775 31.5108 36.346 31.523 36.3154 31.523H32.3697Z" fill="#253B80"/>
<path d="M46.1837 12.7109C46.1592 12.8676 46.1312 13.0279 46.0997 13.1924C45.0167 18.7524 41.3118 20.6732 36.58 20.6732H34.1707C33.592 20.6732 33.1044 21.0934 33.0142 21.6642L31.7807 29.4873L31.4314 31.7048C31.3728 32.0795 31.6617 32.4174 32.0399 32.4174H36.3129C36.819 32.4174 37.2488 32.0497 37.3285 31.5507L37.3705 31.3336L38.175 26.228L38.2267 25.9478C38.3055 25.4471 38.7362 25.0794 39.2422 25.0794H39.8813C44.0213 25.0794 47.2623 23.3985 48.2095 18.5345C48.6052 16.5025 48.4004 14.8059 47.3533 13.6127C47.0364 13.2528 46.6433 12.9543 46.1837 12.7109Z" fill="#179BD7"/>
<path d="M45.0562 12.2559C44.8907 12.2077 44.72 12.164 44.5449 12.1246C44.3689 12.0861 44.1886 12.0519 44.003 12.0221C43.3534 11.9171 42.6417 11.8672 41.8791 11.8672H35.4428C35.2843 11.8672 35.1338 11.9031 34.9989 11.9679C34.7022 12.1106 34.4815 12.3916 34.4281 12.7356L33.0589 21.4079L33.0195 21.6609C33.1097 21.0901 33.5973 20.6699 34.176 20.6699H36.5853C41.3171 20.6699 45.022 18.7483 46.1049 13.1891C46.1373 13.0245 46.1645 12.8643 46.189 12.7076C45.915 12.5623 45.6182 12.438 45.2987 12.3321C45.2199 12.3058 45.1384 12.2804 45.0562 12.2559Z" fill="#222D65"/>
<path d="M34.4195 12.744C34.4729 12.4 34.6936 12.119 34.9903 11.9771C35.126 11.9123 35.2757 11.8765 35.4342 11.8765H41.8705C42.6331 11.8765 43.3448 11.9264 43.9944 12.0314C44.18 12.0612 44.3603 12.0953 44.5363 12.1338C44.7114 12.1732 44.8821 12.217 45.0476 12.2652C45.1298 12.2897 45.2113 12.3151 45.2909 12.3404C45.6105 12.4464 45.9073 12.5716 46.1813 12.716C46.5034 10.6613 46.1786 9.26235 45.0677 7.99557C43.8429 6.60097 41.6324 6.00391 38.8038 6.00391H30.5921C30.0143 6.00391 29.5214 6.42412 29.4321 6.9958L26.0117 28.6764C25.9443 29.1054 26.2752 29.4924 26.7077 29.4924H31.7774L33.0503 21.4163L34.4195 12.744Z" fill="#253B80"/>
</g>
<defs>
<clipPath id="clip0_26822_19111">
<rect width="108.556" height="28.89" fill="white" transform="translate(26 6)"/>
</clipPath>
</defs>
</svg>
