<svg width="160" height="40" viewBox="0 0 160 40" fill="none" xmlns="http://www.w3.org/2000/svg">
<path d="M35.5909 9.85495C34.8063 9.41266 33.8845 9.19124 32.8255 9.19124H26V26.0802H28.9657V19.6019H32.8255C33.8845 19.6019 34.8063 19.381 35.5909 18.9382C36.3755 18.4959 36.9754 17.8825 37.3912 17.0988C37.807 16.3149 38.0149 15.4159 38.0149 14.4024C38.0149 13.3888 37.8065 12.4882 37.3912 11.6999C36.9754 10.9117 36.375 10.2967 35.5909 9.85439V9.85495ZM34.7436 15.7116C34.5633 16.1018 34.2868 16.4112 33.9142 16.6404C33.5416 16.8696 33.0729 16.9842 32.508 16.9842H28.9657V11.809H32.508C33.3396 11.809 33.9655 12.0526 34.3851 12.5391C34.8046 13.0257 35.0147 13.6468 35.0147 14.4029C35.0147 14.8856 34.9245 15.3219 34.7442 15.7121L34.7436 15.7116ZM59.6634 13.9202L54.6976 28.0104C54.3369 29.0394 53.8623 29.7956 53.2737 30.2783C52.6851 30.7604 51.9517 31.0018 51.0732 31.0018H49.5622V28.6497H50.8615C51.2692 28.6497 51.6067 28.503 51.8734 28.2097C52.1402 27.9157 52.6111 26.6713 52.7288 26.2733L48.3316 13.9202H51.2028L54.0507 22.642C54.2392 21.9263 56.8435 13.9202 56.8435 13.9202H59.664H59.6634ZM68.3482 20.0664C68.8504 20.585 69.1015 21.3793 69.1015 22.4488C69.1015 23.1889 68.9114 23.8482 68.5307 24.4272C68.15 25.0062 67.6381 25.459 66.995 25.7845C66.3519 26.11 65.6531 26.2733 64.9003 26.2733H63.9354C63.1588 26.2733 62.4347 26.12 61.764 25.815C61.0933 25.5094 60.5485 25.0876 60.1694 24.4881C59.7795 23.8714 59.5965 23.0489 59.5808 22.2927H62.311C62.358 22.7832 62.4417 23.391 62.776 23.6799C63.1518 24.0049 63.5271 24.0901 63.9586 24.0901H64.7589C65.1979 24.0901 65.5667 23.9778 65.8648 23.7525C66.1629 23.5272 66.3119 23.1773 66.3119 22.7029C66.3119 22.301 66.198 21.9894 65.9706 21.768C65.7427 21.5471 65.3939 21.3921 64.923 21.3035L62.6518 20.8452C61.7025 20.652 60.9789 20.2601 60.4804 19.6689C59.982 19.0777 59.7331 18.3282 59.7331 17.4192C59.7331 16.7118 59.9172 16.0763 60.286 15.5134C60.6549 14.9504 61.149 14.5164 61.7689 14.2103C62.3888 13.9047 63.0557 13.752 63.7696 13.752H64.6757C65.3971 13.752 66.0684 13.9009 66.6883 14.1981C67.3082 14.4959 67.8099 14.9161 68.1943 15.4585C68.5788 16.0016 68.7786 16.9886 68.7942 17.696H66.1348C66.1029 17.2781 66.0333 16.6836 65.6936 16.352C65.3685 16.0342 65.0202 15.923 64.6282 15.923H63.863C63.4629 15.923 63.1335 16.0337 62.8743 16.2546C62.6156 16.476 62.486 16.7793 62.486 17.1652C62.486 17.479 62.594 17.7525 62.8095 17.9855C63.0249 18.2186 63.3408 18.3796 63.7566 18.4682L66.0748 18.9631C67.0868 19.1806 67.8439 19.5482 68.346 20.0669L68.3482 20.0664ZM80.0127 23.3959C79.9187 23.2636 79.8712 23.0605 79.8712 22.7871V18.2634C79.8712 17.4192 79.6947 16.6492 79.3415 15.9534C78.9883 15.2582 78.4786 14.7129 77.8117 14.3188C77.1448 13.9247 76.3602 13.7276 75.4578 13.7276H74.5987C73.7984 13.7276 73.0532 13.8987 72.3625 14.2402C71.6719 14.5823 71.107 15.0666 70.668 15.6938C70.2285 16.321 70.0481 16.8922 69.9855 17.6966H72.7508C72.7902 17.1336 72.9155 16.812 73.2687 16.4904C73.6213 16.1688 74.0808 16.032 74.5987 16.032H75.4578C75.7559 16.032 76.0345 16.1228 76.2932 16.3033C76.5519 16.4843 76.756 16.7378 76.905 17.0633C77.0541 17.3888 77.1286 17.7531 77.1286 18.1549V18.3968L73.9863 18.879C72.7233 19.0882 71.7129 19.5106 70.9558 20.1455C70.1988 20.781 69.8202 21.6495 69.8202 22.7511C69.8202 23.4591 69.9828 24.0785 70.3084 24.6088C70.634 25.1397 71.0946 25.5498 71.6913 25.8393C72.2875 26.1288 72.9776 26.2739 73.7628 26.2739C74.6019 26.2739 75.3433 26.1051 75.987 25.7674C76.6302 25.4297 77.1048 24.9675 77.411 24.3802C77.4423 24.9675 77.6286 25.3976 77.9699 25.6711C78.3112 25.9445 78.7756 26.0812 79.3642 26.0812H81.2115V23.7048C80.8583 23.7048 80.5932 23.6871 80.4171 23.6506C80.2405 23.6146 80.105 23.5305 80.011 23.3971L80.0127 23.3959ZM77.1297 21.0378C77.1297 21.6329 77.0098 22.1599 76.7706 22.6182C76.5313 23.0766 76.1938 23.4325 75.7586 23.686C75.3228 23.9395 74.8228 24.0658 74.2579 24.0658C73.779 24.0658 73.3869 23.9335 73.0813 23.6677C72.7751 23.4026 72.6223 23.0566 72.6223 22.6304C72.6223 22.0995 72.7929 21.7115 73.1342 21.4663C73.4755 21.2211 74.0031 21.0339 74.7169 20.9055L77.1291 20.4472V21.0384L77.1297 21.0378ZM49.6681 23.7037C49.3149 23.7037 49.0498 23.686 48.8737 23.6495C48.6972 23.6135 48.5616 23.5294 48.4677 23.3959C48.3737 23.2636 48.3262 23.0605 48.3262 22.7871V18.2634C48.3262 17.4192 48.1496 16.6492 47.7964 15.9534C47.4433 15.2582 46.9335 14.7129 46.2666 14.3188C45.5997 13.9247 44.8151 13.7276 43.9128 13.7276H43.0537C42.2534 13.7276 41.5082 13.8987 40.8175 14.2402C40.1269 14.5823 39.562 15.0666 39.123 15.6938C38.6835 16.321 38.5031 16.8922 38.4405 17.6966H41.2058C41.2452 17.1336 41.3705 16.812 41.7237 16.4904C42.0763 16.1688 42.5358 16.032 43.0537 16.032H43.9128C44.2108 16.032 44.4895 16.1228 44.7481 16.3033C45.0068 16.4843 45.2109 16.7378 45.36 17.0633C45.509 17.3888 45.5835 17.7531 45.5835 18.1549V18.3968L42.4413 18.879C41.1783 19.0882 40.1679 19.5106 39.4108 20.1455C38.6538 20.781 38.2752 21.6495 38.2752 22.7511C38.2752 23.4591 38.4378 24.0785 38.7634 24.6088C39.089 25.1397 39.5496 25.5498 40.1463 25.8393C40.7425 26.1288 41.4326 26.2739 42.2178 26.2739C43.0569 26.2739 43.7983 26.1051 44.442 25.7674C45.0851 25.4297 45.5598 24.9675 45.8659 24.3802C45.8973 24.9675 46.0836 25.3976 46.4248 25.6711C46.7661 25.9445 47.2305 26.0812 47.8191 26.0812H49.6665V23.7048L49.6681 23.7037ZM45.5846 21.0378C45.5846 21.6329 45.4647 22.1599 45.2255 22.6182C44.9863 23.0766 44.6488 23.4325 44.2135 23.686C43.7778 23.9395 43.2778 24.0658 42.7129 24.0658C42.234 24.0658 41.8419 23.9335 41.5363 23.6677C41.2301 23.4026 41.0773 23.0566 41.0773 22.6304C41.0773 22.0995 41.2479 21.7115 41.5892 21.4663C41.9305 21.2211 42.4581 21.0339 43.1719 20.9055L45.5841 20.4472V21.0384L45.5846 21.0378ZM88.7372 16.2729H85.5131V26.0802H82.7478V16.2729H80.4414V13.9202H82.7478V12.7744C82.7478 11.6086 83.034 10.7196 83.6069 10.1085C84.1793 9.49735 84.9834 9.19179 86.0192 9.19179H88.7372V11.5444H86.8544C86.399 11.5444 86.0618 11.6673 85.8425 11.9125C85.6227 12.1577 85.5131 12.5336 85.5131 13.0406V13.9213H88.7372V16.2739V16.2729ZM97.2218 14.5114C96.4844 13.9889 95.6528 13.727 94.727 13.727H93.821C92.9426 13.727 92.1086 13.9822 91.3202 14.4932C90.5318 15.0041 89.894 15.7381 89.408 16.6947C88.9214 17.6517 88.6784 18.7417 88.6784 19.9639C88.6784 21.1862 88.904 22.2661 89.3552 23.2271C89.8058 24.1881 90.4298 24.936 91.226 25.4707C92.0222 26.0054 92.903 26.2728 93.8678 26.2728H94.739C95.5622 26.2728 96.3218 26.0874 97.016 25.7176C97.7108 25.3478 98.2808 24.8391 98.7284 24.1914C99.1754 23.5443 99.4382 22.8225 99.5168 22.0259H96.8804C96.7784 22.5568 96.5336 23.0013 96.1454 23.3589C95.7566 23.717 95.2958 23.8958 94.7624 23.8958H93.8912C93.4358 23.8958 93.0224 23.7331 92.6498 23.407C92.2772 23.0815 91.9808 22.6149 91.7612 22.0077C91.6094 21.5886 91.5122 21.1236 91.4648 20.6143H99.5756C99.5846 20.5297 99.6224 19.8466 99.6224 19.5648C99.6224 18.5037 99.4064 17.5261 98.975 16.6332C98.5436 15.7409 97.9592 15.0329 97.2218 14.5103V14.5114ZM91.5692 18.5286C91.6244 18.2739 91.6964 18.0326 91.7852 17.8051C92.0204 17.2023 92.3282 16.7439 92.7092 16.4301C93.089 16.1167 93.488 15.9595 93.9038 15.9595H94.727C95.096 15.9595 95.441 16.0725 95.7626 16.2972C96.0848 16.5225 96.341 16.8342 96.5336 17.2321C96.725 17.6301 96.8294 18.0625 96.845 18.5291H91.5686L91.5692 18.5286ZM134 17.7276V17.7375C134 17.8317 133.963 17.9224 133.899 17.9889L125.679 26.4145C125.647 26.4477 125.602 26.4665 125.557 26.4665H125.505C125.409 26.4665 125.331 26.3868 125.331 26.2888V17.7375C125.331 17.8317 125.295 17.9224 125.23 17.9889L117.061 26.3625C116.997 26.4289 116.908 26.4665 116.816 26.4665H116.806C116.715 26.4665 116.626 26.4289 116.562 26.3625L108.393 17.9889C108.328 17.9224 108.291 17.8317 108.291 17.7375V17.7276C108.291 17.6335 108.328 17.5427 108.393 17.4763L116.56 9.10212C116.625 9.03569 116.713 8.99805 116.805 8.99805H116.815C116.907 8.99805 116.995 9.03569 117.06 9.10212L125.229 17.4757C125.293 17.5422 125.331 17.6329 125.331 17.727V9.17574C125.331 9.07776 125.408 8.99805 125.503 8.99805H125.556C125.601 8.99805 125.646 9.01687 125.678 9.05008L133.897 17.4757C133.962 17.5422 133.999 17.6329 133.999 17.727L134 17.7276Z" fill="black"/>
</svg>
