<svg width="152" height="30" viewBox="0 0 152 30" fill="none" xmlns="http://www.w3.org/2000/svg">
<path fill-rule="evenodd" clip-rule="evenodd" d="M56.5889 17.7084L55.6743 20.783H46.4115V20.3549L47.618 19.5376V9.67149L46.4115 8.85418V8.36769H56.1024L56.3165 8.58175L55.7132 11.3645H55.2851C54.8959 9.65203 54.3121 9.41851 51.4905 9.41851H50.1283V13.9526L54.5846 13.6802L54.6819 13.758L54.2732 15.2175L54.1564 15.2564L50.1283 14.8672V19.7322H51.4126C53.7089 19.7322 54.9154 19.3819 56.1608 17.5527L56.5889 17.7084ZM152 8.81526L150.794 9.63257V20.6079L150.638 20.7635H148.731L141.686 11.0337V19.5181L143.107 20.3354V20.7635H139.215V20.3354L140.421 19.5181V9.61311L139.04 8.83472V8.36769H142.757L149.529 17.7667V9.63257L148.108 8.81526V8.36769H152V8.81526ZM131.742 19.5181L133.163 20.3354V20.7635H128.045V20.3354L129.252 19.5181V9.65203L128.045 8.83472V8.36769H133.241C136.86 8.36769 138.728 9.61311 138.728 11.9872C138.728 14.7116 136.101 16.5602 132.171 16.5602C131.995 16.5602 131.84 16.5602 131.742 16.5408V19.5181ZM127.072 8.81526L125.846 9.61311L121.798 20.7635H119.463L115.163 9.67149L113.898 8.81526V8.36769H118.977V8.7958L117.731 9.63257L121.234 18.623H121.37L124.328 9.61311L123.063 8.7958V8.36769H127.072V8.81526ZM131.742 15.5094C134.506 15.5873 136.16 14.264 136.16 12.0456C136.16 10.2164 135.226 9.2823 133.319 9.2823C132.793 9.2823 132.171 9.41851 131.723 9.63257V15.5094H131.742ZM79.5125 15.6262C79.5125 18.7203 77.4498 20.9192 74.5503 20.9192C73.7135 20.9192 72.9935 20.7052 72.3124 20.4133V23.449L73.7329 24.2663V24.6944H68.7123V24.2663L69.9383 23.449V12.6683L68.7123 11.9483V11.5202L71.9621 10.878L72.3124 11.1115V12.4932C73.0713 11.5007 74.2973 10.8975 75.5622 10.8975C77.8973 10.878 79.5125 12.9213 79.5125 15.6262ZM87.4326 13.038H87.0045C86.6931 12.8434 86.3623 12.7461 86.012 12.7461C85.292 12.7461 84.5915 13.0186 83.9882 13.544V19.4987L85.4477 20.316V20.7441H80.3687V20.316L81.5947 19.4987V12.6488L80.3687 11.9288V11.5007L83.6379 10.8585L83.9882 11.0921V12.6488C84.6109 11.6175 85.7201 10.8975 86.8293 10.8975C87.3353 10.8975 87.7829 11.0337 88.1331 11.2866L87.4326 13.038ZM94.8273 15.7624C93.504 15.7624 92.0251 15.7235 90.4294 15.6651C90.6435 17.864 91.85 19.1484 93.8154 19.1484C95.0024 19.1484 95.7614 18.8565 96.4035 18.3116L96.8122 18.623C96.17 20.1798 94.7105 21.0165 92.8229 21.0165C89.9234 21.0165 87.9775 19.0316 87.9775 15.9959C87.9775 13.0964 89.904 10.8585 92.8424 10.8585C94.2046 10.8585 95.2165 11.2866 95.956 12.1429C96.676 12.9796 97.0457 14.0889 97.0262 15.451L96.7343 15.7429C96.3257 15.7624 95.6835 15.7624 94.8273 15.7624ZM98.7192 17.9808H99.1279C99.8868 19.2457 101.015 19.9657 101.988 19.9657C102.845 19.9657 103.39 19.5181 103.39 18.7981C103.39 18.0003 102.923 17.5527 101.735 17.1051L100.86 16.7743C99.1863 16.1516 98.1938 15.1397 98.1938 13.8164C98.1938 12.1818 99.7311 10.9169 102.008 10.9169C103.331 10.9169 104.577 11.2283 105.511 11.7731L104.557 13.3883H104.168C103.526 12.3764 102.708 11.8704 101.774 11.8704C100.938 11.8704 100.373 12.3375 100.373 12.9991C100.373 13.6997 100.879 14.1472 102.397 14.731L103.409 15.1202C104.946 15.704 105.608 16.6381 105.608 17.8446C105.608 19.7322 104.09 20.9192 101.794 20.9192C100.373 20.9192 98.9333 20.5495 97.9019 19.8879L98.7192 17.9808ZM107.359 17.9808H107.768C108.527 19.2457 109.656 19.9657 110.629 19.9657C111.485 19.9657 112.03 19.5181 112.03 18.7981C112.03 18.0003 111.563 17.5527 110.376 17.1051L109.5 16.7743C107.826 16.1516 106.834 15.1397 106.834 13.8164C106.834 12.1818 108.371 10.9169 110.648 10.9169C111.971 10.9169 113.217 11.2283 114.151 11.7731L113.197 13.3883H112.808C112.166 12.3764 111.349 11.8704 110.415 11.8704C109.578 11.8704 109.013 12.3375 109.013 12.9991C109.013 13.6997 109.519 14.1472 111.037 14.731L112.049 15.1202C113.586 15.704 114.248 16.6381 114.248 17.8446C114.248 19.7322 112.73 20.9192 110.434 20.9192C109.013 20.9192 107.573 20.5495 106.542 19.8879L107.359 17.9808ZM63.7696 15.8013L66.6691 19.5181L67.7588 20.3354V20.7635H62.8549V20.3354L63.8863 19.5765L61.9209 16.9105L60.0333 19.5765L61.1814 20.3354V20.7635H57.2895V20.3354L58.496 19.5376L61.3176 16.0737L58.4376 12.4153L57.3284 11.5591V11.131H62.2128V11.5591L61.2009 12.318L63.1468 14.9645L65.0344 12.318L63.8863 11.5591V11.131H67.7783V11.5591L66.5718 12.3569L63.7696 15.8013ZM94.5159 14.478C94.3019 12.7461 93.4846 11.9288 92.4143 11.9288C91.2272 11.9288 90.4489 13.0964 90.3905 14.7505L94.5159 14.478ZM77.1384 16.6381C77.1384 14.4586 76.0681 12.6488 74.3557 12.6488C73.6551 12.6488 72.9546 12.8823 72.2929 13.3688V18.5451C72.8378 19.3819 73.694 19.81 74.6865 19.81C76.2043 19.81 77.1384 18.623 77.1384 16.6381ZM9.41851 29.1507C5.35143 29.1507 2.74382 26.8544 2.74382 23.6825C2.74382 22.6317 3.05518 21.3473 4.26168 18.7592H0L3.91141 10.3915H31.155C31.7778 10.3915 32.2059 9.92447 32.2059 9.3796C32.2059 8.83472 31.7778 8.36769 31.155 8.36769H9.10716L11.0531 4.22276C12.2596 1.67354 14.8478 0 17.6889 0H26.9517C32.3032 0 36.2535 3.67789 36.2535 8.48445C36.2535 14.1862 31.0188 18.7592 24.9668 18.7592H7.06388C6.51901 19.8879 7.14172 20.783 8.46498 20.783H22.729C25.1031 20.783 26.9128 22.4565 26.9128 24.5776C26.9128 27.0296 24.5582 29.1507 21.8727 29.1507H9.41851Z" fill="black"/>
</svg>
